<svg width="23" height="24" viewBox="0 0 23 24" fill="none" xmlns="http://www.w3.org/2000/svg">
<rect width="43" height="50" transform="translate(-5 -10)" fill=""/>
<path d="M4.5 12.5C4.5 15.3834 4.33286 17.9837 4.06569 19.8539C3.93156 20.7928 3.77511 21.5265 3.61016 22.0149C3.5715 22.1293 3.53443 22.224 3.5 22.3009C3.46557 22.224 3.4285 22.1293 3.38984 22.0149C3.22489 21.5265 3.06844 20.7928 2.93431 19.8539C2.66714 17.9837 2.5 15.3834 2.5 12.5C2.5 9.61655 2.66714 7.0163 2.93431 5.14609C3.06844 4.20721 3.22489 3.47352 3.38984 2.98514C3.4285 2.87067 3.46557 2.77601 3.5 2.69909C3.53443 2.77601 3.5715 2.87067 3.61016 2.98514C3.77511 3.47352 3.93156 4.20721 4.06569 5.14609C4.33286 7.0163 4.5 9.61655 4.5 12.5ZM3.35559 22.5454C3.35558 22.5451 3.35749 22.5431 3.36139 22.54C3.35756 22.5441 3.35561 22.5456 3.35559 22.5454ZM3.6386 22.54C3.64251 22.5431 3.64442 22.5451 3.64441 22.5454C3.64439 22.5456 3.64244 22.5441 3.6386 22.54ZM3.64441 2.4546C3.64442 2.45485 3.6425 2.4569 3.63857 2.46001C3.64243 2.4559 3.64439 2.45435 3.64441 2.4546ZM3.36143 2.46001C3.3575 2.4569 3.35558 2.45485 3.35559 2.4546C3.35561 2.45435 3.35757 2.4559 3.36143 2.46001Z" stroke="#999"/>
<path d="M20.5 12.5C20.5 15.3834 20.3329 17.9837 20.0657 19.8539C19.9316 20.7928 19.7751 21.5265 19.6102 22.0149C19.5715 22.1293 19.5344 22.224 19.5 22.3009C19.4656 22.224 19.4285 22.1293 19.3898 22.0149C19.2249 21.5265 19.0684 20.7928 18.9343 19.8539C18.6671 17.9837 18.5 15.3834 18.5 12.5C18.5 9.61655 18.6671 7.0163 18.9343 5.14609C19.0684 4.20721 19.2249 3.47352 19.3898 2.98514C19.4285 2.87067 19.4656 2.77601 19.5 2.69909C19.5344 2.77601 19.5715 2.87067 19.6102 2.98514C19.7751 3.47352 19.9316 4.20721 20.0657 5.14609C20.3329 7.0163 20.5 9.61655 20.5 12.5ZM19.3556 22.5454C19.3556 22.5451 19.3575 22.5431 19.3614 22.54C19.3576 22.5441 19.3556 22.5456 19.3556 22.5454ZM19.6386 22.54C19.6425 22.5431 19.6444 22.5451 19.6444 22.5454C19.6444 22.5456 19.6424 22.5441 19.6386 22.54ZM19.6444 2.4546C19.6444 2.45485 19.6425 2.4569 19.6386 2.46001C19.6424 2.4559 19.6444 2.45435 19.6444 2.4546ZM19.3614 2.46001C19.3575 2.4569 19.3556 2.45485 19.3556 2.4546C19.3556 2.45435 19.3576 2.4559 19.3614 2.46001Z" stroke="#999

"/>
<rect x="4" y="7" width="15" height="1" fill="#999"/>
<rect width="15" height="1" transform="matrix(1 0 0 -1 4 14)" fill="#999"/>
<rect width="15" height="1" transform="matrix(1 0 0 -1 4 20)" fill="#999"/>
<path d="M15.1875 15C14.7549 15 14.3319 15.1283 13.9722 15.3687C13.6125 15.609 13.3321 15.9507 13.1665 16.3504C13.0009 16.7501 12.9576 17.1899 13.042 17.6143C13.1264 18.0386 13.3348 18.4284 13.6407 18.7343C13.9466 19.0402 14.3364 19.2486 14.7607 19.333C15.1851 19.4174 15.6249 19.3741 16.0246 19.2085C16.4243 19.0429 16.766 18.7625 17.0063 18.4028C17.2467 18.0431 17.375 17.6201 17.375 17.1875C17.3743 16.6075 17.1437 16.0515 16.7336 15.6414C16.3235 15.2313 15.7675 15.0007 15.1875 15V15ZM17.0547 17.0312H16.1313C16.1704 16.6269 16.3182 16.2407 16.5591 15.9136C16.8451 16.2199 17.0197 16.6136 17.0547 17.0312ZM15.3438 17.0312V15.3203C15.701 15.3501 16.0421 15.4824 16.3261 15.7012C16.0337 16.0872 15.8577 16.5486 15.8188 17.0312H15.3438ZM15.0313 17.0312H14.5563C14.5173 16.5486 14.3413 16.0872 14.0489 15.7012C14.3329 15.4824 14.674 15.3502 15.0313 15.3205V17.0312ZM15.0313 17.3438V19.0547C14.674 19.0249 14.3329 18.8926 14.0489 18.6737C14.3413 18.2878 14.5173 17.8264 14.5563 17.3438H15.0313ZM15.3438 17.3438H15.8188C15.8578 17.8264 16.0338 18.2878 16.3263 18.6737C16.0422 18.8926 15.7011 19.0248 15.3438 19.0545V17.3438ZM13.8156 15.9136C14.0566 16.2407 14.2045 16.6269 14.2438 17.0312H13.3205C13.3554 16.6136 13.5298 16.2199 13.8158 15.9136H13.8156ZM13.3203 17.3438H14.2438C14.2046 17.7481 14.0568 18.1343 13.8159 18.4614C13.5299 18.1551 13.3553 17.7614 13.3203 17.3438V17.3438ZM16.5594 18.4614C16.3184 18.1343 16.1705 17.7481 16.1313 17.3438H17.0544C17.0195 17.7614 16.845 18.1551 16.5591 18.4614H16.5594Z" fill="black"/>
<path d="M8.1875 3C7.75485 3 7.33192 3.12829 6.97219 3.36866C6.61246 3.60903 6.33208 3.95067 6.16651 4.35038C6.00095 4.75009 5.95763 5.18993 6.04203 5.61426C6.12644 6.03859 6.33478 6.42837 6.6407 6.7343C6.94663 7.04022 7.33641 7.24856 7.76074 7.33297C8.18507 7.41737 8.62491 7.37405 9.02462 7.20849C9.42433 7.04292 9.76598 6.76254 10.0063 6.40281C10.2467 6.04308 10.375 5.62015 10.375 5.1875C10.3743 4.60754 10.1437 4.05153 9.73357 3.64143C9.32347 3.23134 8.76746 3.00066 8.1875 3V3ZM10.0547 5.03125H9.13125C9.17042 4.62693 9.31824 4.24073 9.55906 3.91359C9.84512 4.2199 10.0197 4.6136 10.0547 5.03125ZM8.34375 5.03125V3.32031C8.70104 3.35008 9.04215 3.48235 9.32609 3.70125C9.03374 4.0872 8.85772 4.54864 8.81875 5.03125H8.34375ZM8.03125 5.03125H7.55625C7.51728 4.54864 7.34126 4.0872 7.04891 3.70125C7.33287 3.48241 7.67398 3.35019 8.03125 3.32047V5.03125ZM8.03125 5.34375V7.05469C7.67396 7.02492 7.33286 6.89265 7.04891 6.67375C7.34126 6.2878 7.51728 5.82636 7.55625 5.34375H8.03125ZM8.34375 5.34375H8.81875C8.85776 5.82638 9.03384 6.28781 9.32625 6.67375C9.04224 6.89262 8.70108 7.02484 8.34375 7.05453V5.34375ZM6.81563 3.91359C7.05656 4.2407 7.20449 4.62689 7.24375 5.03125H6.32047C6.35536 4.61364 6.52984 4.21994 6.81578 3.91359H6.81563ZM6.32031 5.34375H7.24375C7.20459 5.74807 7.05676 6.13427 6.81594 6.46141C6.52988 6.1551 6.35529 5.7614 6.32031 5.34375V5.34375ZM9.55938 6.46141C9.31844 6.1343 9.17051 5.74811 9.13125 5.34375H10.0544C10.0195 5.76136 9.84501 6.15506 9.55906 6.46141H9.55938Z" fill="black"/>
<path d="M8.1875 15C7.75485 15 7.33192 15.1283 6.97219 15.3687C6.61246 15.609 6.33208 15.9507 6.16651 16.3504C6.00095 16.7501 5.95763 17.1899 6.04203 17.6143C6.12644 18.0386 6.33478 18.4284 6.6407 18.7343C6.94663 19.0402 7.33641 19.2486 7.76074 19.333C8.18507 19.4174 8.62491 19.3741 9.02462 19.2085C9.42433 19.0429 9.76598 18.7625 10.0063 18.4028C10.2467 18.0431 10.375 17.6201 10.375 17.1875C10.3743 16.6075 10.1437 16.0515 9.73357 15.6414C9.32347 15.2313 8.76746 15.0007 8.1875 15V15ZM10.0547 17.0312H9.13125C9.17042 16.6269 9.31824 16.2407 9.55906 15.9136C9.84512 16.2199 10.0197 16.6136 10.0547 17.0312ZM8.34375 17.0312V15.3203C8.70104 15.3501 9.04215 15.4824 9.32609 15.7012C9.03374 16.0872 8.85772 16.5486 8.81875 17.0312H8.34375ZM8.03125 17.0312H7.55625C7.51728 16.5486 7.34126 16.0872 7.04891 15.7012C7.33287 15.4824 7.67398 15.3502 8.03125 15.3205V17.0312ZM8.03125 17.3438V19.0547C7.67396 19.0249 7.33286 18.8926 7.04891 18.6737C7.34126 18.2878 7.51728 17.8264 7.55625 17.3438H8.03125ZM8.34375 17.3438H8.81875C8.85776 17.8264 9.03384 18.2878 9.32625 18.6737C9.04224 18.8926 8.70108 19.0248 8.34375 19.0545V17.3438ZM6.81563 15.9136C7.05656 16.2407 7.20449 16.6269 7.24375 17.0312H6.32047C6.35536 16.6136 6.52984 16.2199 6.81578 15.9136H6.81563ZM6.32031 17.3438H7.24375C7.20459 17.7481 7.05676 18.1343 6.81594 18.4614C6.52988 18.1551 6.35529 17.7614 6.32031 17.3438V17.3438ZM9.55938 18.4614C9.31844 18.1343 9.17051 17.7481 9.13125 17.3438H10.0544C10.0195 17.7614 9.84501 18.1551 9.55906 18.4614H9.55938Z" fill="black"/>
<path d="M15.1875 9C14.7549 9 14.3319 9.12829 13.9722 9.36866C13.6125 9.60903 13.3321 9.95067 13.1665 10.3504C13.0009 10.7501 12.9576 11.1899 13.042 11.6143C13.1264 12.0386 13.3348 12.4284 13.6407 12.7343C13.9466 13.0402 14.3364 13.2486 14.7607 13.333C15.1851 13.4174 15.6249 13.3741 16.0246 13.2085C16.4243 13.0429 16.766 12.7625 17.0063 12.4028C17.2467 12.0431 17.375 11.6201 17.375 11.1875C17.3743 10.6075 17.1437 10.0515 16.7336 9.64143C16.3235 9.23134 15.7675 9.00066 15.1875 9V9ZM17.0547 11.0312H16.1313C16.1704 10.6269 16.3182 10.2407 16.5591 9.91359C16.8451 10.2199 17.0197 10.6136 17.0547 11.0312ZM15.3438 11.0312V9.32031C15.701 9.35008 16.0421 9.48235 16.3261 9.70125C16.0337 10.0872 15.8577 10.5486 15.8188 11.0312H15.3438ZM15.0313 11.0312H14.5563C14.5173 10.5486 14.3413 10.0872 14.0489 9.70125C14.3329 9.48241 14.674 9.35019 15.0313 9.32047V11.0312ZM15.0313 11.3438V13.0547C14.674 13.0249 14.3329 12.8926 14.0489 12.6737C14.3413 12.2878 14.5173 11.8264 14.5563 11.3438H15.0313ZM15.3438 11.3438H15.8188C15.8578 11.8264 16.0338 12.2878 16.3263 12.6737C16.0422 12.8926 15.7011 13.0248 15.3438 13.0545V11.3438ZM13.8156 9.91359C14.0566 10.2407 14.2045 10.6269 14.2438 11.0312H13.3205C13.3554 10.6136 13.5298 10.2199 13.8158 9.91359H13.8156ZM13.3203 11.3438H14.2438C14.2046 11.7481 14.0568 12.1343 13.8159 12.4614C13.5299 12.1551 13.3553 11.7614 13.3203 11.3438V11.3438ZM16.5594 12.4614C16.3184 12.1343 16.1705 11.7481 16.1313 11.3438H17.0544C17.0195 11.7614 16.845 12.1551 16.5591 12.4614H16.5594Z" fill="black"/>
<path d="M8.1875 9C7.75485 9 7.33192 9.12829 6.97219 9.36866C6.61246 9.60903 6.33208 9.95067 6.16651 10.3504C6.00095 10.7501 5.95763 11.1899 6.04203 11.6143C6.12644 12.0386 6.33478 12.4284 6.6407 12.7343C6.94663 13.0402 7.33641 13.2486 7.76074 13.333C8.18507 13.4174 8.62491 13.3741 9.02462 13.2085C9.42433 13.0429 9.76598 12.7625 10.0063 12.4028C10.2467 12.0431 10.375 11.6201 10.375 11.1875C10.3743 10.6075 10.1437 10.0515 9.73357 9.64143C9.32347 9.23134 8.76746 9.00066 8.1875 9V9ZM10.0547 11.0312H9.13125C9.17042 10.6269 9.31824 10.2407 9.55906 9.91359C9.84512 10.2199 10.0197 10.6136 10.0547 11.0312ZM8.34375 11.0312V9.32031C8.70104 9.35008 9.04215 9.48235 9.32609 9.70125C9.03374 10.0872 8.85772 10.5486 8.81875 11.0312H8.34375ZM8.03125 11.0312H7.55625C7.51728 10.5486 7.34126 10.0872 7.04891 9.70125C7.33287 9.48241 7.67398 9.35019 8.03125 9.32047V11.0312ZM8.03125 11.3438V13.0547C7.67396 13.0249 7.33286 12.8926 7.04891 12.6737C7.34126 12.2878 7.51728 11.8264 7.55625 11.3438H8.03125ZM8.34375 11.3438H8.81875C8.85776 11.8264 9.03384 12.2878 9.32625 12.6737C9.04224 12.8926 8.70108 13.0248 8.34375 13.0545V11.3438ZM6.81563 9.91359C7.05656 10.2407 7.20449 10.6269 7.24375 11.0312H6.32047C6.35536 10.6136 6.52984 10.2199 6.81578 9.91359H6.81563ZM6.32031 11.3438H7.24375C7.20459 11.7481 7.05676 12.1343 6.81594 12.4614C6.52988 12.1551 6.35529 11.7614 6.32031 11.3438V11.3438ZM9.55938 12.4614C9.31844 12.1343 9.17051 11.7481 9.13125 11.3438H10.0544C10.0195 11.7614 9.84501 12.1551 9.55906 12.4614H9.55938Z" fill="black"/>
</svg>
