<svg width="701" height="830" viewBox="0 0 701 830" fill="none" xmlns="http://www.w3.org/2000/svg">
<rect width="701" height="830" fill="white"/>
<rect x="77" y="151" width="74" height="100" fill="white"/>
<rect x="77.3488" y="579.944" width="74" height="100" transform="rotate(-0.132873 77.3488 579.944)" fill="white"/>
<rect x="457.348" y="579.063" width="74" height="100" transform="rotate(-0.132873 457.348 579.063)" fill="white"/>
<rect width="74" height="100" transform="matrix(-1 0 0 1 624 151.5)" fill="white"/>
<line x1="351.75" y1="-4.82551e-10" x2="351.75" y2="400" stroke="black" stroke-width="1.5"/>
<rect x="1.5" y="155.5" width="150" height="88" stroke="black"/>
<rect x="1.8595" y="584.619" width="150" height="88" transform="rotate(-0.132873 1.8595 584.619)" stroke="black"/>
<rect x="381.858" y="583.738" width="150" height="88" transform="rotate(-0.132873 381.858 583.738)" stroke="black"/>
<rect x="-0.5" y="0.5" width="150" height="88" transform="matrix(-1 0 0 1 699 155.5)" stroke="black"/>
<line x1="1" y1="49.5" x2="141" y2="49.5" stroke="black"/>
<line x1="1.11365" y1="478.621" x2="141.113" y2="478.296" stroke="black"/>
<line x1="381.113" y1="477.74" x2="521.112" y2="477.415" stroke="black"/>
<line y1="-0.5" x2="140" y2="-0.5" transform="matrix(-1 0 0 1 700 50.5)" stroke="black"/>
<line x1="17.5" y1="187" x2="17.5" y2="213" stroke="black"/>
<line x1="17.9325" y1="616.082" x2="17.9928" y2="642.082" stroke="black"/>
<line x1="397.931" y1="615.201" x2="397.992" y2="641.201" stroke="black"/>
<line x1="684.5" y1="188" x2="684.5" y2="214" stroke="black"/>
<line y1="351.5" x2="140" y2="351.5" stroke="black"/>
<line x1="0.814026" y1="780.622" x2="140.814" y2="780.298" stroke="black"/>
<line x1="380.813" y1="779.741" x2="520.813" y2="779.417" stroke="black"/>
<line y1="-0.5" x2="140" y2="-0.5" transform="matrix(-1 0 0 1 701 352.5)" stroke="black"/>
<circle cx="149.5" cy="199.5" r="44" transform="rotate(-180 149.5 199.5)" stroke="black" stroke-linecap="round" stroke-linejoin="round"/>
<circle cx="149.961" cy="628.276" r="44" transform="rotate(179.867 149.961 628.276)" stroke="black" stroke-linecap="round" stroke-linejoin="round"/>
<circle cx="529.96" cy="627.395" r="44" transform="rotate(179.867 529.96 627.395)" stroke="black" stroke-linecap="round" stroke-linejoin="round"/>
<circle r="44" transform="matrix(1 0 0 -1 551.5 200)" stroke="black" stroke-linecap="round" stroke-linejoin="round"/>
<rect x="152" y="154" width="51" height="90" fill="white"/>
<rect x="152.356" y="582.77" width="51" height="90" transform="rotate(-0.132873 152.356 582.77)" fill="white"/>
<rect x="532.355" y="581.889" width="51" height="90" transform="rotate(-0.132873 532.355 581.889)" fill="white"/>
<rect width="51" height="90" transform="matrix(-1 0 0 1 549 154.5)" fill="white"/>
<rect x="152" y="154" width="51" height="90" fill="white"/>
<rect x="152.356" y="582.77" width="51" height="90" transform="rotate(-0.132873 152.356 582.77)" fill="white"/>
<rect x="532.355" y="581.889" width="51" height="90" transform="rotate(-0.132873 532.355 581.889)" fill="white"/>
<rect width="51" height="90" transform="matrix(-1 0 0 1 549 154.5)" fill="white"/>
<circle cx="149.5" cy="199.5" r="44" transform="rotate(-180 149.5 199.5)" stroke="black" stroke-linecap="round"/>
<circle cx="149.961" cy="628.276" r="44" transform="rotate(179.867 149.961 628.276)" stroke="black" stroke-linecap="round"/>
<circle cx="529.96" cy="627.395" r="44" transform="rotate(179.867 529.96 627.395)" stroke="black" stroke-linecap="round"/>
<circle r="44" transform="matrix(1 0 0 -1 551.5 200)" stroke="black" stroke-linecap="round"/>
<rect x="77" y="156" width="74" height="87" fill="white"/>
<rect x="77.3605" y="584.944" width="74" height="87" transform="rotate(-0.132873 77.3605 584.944)" fill="white"/>
<rect x="457.359" y="584.063" width="74" height="87" transform="rotate(-0.132873 457.359 584.063)" fill="white"/>
<rect width="74" height="87" transform="matrix(-1 0 0 1 624 156.5)" fill="white"/>
<circle cx="149.5" cy="199.5" r="44" transform="rotate(-180 149.5 199.5)" stroke="black" stroke-linecap="round" stroke-dasharray="5 5"/>
<circle cx="149.961" cy="628.276" r="44" transform="rotate(179.867 149.961 628.276)" stroke="black" stroke-linecap="round" stroke-dasharray="5 5"/>
<circle cx="529.96" cy="627.395" r="44" transform="rotate(179.867 529.96 627.395)" stroke="black" stroke-linecap="round" stroke-dasharray="5 5"/>
<circle r="44" transform="matrix(1 0 0 -1 551.5 200)" stroke="black" stroke-linecap="round" stroke-dasharray="5 5"/>
<circle cx="350.5" cy="199.5" r="44" transform="rotate(-180 350.5 199.5)" stroke="black" stroke-linecap="round"/>
<path d="M318.859 583.884C294.282 583.941 274.405 603.911 274.462 628.487C274.519 653.064 294.488 672.941 319.065 672.884" stroke="black" stroke-linecap="round"/>
<path d="M699.858 583.001C675.281 583.058 655.404 603.027 655.461 627.604C655.518 652.18 675.487 672.058 700.064 672.001" stroke="black" stroke-linecap="round"/>
<path d="M140 351.5C181.421 351.5 216 283.947 216 200C216 116.053 181.921 49.5 140.5 49.5" stroke="black"/>
<path d="M140.814 780.298C182.235 780.202 216.657 712.569 216.462 628.622C216.267 544.675 182.035 478.201 140.613 478.297" stroke="black"/>
<path d="M520.813 779.416C562.234 779.32 596.656 711.688 596.461 627.741C596.266 543.794 562.034 477.32 520.612 477.416" stroke="black"/>
<path d="M561 352C519.579 352 485 284.447 485 200.5C485 116.553 519.079 50 560.5 50" stroke="black"/>
<circle cx="22" cy="200" r="4.5" stroke="black"/>
<circle cx="22.4626" cy="629.072" r="4.5" transform="rotate(-0.132873 22.4626 629.072)" stroke="black"/>
<circle cx="402.462" cy="628.191" r="4.5" transform="rotate(-0.132873 402.462 628.191)" stroke="black"/>
<circle r="4.5" transform="matrix(-1 0 0 1 679 200.5)" stroke="black"/>
<rect x="1.75" y="0.75" width="698.5" height="398.5" stroke="black" stroke-width="1.5"/>
<rect x="0.751737" y="430.372" width="318.5" height="398.5" transform="rotate(-0.132873 0.751737 430.372)" stroke="black" stroke-width="1.5"/>
<rect x="380.751" y="429.49" width="318.5" height="398.5" transform="rotate(-0.132873 380.751 429.49)" stroke="black" stroke-width="1.5"/>
</svg>
