<svg width="16" height="16" viewBox="0 0 16 16" fill="none" xmlns="http://www.w3.org/2000/svg">
<path d="M14.3875 3.6125C16.8113 7.14 15.9158 11.963 12.3875 14.3875C8.86 16.8112 4.037 15.9155 1.6125 12.3875C-0.811 8.86 0.0847502 4.0345 3.6125 1.6125C7.14 -0.8105 11.9655 0.0852501 14.3875 3.6125" fill="#eee"/>
<path d="M11.331 14.9965C11.331 14.9965 7.631 6.7515 11.5728 1.121L11.903 1.3035C11.903 1.3035 7.77375 6.96 12.1153 14.573L11.331 14.9955" fill="#eee"/>
<path d="M1.6115 12.3872C1.6115 12.3872 5.25825 6.97225 4.25225 1.216L3.80375 1.5245C3.80375 1.5245 5.7725 3.13125 1.3305 11.978" fill="#eee"/>
<path d="M8.63975 0.28525C8.63975 0.28525 4.131 5.93175 5.05725 15.1853C5.05725 15.1853 5.72725 15.384 5.9435 15.4607C6.15925 15.537 4.505 7.07825 9.3195 0.36325L8.6395 0.285" fill="#404041"/>
<path d="M0.42 6.7435C0.42 6.7435 6.28075 10.971 15.4785 9.59325C15.4785 9.59325 15.644 8.91425 15.7098 8.69475C15.7758 8.475 7.408 10.5417 0.46425 6.061L0.41925 6.7435" fill="#404041"/>
</svg>
