<svg width="700" height="400" viewBox="0 0 700 400" fill="none" xmlns="http://www.w3.org/2000/svg">
<rect width="700" height="400" fill="white"/>
<path d="M49.25 157C49.25 156.585 49.5845 156.25 49.998 156.25H66.0569C67.5532 156.25 68.8955 157.497 70.0612 159.891C71.2178 162.266 72.1521 165.676 72.8727 169.793C74.3131 178.022 74.8889 189.004 74.7221 199.996C74.5552 210.987 73.646 221.973 72.1217 230.204C71.3592 234.323 70.4451 237.738 69.3996 240.118C68.8765 241.309 68.3266 242.226 67.7573 242.842C67.1886 243.457 66.6216 243.75 66.0569 243.75H66.0092H65.9617H65.9142H65.8667H65.8193H65.7719H65.7247H65.6774H65.6302H65.5831H65.536H65.489H65.4421H65.3952H65.3483H65.3015H65.2548H65.2081H65.1615H65.1149H65.0684H65.022H64.9756H64.9292H64.8829H64.8367H64.7905H64.7444H64.6983H64.6523H64.6064H64.5605H64.5147H64.4689H64.4232H64.3775H64.3319H64.2863H64.2408H64.1954H64.15H64.1047H64.0594H64.0142H63.9691H63.924H63.8789H63.834H63.789H63.7442H63.6994H63.6546H63.6099H63.5653H63.5207H63.4762H63.4317H63.3873H63.343H63.2987H63.2545H63.2103H63.1662H63.1221H63.0781H63.0342H62.9903H62.9465H62.9027H62.859H62.8154H62.7718H62.7282H62.6848H62.6414H62.598H62.5547H62.5115H62.4683H62.4252H62.3821H62.3391H62.2962H62.2533H62.2105H62.1677H62.125H62.0824H62.0398H61.9973H61.9548H61.9124H61.87H61.8278H61.7855H61.7434H61.7013H61.6592H61.6172H61.5753H61.5334H61.4916H61.4499H61.4082H61.3666H61.325H61.2835H61.242H61.2007H61.1593H61.1181H61.0769H61.0357H60.9946H60.9536H60.9127H60.8718H60.8309H60.7901H60.7494H60.7088H60.6682H60.6276H60.5872H60.5468H60.5064H60.4661H60.4259H60.3857H60.3456H60.3056H60.2656H60.2257H60.1858H60.146H60.1063H60.0666H60.027H59.9874H59.948H59.9085H59.8692H59.8299H59.7906H59.7515H59.7123H59.6733H59.6343H59.5954H59.5565H59.5177H59.479H59.4403H59.4017H59.3631H59.3246H59.2862H59.2479H59.2096H59.1713H59.1332H59.095H59.057H59.019H58.9811H58.9432H58.9054H58.8677H58.83H58.7924H58.7549H58.7174H58.68H58.6427H58.6054H58.5682H58.531H58.4939H58.4569H58.4199H58.383H58.3462H58.3094H58.2727H58.236H58.1995H58.163H58.1265H58.0901H58.0538H58.0175H57.9813H57.9452H57.9091H57.8732H57.8372H57.8013H57.7655H57.7298H57.6941H57.6585H57.623H57.5875H57.5521H57.5167H57.4815H57.4462H57.4111H57.376H57.341H57.306H57.2711H57.2363H57.2015H57.1669H57.1322H57.0977H57.0632H57.0287H56.9944H56.9601H56.9258H56.8917H56.8576H56.8235H56.7896H56.7557H56.7218H56.6881H56.6544H56.6207H56.5872H56.5537H56.5202H56.4869H56.4536H56.4203H56.3872H56.3541H56.3211H56.2881H56.2552H56.2224H56.1896H56.1569H56.1243H56.0917H56.0592H56.0268H55.9944H55.9621H55.9299H55.8978H55.8657H55.8336H55.8017H55.7698H55.738H55.7062H55.6746H55.643H55.6114H55.5799H55.5485H55.5172H55.4859H55.4547H55.4236H55.3925H55.3615H55.3306H55.2997H55.2689H55.2382H55.2076H55.177H55.1465H55.116H55.0856H55.0553H55.0251H54.9949H54.9648H54.9348H54.9048H54.8749H54.8451H54.8153H54.7856H54.756H54.7265H54.697H54.6676H54.6383H54.609H54.5798H54.5507H54.5216H54.4926H54.4637H54.4349H54.4061H54.3774H54.3487H54.3202H54.2917H54.2633H54.2349H54.2066H54.1784H54.1503H54.1222H54.0942H54.0662H54.0384H54.0106H53.9829H53.9552H53.9277H53.9001H53.8727H53.8453H53.8181H53.7908H53.7637H53.7366H53.7096H53.6827H53.6558H53.629H53.6023H53.5756H53.5491H53.5226H53.4961H53.4698H53.4435H53.4173H53.3911H53.365H53.339H53.3131H53.2872H53.2615H53.2357H53.2101H53.1845H53.159H53.1336H53.1083H53.083H53.0578H53.0327H53.0076H52.9826H52.9577H52.9329H52.9081H52.8834H52.8588H52.8342H52.8097H52.7853H52.761H52.7368H52.7126H52.6885H52.6644H52.6405H52.6166H52.5928H52.569H52.5454H52.5218H52.4982H52.4748H52.4514H52.4281H52.4049H52.3818H52.3587H52.3357H52.3128H52.2899H52.2671H52.2444H52.2218H52.1992H52.1768H52.1543H52.132H52.1098H52.0876H52.0655H52.0434H52.0215H51.9996H51.9778H51.9561H51.9344H51.9128H51.8913H51.8699H51.8485H51.8272H51.806H51.7849H51.7639H51.7429H51.722H51.7011H51.6804H51.6597H51.6391H51.6186H51.5981H51.5778H51.5575H51.5372H51.5171H51.497H51.477H51.4571H51.4373H51.4175H51.3978H51.3782H51.3587H51.3392H51.3199H51.3005H51.2813H51.2622H51.2431H51.2241H51.2052H51.1863H51.1676H51.1489H51.1303H51.1117H51.0933H51.0749H51.0566H51.0384H51.0202H51.0021H50.9842H50.9662H50.9484H50.9306H50.913H50.8954H50.8778H50.8604H50.843H50.8257H50.8085H50.7914H50.7743H50.7573H50.7404H50.7236H50.7068H50.6902H50.6736H50.6571H50.6406H50.6243H50.608H50.5918H50.5757H50.5597H50.5437H50.5278H50.512H50.4963H50.4807H50.4651H50.4496H50.4342H50.4189H50.4036H50.3884H50.3734H50.3583H50.3434H50.3286H50.3138H50.2991H50.2845H50.27H50.2555H50.2411H50.2268H50.2126H50.1985H50.1844H50.1705H50.1566H50.1428H50.129H50.1154H50.1018H50.0883H50.0749H50.0616H50.0483H50.0351H50.0221H50.009H49.9961C49.5832 243.75 49.25 243.415 49.25 243V157Z" fill="#64B6D0" stroke="black" stroke-width="0.5"/>
<path d="M650.75 158C650.75 157.585 650.416 157.25 650.002 157.25H633.943C632.447 157.25 631.104 158.497 629.939 160.891C628.782 163.266 627.848 166.676 627.127 170.793C625.687 179.022 625.111 190.004 625.278 200.996C625.445 211.987 626.354 222.973 627.878 231.204C628.641 235.323 629.555 238.738 630.6 241.118C631.123 242.309 631.673 243.226 632.243 243.842C632.811 244.457 633.378 244.75 633.943 244.75H633.991H634.038H634.086H634.133H634.181H634.228H634.275H634.323H634.37H634.417H634.464H634.511H634.558H634.605H634.652H634.698H634.745H634.792H634.839H634.885H634.932H634.978H635.024H635.071H635.117H635.163H635.209H635.256H635.302H635.348H635.394H635.439H635.485H635.531H635.577H635.623H635.668H635.714H635.759H635.805H635.85H635.895H635.941H635.986H636.031H636.076H636.121H636.166H636.211H636.256H636.301H636.345H636.39H636.435H636.479H636.524H636.568H636.613H636.657H636.701H636.746H636.79H636.834H636.878H636.922H636.966H637.01H637.054H637.097H637.141H637.185H637.228H637.272H637.315H637.359H637.402H637.445H637.489H637.532H637.575H637.618H637.661H637.704H637.747H637.79H637.832H637.875H637.918H637.96H638.003H638.045H638.088H638.13H638.172H638.214H638.257H638.299H638.341H638.383H638.425H638.467H638.508H638.55H638.592H638.633H638.675H638.717H638.758H638.799H638.841H638.882H638.923H638.964H639.005H639.046H639.087H639.128H639.169H639.21H639.251H639.291H639.332H639.372H639.413H639.453H639.494H639.534H639.574H639.614H639.654H639.694H639.734H639.774H639.814H639.854H639.894H639.933H639.973H640.013H640.052H640.091H640.131H640.17H640.209H640.249H640.288H640.327H640.366H640.405H640.443H640.482H640.521H640.56H640.598H640.637H640.675H640.714H640.752H640.79H640.829H640.867H640.905H640.943H640.981H641.019H641.057H641.095H641.132H641.17H641.208H641.245H641.283H641.32H641.357H641.395H641.432H641.469H641.506H641.543H641.58H641.617H641.654H641.691H641.727H641.764H641.801H641.837H641.873H641.91H641.946H641.982H642.019H642.055H642.091H642.127H642.163H642.199H642.234H642.27H642.306H642.341H642.377H642.413H642.448H642.483H642.519H642.554H642.589H642.624H642.659H642.694H642.729H642.764H642.798H642.833H642.868H642.902H642.937H642.971H643.006H643.04H643.074H643.108H643.142H643.176H643.21H643.244H643.278H643.312H643.346H643.379H643.413H643.446H643.48H643.513H643.546H643.58H643.613H643.646H643.679H643.712H643.745H643.778H643.81H643.843H643.876H643.908H643.941H643.973H644.006H644.038H644.07H644.102H644.134H644.166H644.198H644.23H644.262H644.294H644.325H644.357H644.389H644.42H644.451H644.483H644.514H644.545H644.576H644.607H644.638H644.669H644.7H644.731H644.762H644.792H644.823H644.854H644.884H644.914H644.945H644.975H645.005H645.035H645.065H645.095H645.125H645.155H645.185H645.214H645.244H645.274H645.303H645.332H645.362H645.391H645.42H645.449H645.478H645.507H645.536H645.565H645.594H645.623H645.651H645.68H645.708H645.737H645.765H645.793H645.822H645.85H645.878H645.906H645.934H645.962H645.989H646.017H646.045H646.072H646.1H646.127H646.155H646.182H646.209H646.236H646.263H646.29H646.317H646.344H646.371H646.398H646.424H646.451H646.477H646.504H646.53H646.557H646.583H646.609H646.635H646.661H646.687H646.713H646.739H646.764H646.79H646.815H646.841H646.866H646.892H646.917H646.942H646.967H646.992H647.017H647.042H647.067H647.092H647.117H647.141H647.166H647.19H647.215H647.239H647.263H647.287H647.312H647.336H647.36H647.383H647.407H647.431H647.455H647.478H647.502H647.525H647.549H647.572H647.595H647.618H647.641H647.664H647.687H647.71H647.733H647.756H647.778H647.801H647.823H647.846H647.868H647.89H647.912H647.935H647.957H647.979H648H648.022H648.044H648.066H648.087H648.109H648.13H648.151H648.173H648.194H648.215H648.236H648.257H648.278H648.299H648.32H648.34H648.361H648.381H648.402H648.422H648.443H648.463H648.483H648.503H648.523H648.543H648.563H648.582H648.602H648.622H648.641H648.661H648.68H648.699H648.719H648.738H648.757H648.776H648.795H648.814H648.832H648.851H648.87H648.888H648.907H648.925H648.943H648.962H648.98H648.998H649.016H649.034H649.052H649.069H649.087H649.105H649.122H649.14H649.157H649.174H649.192H649.209H649.226H649.243H649.26H649.276H649.293H649.31H649.326H649.343H649.359H649.376H649.392H649.408H649.424H649.44H649.456H649.472H649.488H649.504H649.519H649.535H649.55H649.566H649.581H649.596H649.612H649.627H649.642H649.657H649.671H649.686H649.701H649.716H649.73H649.744H649.759H649.773H649.787H649.802H649.816H649.83H649.843H649.857H649.871H649.885H649.898H649.912H649.925H649.938H649.952H649.965H649.978H649.991H650.004C650.417 244.75 650.75 244.415 650.75 244V158Z" fill="#64B6D0" stroke="black" stroke-width="0.5"/>
<line x1="50" y1="1" x2="50" y2="400" stroke="#D60A0A" stroke-width="2"/>
<line x1="650" y1="1" x2="650" y2="400" stroke="#D60A0A" stroke-width="2"/>
<line x1="245" y1="399.001" x2="245" y2="-3.05176e-05" stroke="#044480" stroke-width="4"/>
<line x1="457" y1="400" x2="457" y2="3" stroke="#044480" stroke-width="4"/>
<line x1="353" y1="398" x2="353" y2="1" stroke="#D60A0A" stroke-width="4" stroke-dasharray="4 4"/>
<circle cx="158" cy="82" r="38.5" stroke="#D60A0A" stroke-width="3"/>
<circle cx="353" cy="200" r="38.5" stroke="#D60A0A" stroke-width="3"/>
<circle cx="158" cy="318" r="38.5" stroke="#D60A0A" stroke-width="3"/>
<circle cx="544" cy="318" r="38.5" stroke="#D60A0A" stroke-width="3"/>
<circle cx="544" cy="82" r="38.5" stroke="#D60A0A" stroke-width="3"/>
<circle cx="158" cy="82" r="4" fill="#D60A0A"/>
<circle cx="278" cy="68" r="4" fill="#D60A0A"/>
<circle cx="423" cy="68" r="4" fill="#D60A0A"/>
<circle cx="423" cy="332" r="4" fill="#D60A0A"/>
<circle cx="278" cy="332" r="4" fill="#D60A0A"/>
<circle cx="353" cy="200" r="4" fill="#D60A0A"/>
<circle cx="544" cy="82" r="4" fill="#D60A0A"/>
<circle cx="544" cy="318" r="4" fill="#D60A0A"/>
<circle cx="158" cy="318" r="4" fill="#D60A0A"/>
<rect x="2" y="2" width="696" height="396" rx="38" stroke="black" stroke-width="4"/>
<rect x="301" y="362" width="105" height="24" fill="white"/>
<mask id="path-24-inside-1" fill="white">
<rect x="29" y="170" width="22" height="59" rx="1"/>
</mask>
<rect x="29" y="170" width="22" height="59" rx="1" stroke="black" stroke-width="4" mask="url(#path-24-inside-1)"/>
<mask id="path-25-inside-2" fill="white">
<rect x="649" y="170" width="22" height="59" rx="1"/>
</mask>
<rect x="649" y="170" width="22" height="59" rx="1" stroke="black" stroke-width="4" mask="url(#path-25-inside-2)"/>
<path d="M109.889 383V373.047H112.951C113.826 373.047 114.608 373.245 115.296 373.642C115.989 374.034 116.529 374.594 116.916 375.323C117.303 376.048 117.497 376.873 117.497 377.798V378.256C117.497 379.181 117.306 380.004 116.923 380.724C116.545 381.444 116.009 382.002 115.316 382.398C114.624 382.795 113.842 382.995 112.972 383H109.889ZM111.939 374.708V381.353H112.931C113.733 381.353 114.346 381.09 114.77 380.566C115.193 380.042 115.41 379.293 115.419 378.317V377.791C115.419 376.779 115.209 376.014 114.79 375.494C114.371 374.97 113.758 374.708 112.951 374.708H111.939ZM122.269 383.137C121.184 383.137 120.3 382.804 119.616 382.139C118.937 381.473 118.598 380.587 118.598 379.479V379.288C118.598 378.545 118.741 377.882 119.028 377.299C119.315 376.711 119.721 376.26 120.245 375.945C120.774 375.626 121.375 375.467 122.05 375.467C123.062 375.467 123.857 375.786 124.436 376.424C125.019 377.062 125.311 377.966 125.311 379.138V379.944H120.601C120.664 380.427 120.856 380.815 121.175 381.106C121.498 381.398 121.906 381.544 122.398 381.544C123.16 381.544 123.754 381.268 124.183 380.717L125.153 381.804C124.857 382.223 124.456 382.551 123.95 382.788C123.444 383.021 122.884 383.137 122.269 383.137ZM122.043 377.066C121.651 377.066 121.332 377.199 121.086 377.463C120.844 377.727 120.689 378.105 120.621 378.598H123.369V378.44C123.36 378.003 123.242 377.666 123.014 377.429C122.786 377.187 122.462 377.066 122.043 377.066ZM126.979 383V377.053H125.878V375.604H126.979V374.975C126.979 374.145 127.215 373.503 127.689 373.047C128.168 372.587 128.836 372.356 129.692 372.356C129.966 372.356 130.301 372.402 130.697 372.493L130.677 374.024C130.513 373.983 130.312 373.963 130.075 373.963C129.332 373.963 128.961 374.312 128.961 375.009V375.604H130.431V377.053H128.961V383H126.979ZM134.696 383.137C133.612 383.137 132.728 382.804 132.044 382.139C131.365 381.473 131.025 380.587 131.025 379.479V379.288C131.025 378.545 131.169 377.882 131.456 377.299C131.743 376.711 132.149 376.26 132.673 375.945C133.201 375.626 133.803 375.467 134.478 375.467C135.489 375.467 136.285 375.786 136.863 376.424C137.447 377.062 137.738 377.966 137.738 379.138V379.944H133.028C133.092 380.427 133.284 380.815 133.603 381.106C133.926 381.398 134.334 381.544 134.826 381.544C135.587 381.544 136.182 381.268 136.61 380.717L137.581 381.804C137.285 382.223 136.884 382.551 136.378 382.788C135.872 383.021 135.312 383.137 134.696 383.137ZM134.471 377.066C134.079 377.066 133.76 377.199 133.514 377.463C133.272 377.727 133.117 378.105 133.049 378.598H135.797V378.44C135.788 378.003 135.669 377.666 135.441 377.429C135.214 377.187 134.89 377.066 134.471 377.066ZM140.685 375.604L140.746 376.458C141.275 375.797 141.983 375.467 142.872 375.467C143.656 375.467 144.239 375.697 144.622 376.157C145.005 376.618 145.201 377.306 145.21 378.222V383H143.234V378.27C143.234 377.85 143.143 377.547 142.961 377.36C142.779 377.169 142.476 377.073 142.052 377.073C141.496 377.073 141.079 377.31 140.801 377.784V383H138.825V375.604H140.685ZM150.72 380.956C150.72 380.715 150.599 380.525 150.357 380.389C150.12 380.247 149.738 380.122 149.209 380.013C147.45 379.644 146.57 378.896 146.57 377.771C146.57 377.114 146.841 376.567 147.384 376.13C147.931 375.688 148.644 375.467 149.523 375.467C150.462 375.467 151.212 375.688 151.772 376.13C152.338 376.572 152.62 377.146 152.62 377.853H150.645C150.645 377.57 150.553 377.338 150.371 377.155C150.189 376.968 149.904 376.875 149.517 376.875C149.184 376.875 148.926 376.95 148.744 377.101C148.562 377.251 148.471 377.442 148.471 377.675C148.471 377.894 148.573 378.071 148.778 378.208C148.988 378.34 149.339 378.456 149.831 378.557C150.323 378.652 150.738 378.762 151.075 378.885C152.119 379.268 152.641 379.931 152.641 380.874C152.641 381.549 152.351 382.095 151.772 382.515C151.194 382.929 150.446 383.137 149.53 383.137C148.91 383.137 148.359 383.027 147.876 382.809C147.397 382.585 147.021 382.282 146.748 381.899C146.475 381.512 146.338 381.095 146.338 380.648H148.211C148.229 380.999 148.359 381.268 148.601 381.455C148.842 381.642 149.166 381.735 149.571 381.735C149.95 381.735 150.234 381.665 150.426 381.523C150.622 381.378 150.72 381.188 150.72 380.956ZM156.004 383H154.021V375.604H156.004V383ZM153.905 373.689C153.905 373.393 154.003 373.149 154.199 372.958C154.4 372.767 154.671 372.671 155.013 372.671C155.35 372.671 155.619 372.767 155.819 372.958C156.02 373.149 156.12 373.393 156.12 373.689C156.12 373.99 156.018 374.236 155.812 374.428C155.612 374.619 155.345 374.715 155.013 374.715C154.68 374.715 154.411 374.619 154.206 374.428C154.006 374.236 153.905 373.99 153.905 373.689ZM160.406 380.587L161.78 375.604H163.845L161.35 383H159.463L156.968 375.604H159.032L160.406 380.587ZM168.028 383.137C166.944 383.137 166.06 382.804 165.376 382.139C164.697 381.473 164.357 380.587 164.357 379.479V379.288C164.357 378.545 164.501 377.882 164.788 377.299C165.075 376.711 165.481 376.26 166.005 375.945C166.534 375.626 167.135 375.467 167.81 375.467C168.821 375.467 169.617 375.786 170.195 376.424C170.779 377.062 171.07 377.966 171.07 379.138V379.944H166.36C166.424 380.427 166.616 380.815 166.935 381.106C167.258 381.398 167.666 381.544 168.158 381.544C168.919 381.544 169.514 381.268 169.942 380.717L170.913 381.804C170.617 382.223 170.216 382.551 169.71 382.788C169.204 383.021 168.644 383.137 168.028 383.137ZM167.803 377.066C167.411 377.066 167.092 377.199 166.846 377.463C166.604 377.727 166.449 378.105 166.381 378.598H169.129V378.44C169.12 378.003 169.001 377.666 168.773 377.429C168.546 377.187 168.222 377.066 167.803 377.066ZM177.988 381.353H183.006V383H175.425V381.797L180.347 374.708H175.432V373.047H182.896V374.223L177.988 381.353ZM183.717 379.233C183.717 378.5 183.858 377.846 184.141 377.271C184.423 376.697 184.829 376.253 185.357 375.938C185.891 375.624 186.508 375.467 187.21 375.467C188.208 375.467 189.021 375.772 189.65 376.383C190.284 376.993 190.637 377.823 190.71 378.871L190.724 379.377C190.724 380.512 190.407 381.423 189.773 382.111C189.14 382.795 188.29 383.137 187.224 383.137C186.157 383.137 185.305 382.795 184.667 382.111C184.034 381.428 183.717 380.498 183.717 379.322V379.233ZM185.692 379.377C185.692 380.079 185.825 380.617 186.089 380.99C186.353 381.359 186.731 381.544 187.224 381.544C187.702 381.544 188.076 381.362 188.345 380.997C188.614 380.628 188.748 380.04 188.748 379.233C188.748 378.545 188.614 378.012 188.345 377.634C188.076 377.256 187.698 377.066 187.21 377.066C186.727 377.066 186.353 377.256 186.089 377.634C185.825 378.007 185.692 378.589 185.692 379.377ZM193.759 375.604L193.82 376.458C194.349 375.797 195.058 375.467 195.946 375.467C196.73 375.467 197.313 375.697 197.696 376.157C198.079 376.618 198.275 377.306 198.284 378.222V383H196.309V378.27C196.309 377.85 196.217 377.547 196.035 377.36C195.853 377.169 195.55 377.073 195.126 377.073C194.57 377.073 194.153 377.31 193.875 377.784V383H191.899V375.604H193.759ZM203.192 383.137C202.108 383.137 201.224 382.804 200.54 382.139C199.861 381.473 199.521 380.587 199.521 379.479V379.288C199.521 378.545 199.665 377.882 199.952 377.299C200.239 376.711 200.645 376.26 201.169 375.945C201.698 375.626 202.299 375.467 202.974 375.467C203.985 375.467 204.781 375.786 205.359 376.424C205.943 377.062 206.234 377.966 206.234 379.138V379.944H201.524C201.588 380.427 201.78 380.815 202.099 381.106C202.422 381.398 202.83 381.544 203.322 381.544C204.083 381.544 204.678 381.268 205.106 380.717L206.077 381.804C205.781 382.223 205.38 382.551 204.874 382.788C204.368 383.021 203.808 383.137 203.192 383.137ZM202.967 377.066C202.575 377.066 202.256 377.199 202.01 377.463C201.768 377.727 201.613 378.105 201.545 378.598H204.293V378.44C204.284 378.003 204.165 377.666 203.938 377.429C203.71 377.187 203.386 377.066 202.967 377.066Z" fill="black"/>
<path d="M320.982 383H318.932L314.939 376.451V383H312.889V373.047H314.939L318.938 379.609V373.047H320.982V383ZM326.048 383.137C324.963 383.137 324.079 382.804 323.396 382.139C322.716 381.473 322.377 380.587 322.377 379.479V379.288C322.377 378.545 322.521 377.882 322.808 377.299C323.095 376.711 323.5 376.26 324.024 375.945C324.553 375.626 325.155 375.467 325.829 375.467C326.841 375.467 327.636 375.786 328.215 376.424C328.798 377.062 329.09 377.966 329.09 379.138V379.944H324.38C324.444 380.427 324.635 380.815 324.954 381.106C325.278 381.398 325.686 381.544 326.178 381.544C326.939 381.544 327.534 381.268 327.962 380.717L328.933 381.804C328.636 382.223 328.235 382.551 327.729 382.788C327.224 383.021 326.663 383.137 326.048 383.137ZM325.822 377.066C325.43 377.066 325.111 377.199 324.865 377.463C324.624 377.727 324.469 378.105 324.4 378.598H327.148V378.44C327.139 378.003 327.021 377.666 326.793 377.429C326.565 377.187 326.242 377.066 325.822 377.066ZM334.647 382.248C334.16 382.84 333.485 383.137 332.624 383.137C331.831 383.137 331.225 382.909 330.806 382.453C330.391 381.997 330.179 381.33 330.17 380.45V375.604H332.146V380.382C332.146 381.152 332.496 381.537 333.198 381.537C333.868 381.537 334.328 381.305 334.579 380.84V375.604H336.562V383H334.702L334.647 382.248ZM340.417 373.785V375.604H341.682V377.053H340.417V380.744C340.417 381.018 340.469 381.214 340.574 381.332C340.679 381.451 340.88 381.51 341.176 381.51C341.395 381.51 341.588 381.494 341.757 381.462V382.959C341.369 383.077 340.971 383.137 340.561 383.137C339.175 383.137 338.469 382.437 338.441 381.038V377.053H337.361V375.604H338.441V373.785H340.417ZM346.938 377.456C346.67 377.42 346.433 377.401 346.228 377.401C345.48 377.401 344.99 377.654 344.758 378.16V383H342.782V375.604H344.648L344.703 376.485C345.1 375.806 345.649 375.467 346.351 375.467C346.569 375.467 346.774 375.496 346.966 375.556L346.938 377.456ZM351.977 383C351.885 382.822 351.819 382.601 351.778 382.337C351.3 382.87 350.678 383.137 349.912 383.137C349.188 383.137 348.586 382.927 348.107 382.508C347.633 382.089 347.396 381.56 347.396 380.922C347.396 380.138 347.686 379.536 348.265 379.117C348.848 378.698 349.689 378.486 350.787 378.481H351.696V378.058C351.696 377.716 351.607 377.442 351.43 377.237C351.257 377.032 350.981 376.93 350.603 376.93C350.27 376.93 350.008 377.009 349.816 377.169C349.63 377.328 349.536 377.547 349.536 377.825H347.561C347.561 377.397 347.693 377 347.957 376.636C348.221 376.271 348.595 375.986 349.078 375.781C349.561 375.572 350.104 375.467 350.705 375.467C351.617 375.467 352.339 375.697 352.872 376.157C353.41 376.613 353.679 377.256 353.679 378.085V381.291C353.683 381.993 353.781 382.524 353.973 382.884V383H351.977ZM350.343 381.626C350.634 381.626 350.903 381.562 351.149 381.435C351.396 381.302 351.578 381.127 351.696 380.908V379.637H350.958C349.969 379.637 349.443 379.979 349.379 380.662L349.372 380.778C349.372 381.024 349.459 381.227 349.632 381.387C349.805 381.546 350.042 381.626 350.343 381.626ZM357.281 383H355.299V372.5H357.281V383ZM364.705 381.353H369.723V383H362.142V381.797L367.063 374.708H362.148V373.047H369.613V374.223L364.705 381.353ZM370.434 379.233C370.434 378.5 370.575 377.846 370.857 377.271C371.14 376.697 371.546 376.253 372.074 375.938C372.607 375.624 373.225 375.467 373.927 375.467C374.925 375.467 375.738 375.772 376.367 376.383C377.001 376.993 377.354 377.823 377.427 378.871L377.44 379.377C377.44 380.512 377.124 381.423 376.49 382.111C375.857 382.795 375.007 383.137 373.94 383.137C372.874 383.137 372.022 382.795 371.384 382.111C370.75 381.428 370.434 380.498 370.434 379.322V379.233ZM372.409 379.377C372.409 380.079 372.541 380.617 372.806 380.99C373.07 381.359 373.448 381.544 373.94 381.544C374.419 381.544 374.793 381.362 375.062 380.997C375.33 380.628 375.465 380.04 375.465 379.233C375.465 378.545 375.33 378.012 375.062 377.634C374.793 377.256 374.414 377.066 373.927 377.066C373.444 377.066 373.07 377.256 372.806 377.634C372.541 378.007 372.409 378.589 372.409 379.377ZM380.476 375.604L380.537 376.458C381.066 375.797 381.774 375.467 382.663 375.467C383.447 375.467 384.03 375.697 384.413 376.157C384.796 376.618 384.992 377.306 385.001 378.222V383H383.025V378.27C383.025 377.85 382.934 377.547 382.752 377.36C382.57 377.169 382.267 377.073 381.843 377.073C381.287 377.073 380.87 377.31 380.592 377.784V383H378.616V375.604H380.476ZM389.909 383.137C388.825 383.137 387.94 382.804 387.257 382.139C386.578 381.473 386.238 380.587 386.238 379.479V379.288C386.238 378.545 386.382 377.882 386.669 377.299C386.956 376.711 387.362 376.26 387.886 375.945C388.414 375.626 389.016 375.467 389.69 375.467C390.702 375.467 391.497 375.786 392.076 376.424C392.66 377.062 392.951 377.966 392.951 379.138V379.944H388.241C388.305 380.427 388.496 380.815 388.815 381.106C389.139 381.398 389.547 381.544 390.039 381.544C390.8 381.544 391.395 381.268 391.823 380.717L392.794 381.804C392.498 382.223 392.097 382.551 391.591 382.788C391.085 383.021 390.524 383.137 389.909 383.137ZM389.684 377.066C389.292 377.066 388.973 377.199 388.727 377.463C388.485 377.727 388.33 378.105 388.262 378.598H391.01V378.44C391.001 378.003 390.882 377.666 390.654 377.429C390.426 377.187 390.103 377.066 389.684 377.066Z" fill="black"/>
<path d="M505.064 378.249C505.064 379.229 504.891 380.088 504.545 380.826C504.199 381.564 503.702 382.134 503.055 382.535C502.412 382.936 501.674 383.137 500.84 383.137C500.015 383.137 499.279 382.938 498.632 382.542C497.985 382.146 497.483 381.58 497.128 380.847C496.772 380.108 496.592 379.261 496.588 378.304V377.812C496.588 376.832 496.763 375.97 497.114 375.228C497.47 374.48 497.969 373.908 498.611 373.512C499.258 373.111 499.997 372.91 500.826 372.91C501.656 372.91 502.392 373.111 503.034 373.512C503.681 373.908 504.18 374.48 504.531 375.228C504.887 375.97 505.064 376.829 505.064 377.805V378.249ZM502.986 377.798C502.986 376.754 502.799 375.961 502.426 375.419C502.052 374.877 501.519 374.605 500.826 374.605C500.138 374.605 499.607 374.874 499.233 375.412C498.86 375.945 498.671 376.729 498.666 377.764V378.249C498.666 379.265 498.853 380.054 499.227 380.614C499.6 381.175 500.138 381.455 500.84 381.455C501.528 381.455 502.057 381.186 502.426 380.648C502.795 380.106 502.982 379.318 502.986 378.283V377.798ZM506.965 383V377.053H505.864V375.604H506.965V374.975C506.965 374.145 507.202 373.503 507.676 373.047C508.154 372.587 508.822 372.356 509.679 372.356C509.952 372.356 510.287 372.402 510.684 372.493L510.663 374.024C510.499 373.983 510.299 373.963 510.062 373.963C509.319 373.963 508.947 374.312 508.947 375.009V375.604H510.417V377.053H508.947V383H506.965ZM511.982 383V377.053H510.882V375.604H511.982V374.975C511.982 374.145 512.219 373.503 512.693 373.047C513.172 372.587 513.84 372.356 514.696 372.356C514.97 372.356 515.305 372.402 515.701 372.493L515.681 374.024C515.517 373.983 515.316 373.963 515.079 373.963C514.336 373.963 513.965 374.312 513.965 375.009V375.604H515.435V377.053H513.965V383H511.982ZM519.7 383.137C518.616 383.137 517.731 382.804 517.048 382.139C516.369 381.473 516.029 380.587 516.029 379.479V379.288C516.029 378.545 516.173 377.882 516.46 377.299C516.747 376.711 517.153 376.26 517.677 375.945C518.205 375.626 518.807 375.467 519.481 375.467C520.493 375.467 521.288 375.786 521.867 376.424C522.451 377.062 522.742 377.966 522.742 379.138V379.944H518.032C518.096 380.427 518.287 380.815 518.606 381.106C518.93 381.398 519.338 381.544 519.83 381.544C520.591 381.544 521.186 381.268 521.614 380.717L522.585 381.804C522.289 382.223 521.888 382.551 521.382 382.788C520.876 383.021 520.315 383.137 519.7 383.137ZM519.475 377.066C519.083 377.066 518.764 377.199 518.518 377.463C518.276 377.727 518.121 378.105 518.053 378.598H520.801V378.44C520.792 378.003 520.673 377.666 520.445 377.429C520.217 377.187 519.894 377.066 519.475 377.066ZM525.688 375.604L525.75 376.458C526.279 375.797 526.987 375.467 527.876 375.467C528.66 375.467 529.243 375.697 529.626 376.157C530.009 376.618 530.205 377.306 530.214 378.222V383H528.238V378.27C528.238 377.85 528.147 377.547 527.965 377.36C527.783 377.169 527.479 377.073 527.056 377.073C526.5 377.073 526.083 377.31 525.805 377.784V383H523.829V375.604H525.688ZM535.724 380.956C535.724 380.715 535.603 380.525 535.361 380.389C535.124 380.247 534.742 380.122 534.213 380.013C532.454 379.644 531.574 378.896 531.574 377.771C531.574 377.114 531.845 376.567 532.388 376.13C532.935 375.688 533.648 375.467 534.527 375.467C535.466 375.467 536.216 375.688 536.776 376.13C537.341 376.572 537.624 377.146 537.624 377.853H535.648C535.648 377.57 535.557 377.338 535.375 377.155C535.193 376.968 534.908 376.875 534.521 376.875C534.188 376.875 533.93 376.95 533.748 377.101C533.566 377.251 533.475 377.442 533.475 377.675C533.475 377.894 533.577 378.071 533.782 378.208C533.992 378.34 534.343 378.456 534.835 378.557C535.327 378.652 535.742 378.762 536.079 378.885C537.123 379.268 537.645 379.931 537.645 380.874C537.645 381.549 537.355 382.095 536.776 382.515C536.198 382.929 535.45 383.137 534.534 383.137C533.914 383.137 533.363 383.027 532.88 382.809C532.401 382.585 532.025 382.282 531.752 381.899C531.479 381.512 531.342 381.095 531.342 380.648H533.215C533.233 380.999 533.363 381.268 533.604 381.455C533.846 381.642 534.17 381.735 534.575 381.735C534.953 381.735 535.238 381.665 535.43 381.523C535.626 381.378 535.724 381.188 535.724 380.956ZM541.008 383H539.025V375.604H541.008V383ZM538.909 373.689C538.909 373.393 539.007 373.149 539.203 372.958C539.404 372.767 539.675 372.671 540.017 372.671C540.354 372.671 540.623 372.767 540.823 372.958C541.024 373.149 541.124 373.393 541.124 373.689C541.124 373.99 541.021 374.236 540.816 374.428C540.616 374.619 540.349 374.715 540.017 374.715C539.684 374.715 539.415 374.619 539.21 374.428C539.009 374.236 538.909 373.99 538.909 373.689ZM545.41 380.587L546.784 375.604H548.849L546.354 383H544.467L541.972 375.604H544.036L545.41 380.587ZM553.032 383.137C551.948 383.137 551.063 382.804 550.38 382.139C549.701 381.473 549.361 380.587 549.361 379.479V379.288C549.361 378.545 549.505 377.882 549.792 377.299C550.079 376.711 550.485 376.26 551.009 375.945C551.537 375.626 552.139 375.467 552.813 375.467C553.825 375.467 554.62 375.786 555.199 376.424C555.783 377.062 556.074 377.966 556.074 379.138V379.944H551.364C551.428 380.427 551.619 380.815 551.938 381.106C552.262 381.398 552.67 381.544 553.162 381.544C553.923 381.544 554.518 381.268 554.946 380.717L555.917 381.804C555.621 382.223 555.22 382.551 554.714 382.788C554.208 383.021 553.647 383.137 553.032 383.137ZM552.807 377.066C552.415 377.066 552.096 377.199 551.85 377.463C551.608 377.727 551.453 378.105 551.385 378.598H554.133V378.44C554.124 378.003 554.005 377.666 553.777 377.429C553.549 377.187 553.226 377.066 552.807 377.066ZM562.992 381.353H568.01V383H560.429V381.797L565.351 374.708H560.436V373.047H567.9V374.223L562.992 381.353ZM568.721 379.233C568.721 378.5 568.862 377.846 569.145 377.271C569.427 376.697 569.833 376.253 570.361 375.938C570.895 375.624 571.512 375.467 572.214 375.467C573.212 375.467 574.025 375.772 574.654 376.383C575.288 376.993 575.641 377.823 575.714 378.871L575.728 379.377C575.728 380.512 575.411 381.423 574.777 382.111C574.144 382.795 573.294 383.137 572.228 383.137C571.161 383.137 570.309 382.795 569.671 382.111C569.037 381.428 568.721 380.498 568.721 379.322V379.233ZM570.696 379.377C570.696 380.079 570.828 380.617 571.093 380.99C571.357 381.359 571.735 381.544 572.228 381.544C572.706 381.544 573.08 381.362 573.349 380.997C573.618 380.628 573.752 380.04 573.752 379.233C573.752 378.545 573.618 378.012 573.349 377.634C573.08 377.256 572.701 377.066 572.214 377.066C571.731 377.066 571.357 377.256 571.093 377.634C570.828 378.007 570.696 378.589 570.696 379.377ZM578.763 375.604L578.824 376.458C579.353 375.797 580.062 375.467 580.95 375.467C581.734 375.467 582.317 375.697 582.7 376.157C583.083 376.618 583.279 377.306 583.288 378.222V383H581.312V378.27C581.312 377.85 581.221 377.547 581.039 377.36C580.857 377.169 580.554 377.073 580.13 377.073C579.574 377.073 579.157 377.31 578.879 377.784V383H576.903V375.604H578.763ZM588.196 383.137C587.112 383.137 586.228 382.804 585.544 382.139C584.865 381.473 584.525 380.587 584.525 379.479V379.288C584.525 378.545 584.669 377.882 584.956 377.299C585.243 376.711 585.649 376.26 586.173 375.945C586.701 375.626 587.303 375.467 587.978 375.467C588.989 375.467 589.785 375.786 590.363 376.424C590.947 377.062 591.238 377.966 591.238 379.138V379.944H586.528C586.592 380.427 586.784 380.815 587.103 381.106C587.426 381.398 587.834 381.544 588.326 381.544C589.087 381.544 589.682 381.268 590.11 380.717L591.081 381.804C590.785 382.223 590.384 382.551 589.878 382.788C589.372 383.021 588.812 383.137 588.196 383.137ZM587.971 377.066C587.579 377.066 587.26 377.199 587.014 377.463C586.772 377.727 586.617 378.105 586.549 378.598H589.297V378.44C589.288 378.003 589.169 377.666 588.941 377.429C588.714 377.187 588.39 377.066 587.971 377.066Z" fill="black"/>
</svg>
