<svg width="330" height="327" viewBox="0 0 330 327" fill="none" xmlns="http://www.w3.org/2000/svg">
<rect width="330" height="327" fill="#BCBDC0"/>
<path d="M1.85209 101.069C2.06234 45.8405 47.0041 1.21881 102.232 1.40318L329.92 2.16332L328.687 326L100.999 325.24C45.7712 325.055 1.17039 280.135 1.38064 224.906L1.85209 101.069Z" fill="white"/>
<path d="M318.735 353.624C305.955 353.636 295.327 340.835 295.305 324.692C295.294 316.73 299.041 309.501 304.454 304.248C309.874 298.988 316.893 295.778 323.325 295.772C336.105 295.76 346.732 308.561 346.754 324.705C346.765 332.666 343.018 339.895 337.605 345.148C332.185 350.408 325.166 353.618 318.735 353.624Z" stroke="#D60A0A" stroke-width="1.5"/>
<path d="M328.562 203.753C305.799 203.774 287.439 186.551 287.41 165.423C287.381 144.295 305.694 127.039 328.457 127.018C351.219 126.998 369.58 144.221 369.609 165.349C369.638 186.476 351.325 203.732 328.562 203.753Z" stroke="#056888" stroke-width="2"/>
<line x1="41.5142" y1="21" x2="41.5142" y2="306" stroke="#D60A0A" stroke-width="2"/>
<line y1="-2.5" x2="324.709" y2="-2.5" transform="matrix(0.00137448 0.999999 -1 0.000905993 174.514 2)" stroke="#044480" stroke-width="5"/>
<line y1="-2" x2="157.878" y2="-2" transform="matrix(0.00137448 0.999999 -1 0.000905993 327.514 1.52881)" stroke="#D60A0A" stroke-width="4" stroke-dasharray="8 8"/>
<line y1="-2" x2="157.878" y2="-2" transform="matrix(0.00137448 0.999999 -1 0.000905993 327.514 168.529)" stroke="#D60A0A" stroke-width="4" stroke-dasharray="8 8"/>
<path d="M329.179 0.999176L101.514 1.20544C46.2857 1.25548 1.57572 46.0675 1.65163 101.296L1.82304 226.005C1.89895 281.233 46.7321 325.964 101.961 325.914L329.626 325.708" stroke="black" stroke-width="2"/>
<path d="M42.5764 186.337C55.2812 186.325 65.5665 176.172 65.5493 163.658C65.5321 151.144 55.2189 141.009 42.5141 141.021" stroke="#D60A0A" stroke-width="2"/>
<path d="M35.501 149.773C31.6421 149.776 28.5188 153.369 28.5249 157.798C28.531 162.227 31.6641 165.815 35.523 165.811" stroke="#D60A0A" stroke-width="1.5"/>
<path d="M35.5012 161C31.6423 161.003 28.519 164.644 28.5252 169.131C28.5314 173.618 31.6646 177.252 35.5235 177.249" stroke="#D60A0A" stroke-width="1.5"/>
<circle r="29" transform="matrix(0.00137448 0.999999 -1 0.000905993 95.5554 91.0272)" stroke="#D60A0A" stroke-width="2"/>
<circle r="29" transform="matrix(0.00137448 0.999999 -1 0.000905993 95.5554 239.027)" stroke="#D60A0A" stroke-width="2"/>
<circle r="4" transform="matrix(0.00137448 0.999999 -1 0.000905993 95.5197 91.0036)" fill="#D60A0A"/>
<circle r="4" transform="matrix(0.00137448 0.999999 -1 0.000905993 227.52 91.0036)" fill="#D60A0A"/>
<circle r="4" transform="matrix(0.00137448 0.999999 -1 0.000905993 95.5197 239.004)" fill="#D60A0A"/>
<circle r="4" transform="matrix(0.00137448 0.999999 -1 0.000905993 227.52 239.004)" fill="#D60A0A"/>
<line y1="-0.75" x2="7.32426" y2="-0.75" transform="matrix(0 1 -1 -0.000468483 87.5142 56)" stroke="#D60A0A" stroke-width="1.5"/>
<line y1="-0.75" x2="7.32426" y2="-0.75" transform="matrix(0 1 -1 -0.000468483 100.514 56)" stroke="#D60A0A" stroke-width="1.5"/>
<line y1="-0.75" x2="7.32426" y2="-0.75" transform="matrix(0 1 -1 -0.000468483 100.514 119)" stroke="#D60A0A" stroke-width="1.5"/>
<line y1="-0.75" x2="7.32426" y2="-0.75" transform="matrix(0 1 -1 -0.000468483 87.5142 119)" stroke="#D60A0A" stroke-width="1.5"/>
<line y1="-0.75" x2="7.32426" y2="-0.75" transform="matrix(0 1 -1 -0.000468483 87.5142 204)" stroke="#D60A0A" stroke-width="1.5"/>
<line y1="-0.75" x2="7.32426" y2="-0.75" transform="matrix(0 1 -1 -0.000468483 87.5142 267)" stroke="#D60A0A" stroke-width="1.5"/>
<line y1="-0.75" x2="7.32426" y2="-0.75" transform="matrix(0 1 -1 -0.000468483 99.5142 267)" stroke="#D60A0A" stroke-width="1.5"/>
<line y1="-0.75" x2="7.32426" y2="-0.75" transform="matrix(0 1 -1 -0.000468483 99.5142 204)" stroke="#D60A0A" stroke-width="1.5"/>
<rect width="389.056" height="56.1326" transform="matrix(0.00137448 0.999999 -1 0.000905993 385.349 -5)" fill="white"/>
<rect width="79.9839" height="56.1326" transform="matrix(0.00137448 0.999999 -1 0.000905993 333.645 326.746)" fill="#BCBDC0"/>
<rect width="7.89842" height="1.8236" transform="matrix(0.00137448 0.999999 -1 0.000905993 329.818 314.562)" fill="white"/>
<rect width="7.89041" height="1.8236" transform="matrix(0.00137448 0.999999 -1 0.000905993 329.823 298.781)" fill="white"/>
<rect width="7.89041" height="1.8236" transform="matrix(0.00137448 0.999999 -1 0.000905993 329.824 283)" fill="white"/>
<rect width="7.88281" height="1.8236" transform="matrix(0.00137448 0.999999 -1 0.000905993 329.824 267.206)" fill="white"/>
<rect width="7.89453" height="1.8236" transform="matrix(0.00137448 0.999999 -1 0.000905993 329.824 251.413)" fill="white"/>
<rect width="7.89435" height="1.8236" transform="matrix(0.00137448 0.999999 -1 0.000905993 329.823 235.624)" fill="white"/>
<rect width="7.89826" height="1.8236" transform="matrix(0.00137448 0.999999 -1 0.000905993 329.823 219.839)" fill="white"/>
<rect width="7.20319" height="1.8236" transform="matrix(0.00137448 0.999999 -1 0.000905993 330.825 204.741)" fill="white"/>
<rect width="7.88251" height="1.8236" transform="matrix(0.00137448 0.999999 -1 0.000905993 329.823 188.265)" fill="white"/>
<rect width="7.89074" height="1.8236" transform="matrix(0.00137448 0.999999 -1 0.000905993 329.824 172.484)" fill="white"/>
<rect width="1.52048" height="1.8236" transform="matrix(0.00137448 0.999999 -1 0.000905993 330.824 167)" fill="white"/>
<rect width="3.10858" height="1.8236" transform="matrix(0.00137448 0.999999 -1 0.000905993 330.821 159.412)" fill="white"/>
<rect width="7.906" height="1.8236" transform="matrix(0.00137448 0.999999 -1 0.000905993 330.816 147.562)" fill="white"/>
<rect width="7.49229" height="1.8236" transform="matrix(0.00137448 0.999999 -1 0.000905993 330.82 132.186)" fill="white"/>
<circle r="3.5" transform="matrix(0.00137448 0.999999 -1 0.000905993 327.019 164.503)" fill="#09A5D7"/>
<rect x="-0.75" y="0.75" width="15.5" height="27.5" transform="matrix(-1 0 0 1 51.0142 149)" stroke="#D60A0A" stroke-width="1.5"/>
<ellipse rx="1.5" ry="4" transform="matrix(-1 0 0 1 9.01416 157)" fill="white"/>
<rect width="14.3408" height="7.37642" transform="matrix(0.00137448 0.999999 -1 0.000905993 38.0012 154.187)" fill="white"/>
<rect width="25.9996" height="3.89591" transform="matrix(0.00137448 0.999999 -1 0.000905993 39.2781 150.497)" fill="white"/>
</svg>
