<svg width="17" height="17" viewBox="0 0 17 17" fill="none" xmlns="http://www.w3.org/2000/svg">
<rect width="17" height="17" fill=""/>
<path opacity="0.5" d="M8.325 10.5C10.1613 10.5 11.65 9.94036 11.65 9.25C11.65 8.55964 10.1613 8 8.325 8C6.48865 8 5 8.55964 5 9.25C5 9.94036 6.48865 10.5 8.325 10.5Z" fill="#999"/>
<path d="M8.325 9.975C10.1613 9.975 11.65 9.41536 11.65 8.725C11.65 8.03464 10.1613 7.475 8.325 7.475C6.48865 7.475 5 8.03464 5 8.725C5 9.41536 6.48865 9.975 8.325 9.975Z" fill="#999"/>
<path d="M8.325 8.5C10.1613 8.5 11.65 7.94036 11.65 7.25C11.65 6.55964 10.1613 6 8.325 6C6.48865 6 5 6.55964 5 7.25C5 7.94036 6.48865 8.5 8.325 8.5Z" fill="#999"/>
<path d="M5.025 7.25H11.65V8.725H5.025V7.25Z" fill="#999"/>
</svg>
