<svg width="17" height="17" viewBox="0 0 17 17" fill="none" xmlns="http://www.w3.org/2000/svg">
<rect width="17" height="17" fill=""/>
<path d="M7.46761 13.221L8.92897 9.92572L12 3H11.6817L8.8351 9.41565L8.47302 9.11737C9.07069 7.92525 10.8752 3.9506 11.3064 3H10.9867C10.9867 3 8.39272 8.72745 8.07903 9.22548C7.48319 10.1714 6.90716 10.7542 6.39492 11.1056C5.78424 11.5242 5.2643 11.6132 4.9134 11.5807C3.90653 11.4891 2.6934 11.1633 1.52135 10.8024C1.17503 10.7031 0.775728 13.1188 1.15175 13.278C2.98802 14.0554 4.89837 14.0657 6.08289 13.9407H6.08325C6.35288 13.9135 6.62165 13.8728 6.88901 13.8188C7.21021 13.7517 7.46559 13.2267 7.46761 13.221ZM2.42794 13.291L2.61402 11.5967C2.76802 11.6372 2.91487 11.6741 3.05861 11.709L2.73594 13.3571C2.63309 13.3355 2.52895 13.3161 2.42794 13.291V13.291ZM3.61484 13.5014C3.41267 13.4791 3.21094 13.4501 3.00984 13.4144L3.33104 11.7729C3.45956 11.8021 3.58331 11.8286 3.70394 11.8525L3.61484 13.5014ZM4.29006 13.552C4.15755 13.5458 4.02511 13.5371 3.89278 13.5259L3.98059 11.9055C4.16871 11.9396 4.35734 11.9684 4.54636 11.9918L4.29006 13.552V13.552ZM4.74785 13.5652C4.68881 13.5652 4.63143 13.5611 4.57258 13.5601L4.82558 12.021C4.84978 12.023 4.87508 12.0262 4.89892 12.0277C4.94127 12.0311 4.98582 12.0328 5.03238 12.0328C5.15082 12.0328 5.29528 12.0191 5.45882 11.9834L5.08262 13.5569C4.97133 13.5606 4.85987 13.5652 4.74785 13.5652V13.5652ZM5.75912 13.5166C5.6304 13.5284 5.50157 13.5378 5.37265 13.5446L5.76755 11.892C5.82585 11.8709 5.88324 11.8517 5.9452 11.8245L5.75912 13.5166Z" fill="#999"/>
<path d="M9.53239 13.221L8.07103 9.92572L5 3H5.31827L8.1649 9.41565L8.52698 9.11737C7.92931 7.92525 6.12476 3.9506 5.69355 3H6.01329C6.01329 3 8.60728 8.72745 8.92097 9.22548C9.51681 10.1714 10.0928 10.7542 10.6051 11.1056C11.2158 11.5242 11.7357 11.6132 12.0866 11.5807C13.0935 11.4891 14.3066 11.1633 15.4787 10.8024C15.825 10.7031 16.2243 13.1188 15.8483 13.278C14.012 14.0554 12.1016 14.0657 10.9171 13.9407H10.9167C10.6471 13.9135 10.3784 13.8728 10.111 13.8188C9.78979 13.7517 9.53441 13.2267 9.53239 13.221ZM14.5721 13.291L14.386 11.5967C14.232 11.6372 14.0851 11.6741 13.9414 11.709L14.2641 13.3571C14.3669 13.3355 14.471 13.3161 14.5721 13.291V13.291ZM13.3852 13.5014C13.5873 13.4791 13.7891 13.4501 13.9902 13.4144L13.669 11.7729C13.5404 11.8021 13.4167 11.8286 13.2961 11.8525L13.3852 13.5014ZM12.7099 13.552C12.8425 13.5458 12.9749 13.5371 13.1072 13.5259L13.0194 11.9055C12.8313 11.9396 12.6427 11.9684 12.4536 11.9918L12.7099 13.552V13.552ZM12.2522 13.5652C12.3112 13.5652 12.3686 13.5611 12.4274 13.5601L12.1744 12.021C12.1502 12.023 12.1249 12.0262 12.1011 12.0277C12.0587 12.0311 12.0142 12.0328 11.9676 12.0328C11.8492 12.0328 11.7047 12.0191 11.5412 11.9834L11.9174 13.5569C12.0287 13.5606 12.1401 13.5652 12.2522 13.5652V13.5652ZM11.2409 13.5166C11.3696 13.5284 11.4984 13.5378 11.6273 13.5446L11.2324 11.892C11.1741 11.8709 11.1168 11.8517 11.0548 11.8245L11.2409 13.5166Z" fill="#999"/>
</svg>
