<svg width="16" height="16" viewBox="0 0 16 16" fill="none" xmlns="http://www.w3.org/2000/svg">
<g clip-path="url(#clip0)">
<path d="M5.825 9.225C4.45 9.125 2.8 8.8 1.2 8.425C0.724998 8.325 0.174998 10.775 0.699998 10.95C3.9 11.95 7.275 11.7 8.525 11.5C8.975 11.425 9.3 10.9 9.325 10.9L11.325 7.55L10.175 6.825C8.375 8.95 6.725 9.3 5.825 9.225Z" fill="#999"/>
<path d="M14.125 0.5C14.125 0.5 10.6 6.325 10.15 6.825L11.3 7.55L15.5 0.5H14.125Z" fill="#999"/>
<path d="M2.275 8.65L1.875 11.375C4 11.85 6.05 11.8 7.425 11.675L7.875 8.675C7.05 9.125 6.325 9.225 5.85 9.2C4.775 9.125 3.525 8.925 2.275 8.65Z" fill="#999"/>
<path d="M2.3 11.45L2.675 11.525L3.375 8.875L3 8.8L2.3 11.45Z" fill="#999"/>
<path d="M6.05 11.75H6.45L7.35 8.925L6.9 9.075L6.05 11.75Z" fill="#999"/>
<path d="M4.02501 11.675C4.15001 11.675 4.27501 11.7 4.40001 11.7L4.60001 9.05C4.47501 9.025 4.35001 9.025 4.22501 9L4.02501 11.675Z" fill="#999"/>
<path d="M5.52501 9.175L4.97501 11.75H5.35001L5.92501 9.2H5.85001C5.75001 9.175 5.65001 9.175 5.52501 9.175Z" fill="#999"/>
</g>
<defs>
<clipPath id="clip0">
<rect width="16" height="16" fill=""/>
</clipPath>
</defs>
</svg>
