<svg width="701" height="400" viewBox="0 0 701 400" fill="none" xmlns="http://www.w3.org/2000/svg">
<rect width="701" height="400" fill="#BCBDC0"/>
<rect width="700" height="400" rx="40" fill="white"/>
<path d="M50.25 157C50.25 156.585 50.5845 156.25 50.998 156.25H67.0569C68.5532 156.25 69.8955 157.497 71.0612 159.891C72.2178 162.266 73.1521 165.676 73.8727 169.793C75.3131 178.022 75.8889 189.004 75.7221 199.996C75.5552 210.987 74.646 221.973 73.1217 230.204C72.3592 234.323 71.4451 237.738 70.3996 240.118C69.8765 241.309 69.3266 242.226 68.7573 242.842C68.1886 243.457 67.6216 243.75 67.0569 243.75H67.0092H66.9617H66.9142H66.8667H66.8193H66.7719H66.7247H66.6774H66.6302H66.5831H66.536H66.489H66.4421H66.3952H66.3483H66.3015H66.2548H66.2081H66.1615H66.1149H66.0684H66.022H65.9756H65.9292H65.8829H65.8367H65.7905H65.7444H65.6983H65.6523H65.6064H65.5605H65.5147H65.4689H65.4232H65.3775H65.3319H65.2863H65.2408H65.1954H65.15H65.1047H65.0594H65.0142H64.9691H64.924H64.8789H64.834H64.789H64.7442H64.6994H64.6546H64.6099H64.5653H64.5207H64.4762H64.4317H64.3873H64.343H64.2987H64.2545H64.2103H64.1662H64.1221H64.0781H64.0342H63.9903H63.9465H63.9027H63.859H63.8154H63.7718H63.7282H63.6848H63.6414H63.598H63.5547H63.5115H63.4683H63.4252H63.3821H63.3391H63.2962H63.2533H63.2105H63.1677H63.125H63.0824H63.0398H62.9973H62.9548H62.9124H62.87H62.8278H62.7855H62.7434H62.7013H62.6592H62.6172H62.5753H62.5334H62.4916H62.4499H62.4082H62.3666H62.325H62.2835H62.242H62.2007H62.1593H62.1181H62.0769H62.0357H61.9946H61.9536H61.9127H61.8718H61.8309H61.7901H61.7494H61.7088H61.6682H61.6276H61.5872H61.5468H61.5064H61.4661H61.4259H61.3857H61.3456H61.3056H61.2656H61.2257H61.1858H61.146H61.1063H61.0666H61.027H60.9874H60.948H60.9085H60.8692H60.8299H60.7906H60.7515H60.7123H60.6733H60.6343H60.5954H60.5565H60.5177H60.479H60.4403H60.4017H60.3631H60.3246H60.2862H60.2479H60.2096H60.1713H60.1332H60.095H60.057H60.019H59.9811H59.9432H59.9054H59.8677H59.83H59.7924H59.7549H59.7174H59.68H59.6427H59.6054H59.5682H59.531H59.4939H59.4569H59.4199H59.383H59.3462H59.3094H59.2727H59.236H59.1995H59.163H59.1265H59.0901H59.0538H59.0175H58.9813H58.9452H58.9091H58.8732H58.8372H58.8013H58.7655H58.7298H58.6941H58.6585H58.623H58.5875H58.5521H58.5167H58.4815H58.4462H58.4111H58.376H58.341H58.306H58.2711H58.2363H58.2015H58.1669H58.1322H58.0977H58.0632H58.0287H57.9944H57.9601H57.9258H57.8917H57.8576H57.8235H57.7896H57.7557H57.7218H57.6881H57.6544H57.6207H57.5872H57.5537H57.5202H57.4869H57.4536H57.4203H57.3872H57.3541H57.3211H57.2881H57.2552H57.2224H57.1896H57.1569H57.1243H57.0917H57.0592H57.0268H56.9944H56.9621H56.9299H56.8978H56.8657H56.8336H56.8017H56.7698H56.738H56.7062H56.6746H56.643H56.6114H56.5799H56.5485H56.5172H56.4859H56.4547H56.4236H56.3925H56.3615H56.3306H56.2997H56.2689H56.2382H56.2076H56.177H56.1465H56.116H56.0856H56.0553H56.0251H55.9949H55.9648H55.9348H55.9048H55.8749H55.8451H55.8153H55.7856H55.756H55.7265H55.697H55.6676H55.6383H55.609H55.5798H55.5507H55.5216H55.4926H55.4637H55.4349H55.4061H55.3774H55.3487H55.3202H55.2917H55.2633H55.2349H55.2066H55.1784H55.1503H55.1222H55.0942H55.0662H55.0384H55.0106H54.9829H54.9552H54.9277H54.9001H54.8727H54.8453H54.8181H54.7908H54.7637H54.7366H54.7096H54.6827H54.6558H54.629H54.6023H54.5756H54.5491H54.5226H54.4961H54.4698H54.4435H54.4173H54.3911H54.365H54.339H54.3131H54.2872H54.2615H54.2357H54.2101H54.1845H54.159H54.1336H54.1083H54.083H54.0578H54.0327H54.0076H53.9826H53.9577H53.9329H53.9081H53.8834H53.8588H53.8342H53.8097H53.7853H53.761H53.7368H53.7126H53.6885H53.6644H53.6405H53.6166H53.5928H53.569H53.5454H53.5218H53.4982H53.4748H53.4514H53.4281H53.4049H53.3818H53.3587H53.3357H53.3128H53.2899H53.2671H53.2444H53.2218H53.1992H53.1768H53.1543H53.132H53.1098H53.0876H53.0655H53.0434H53.0215H52.9996H52.9778H52.9561H52.9344H52.9128H52.8913H52.8699H52.8485H52.8272H52.806H52.7849H52.7639H52.7429H52.722H52.7011H52.6804H52.6597H52.6391H52.6186H52.5981H52.5778H52.5575H52.5372H52.5171H52.497H52.477H52.4571H52.4373H52.4175H52.3978H52.3782H52.3587H52.3392H52.3199H52.3005H52.2813H52.2622H52.2431H52.2241H52.2052H52.1863H52.1676H52.1489H52.1303H52.1117H52.0933H52.0749H52.0566H52.0384H52.0202H52.0021H51.9842H51.9662H51.9484H51.9306H51.913H51.8954H51.8778H51.8604H51.843H51.8257H51.8085H51.7914H51.7743H51.7573H51.7404H51.7236H51.7068H51.6902H51.6736H51.6571H51.6406H51.6243H51.608H51.5918H51.5757H51.5597H51.5437H51.5278H51.512H51.4963H51.4807H51.4651H51.4496H51.4342H51.4189H51.4036H51.3884H51.3734H51.3583H51.3434H51.3286H51.3138H51.2991H51.2845H51.27H51.2555H51.2411H51.2268H51.2126H51.1985H51.1844H51.1705H51.1566H51.1428H51.129H51.1154H51.1018H51.0883H51.0749H51.0616H51.0483H51.0351H51.0221H51.009H50.9961C50.5832 243.75 50.25 243.415 50.25 243V157Z" fill="#64B6D0" stroke="black" stroke-width="0.5"/>
<path d="M651.75 158C651.75 157.585 651.416 157.25 651.002 157.25H634.943C633.447 157.25 632.104 158.497 630.939 160.891C629.782 163.266 628.848 166.676 628.127 170.793C626.687 179.022 626.111 190.004 626.278 200.996C626.445 211.987 627.354 222.973 628.878 231.204C629.641 235.323 630.555 238.738 631.6 241.118C632.123 242.309 632.673 243.226 633.243 243.842C633.811 244.457 634.378 244.75 634.943 244.75H634.991H635.038H635.086H635.133H635.181H635.228H635.275H635.323H635.37H635.417H635.464H635.511H635.558H635.605H635.652H635.698H635.745H635.792H635.839H635.885H635.932H635.978H636.024H636.071H636.117H636.163H636.209H636.256H636.302H636.348H636.394H636.439H636.485H636.531H636.577H636.623H636.668H636.714H636.759H636.805H636.85H636.895H636.941H636.986H637.031H637.076H637.121H637.166H637.211H637.256H637.301H637.345H637.39H637.435H637.479H637.524H637.568H637.613H637.657H637.701H637.746H637.79H637.834H637.878H637.922H637.966H638.01H638.054H638.097H638.141H638.185H638.228H638.272H638.315H638.359H638.402H638.445H638.489H638.532H638.575H638.618H638.661H638.704H638.747H638.79H638.832H638.875H638.918H638.96H639.003H639.045H639.088H639.13H639.172H639.214H639.257H639.299H639.341H639.383H639.425H639.467H639.508H639.55H639.592H639.633H639.675H639.717H639.758H639.799H639.841H639.882H639.923H639.964H640.005H640.046H640.087H640.128H640.169H640.21H640.251H640.291H640.332H640.372H640.413H640.453H640.494H640.534H640.574H640.614H640.654H640.694H640.734H640.774H640.814H640.854H640.894H640.933H640.973H641.013H641.052H641.091H641.131H641.17H641.209H641.249H641.288H641.327H641.366H641.405H641.443H641.482H641.521H641.56H641.598H641.637H641.675H641.714H641.752H641.79H641.829H641.867H641.905H641.943H641.981H642.019H642.057H642.095H642.132H642.17H642.208H642.245H642.283H642.32H642.357H642.395H642.432H642.469H642.506H642.543H642.58H642.617H642.654H642.691H642.727H642.764H642.801H642.837H642.873H642.91H642.946H642.982H643.019H643.055H643.091H643.127H643.163H643.199H643.234H643.27H643.306H643.341H643.377H643.413H643.448H643.483H643.519H643.554H643.589H643.624H643.659H643.694H643.729H643.764H643.798H643.833H643.868H643.902H643.937H643.971H644.006H644.04H644.074H644.108H644.142H644.176H644.21H644.244H644.278H644.312H644.346H644.379H644.413H644.446H644.48H644.513H644.546H644.58H644.613H644.646H644.679H644.712H644.745H644.778H644.81H644.843H644.876H644.908H644.941H644.973H645.006H645.038H645.07H645.102H645.134H645.166H645.198H645.23H645.262H645.294H645.325H645.357H645.389H645.42H645.451H645.483H645.514H645.545H645.576H645.607H645.638H645.669H645.7H645.731H645.762H645.792H645.823H645.854H645.884H645.914H645.945H645.975H646.005H646.035H646.065H646.095H646.125H646.155H646.185H646.214H646.244H646.274H646.303H646.332H646.362H646.391H646.42H646.449H646.478H646.507H646.536H646.565H646.594H646.623H646.651H646.68H646.708H646.737H646.765H646.793H646.822H646.85H646.878H646.906H646.934H646.962H646.989H647.017H647.045H647.072H647.1H647.127H647.155H647.182H647.209H647.236H647.263H647.29H647.317H647.344H647.371H647.398H647.424H647.451H647.477H647.504H647.53H647.557H647.583H647.609H647.635H647.661H647.687H647.713H647.739H647.764H647.79H647.815H647.841H647.866H647.892H647.917H647.942H647.967H647.992H648.017H648.042H648.067H648.092H648.117H648.141H648.166H648.19H648.215H648.239H648.263H648.287H648.312H648.336H648.36H648.383H648.407H648.431H648.455H648.478H648.502H648.525H648.549H648.572H648.595H648.618H648.641H648.664H648.687H648.71H648.733H648.756H648.778H648.801H648.823H648.846H648.868H648.89H648.912H648.935H648.957H648.979H649H649.022H649.044H649.066H649.087H649.109H649.13H649.151H649.173H649.194H649.215H649.236H649.257H649.278H649.299H649.32H649.34H649.361H649.381H649.402H649.422H649.443H649.463H649.483H649.503H649.523H649.543H649.563H649.582H649.602H649.622H649.641H649.661H649.68H649.699H649.719H649.738H649.757H649.776H649.795H649.814H649.832H649.851H649.87H649.888H649.907H649.925H649.943H649.962H649.98H649.998H650.016H650.034H650.052H650.069H650.087H650.105H650.122H650.14H650.157H650.174H650.192H650.209H650.226H650.243H650.26H650.276H650.293H650.31H650.326H650.343H650.359H650.376H650.392H650.408H650.424H650.44H650.456H650.472H650.488H650.504H650.519H650.535H650.55H650.566H650.581H650.596H650.612H650.627H650.642H650.657H650.671H650.686H650.701H650.716H650.73H650.744H650.759H650.773H650.787H650.802H650.816H650.83H650.843H650.857H650.871H650.885H650.898H650.912H650.925H650.938H650.952H650.965H650.978H650.991H651.004C651.417 244.75 651.75 244.415 651.75 244V158Z" fill="#64B6D0" stroke="black" stroke-width="0.5"/>
<line x1="51" y1="1" x2="51" y2="400" stroke="#D60A0A" stroke-width="2"/>
<line x1="651" y1="1" x2="651" y2="400" stroke="#D60A0A" stroke-width="2"/>
<line x1="246" y1="399.001" x2="246" y2="-3.05176e-05" stroke="#044480" stroke-width="4"/>
<line x1="458" y1="400" x2="458" y2="3" stroke="#044480" stroke-width="4"/>
<line x1="354" y1="398" x2="354" y2="1" stroke="#D60A0A" stroke-width="4" stroke-dasharray="4 4"/>
<circle cx="159" cy="82" r="38.5" stroke="#D60A0A" stroke-width="3"/>
<circle cx="354" cy="200" r="38.5" stroke="#D60A0A" stroke-width="3"/>
<circle cx="159" cy="318" r="38.5" stroke="#D60A0A" stroke-width="3"/>
<circle cx="545" cy="318" r="38.5" stroke="#D60A0A" stroke-width="3"/>
<circle cx="545" cy="82" r="38.5" stroke="#D60A0A" stroke-width="3"/>
<circle cx="159" cy="82" r="4" fill="#D60A0A"/>
<circle cx="279" cy="68" r="4" fill="#D60A0A"/>
<circle cx="424" cy="68" r="4" fill="#D60A0A"/>
<circle cx="424" cy="332" r="4" fill="#D60A0A"/>
<circle cx="279" cy="332" r="4" fill="#D60A0A"/>
<circle cx="354" cy="200" r="4" fill="#D60A0A"/>
<circle cx="545" cy="82" r="4" fill="#D60A0A"/>
<circle cx="545" cy="318" r="4" fill="#D60A0A"/>
<circle cx="159" cy="318" r="4" fill="#D60A0A"/>
<rect x="2" y="2" width="697" height="396" rx="38" stroke="black" stroke-width="4"/>
<rect x="302" y="362" width="105" height="24" fill="white"/>
<mask id="path-25-inside-1" fill="white">
<rect x="30" y="170" width="22" height="59" rx="1"/>
</mask>
<rect x="30" y="170" width="22" height="59" rx="1" stroke="black" stroke-width="4" mask="url(#path-25-inside-1)"/>
<mask id="path-26-inside-2" fill="white">
<rect x="650" y="170" width="22" height="59" rx="1"/>
</mask>
<rect x="650" y="170" width="22" height="59" rx="1" stroke="black" stroke-width="4" mask="url(#path-26-inside-2)"/>
<path d="M110.889 383V373.047H113.951C114.826 373.047 115.608 373.245 116.296 373.642C116.989 374.034 117.529 374.594 117.916 375.323C118.303 376.048 118.497 376.873 118.497 377.798V378.256C118.497 379.181 118.306 380.004 117.923 380.724C117.545 381.444 117.009 382.002 116.316 382.398C115.624 382.795 114.842 382.995 113.972 383H110.889ZM112.939 374.708V381.353H113.931C114.733 381.353 115.346 381.09 115.77 380.566C116.193 380.042 116.41 379.293 116.419 378.317V377.791C116.419 376.779 116.209 376.014 115.79 375.494C115.371 374.97 114.758 374.708 113.951 374.708H112.939ZM123.269 383.137C122.184 383.137 121.3 382.804 120.616 382.139C119.937 381.473 119.598 380.587 119.598 379.479V379.288C119.598 378.545 119.741 377.882 120.028 377.299C120.315 376.711 120.721 376.26 121.245 375.945C121.774 375.626 122.375 375.467 123.05 375.467C124.062 375.467 124.857 375.786 125.436 376.424C126.019 377.062 126.311 377.966 126.311 379.138V379.944H121.601C121.664 380.427 121.856 380.815 122.175 381.106C122.498 381.398 122.906 381.544 123.398 381.544C124.16 381.544 124.754 381.268 125.183 380.717L126.153 381.804C125.857 382.223 125.456 382.551 124.95 382.788C124.444 383.021 123.884 383.137 123.269 383.137ZM123.043 377.066C122.651 377.066 122.332 377.199 122.086 377.463C121.844 377.727 121.689 378.105 121.621 378.598H124.369V378.44C124.36 378.003 124.242 377.666 124.014 377.429C123.786 377.187 123.462 377.066 123.043 377.066ZM127.979 383V377.053H126.878V375.604H127.979V374.975C127.979 374.145 128.215 373.503 128.689 373.047C129.168 372.587 129.836 372.356 130.692 372.356C130.966 372.356 131.301 372.402 131.697 372.493L131.677 374.024C131.513 373.983 131.312 373.963 131.075 373.963C130.332 373.963 129.961 374.312 129.961 375.009V375.604H131.431V377.053H129.961V383H127.979ZM135.696 383.137C134.612 383.137 133.728 382.804 133.044 382.139C132.365 381.473 132.025 380.587 132.025 379.479V379.288C132.025 378.545 132.169 377.882 132.456 377.299C132.743 376.711 133.149 376.26 133.673 375.945C134.201 375.626 134.803 375.467 135.478 375.467C136.489 375.467 137.285 375.786 137.863 376.424C138.447 377.062 138.738 377.966 138.738 379.138V379.944H134.028C134.092 380.427 134.284 380.815 134.603 381.106C134.926 381.398 135.334 381.544 135.826 381.544C136.587 381.544 137.182 381.268 137.61 380.717L138.581 381.804C138.285 382.223 137.884 382.551 137.378 382.788C136.872 383.021 136.312 383.137 135.696 383.137ZM135.471 377.066C135.079 377.066 134.76 377.199 134.514 377.463C134.272 377.727 134.117 378.105 134.049 378.598H136.797V378.44C136.788 378.003 136.669 377.666 136.441 377.429C136.214 377.187 135.89 377.066 135.471 377.066ZM141.685 375.604L141.746 376.458C142.275 375.797 142.983 375.467 143.872 375.467C144.656 375.467 145.239 375.697 145.622 376.157C146.005 376.618 146.201 377.306 146.21 378.222V383H144.234V378.27C144.234 377.85 144.143 377.547 143.961 377.36C143.779 377.169 143.476 377.073 143.052 377.073C142.496 377.073 142.079 377.31 141.801 377.784V383H139.825V375.604H141.685ZM151.72 380.956C151.72 380.715 151.599 380.525 151.357 380.389C151.12 380.247 150.738 380.122 150.209 380.013C148.45 379.644 147.57 378.896 147.57 377.771C147.57 377.114 147.841 376.567 148.384 376.13C148.931 375.688 149.644 375.467 150.523 375.467C151.462 375.467 152.212 375.688 152.772 376.13C153.338 376.572 153.62 377.146 153.62 377.853H151.645C151.645 377.57 151.553 377.338 151.371 377.155C151.189 376.968 150.904 376.875 150.517 376.875C150.184 376.875 149.926 376.95 149.744 377.101C149.562 377.251 149.471 377.442 149.471 377.675C149.471 377.894 149.573 378.071 149.778 378.208C149.988 378.34 150.339 378.456 150.831 378.557C151.323 378.652 151.738 378.762 152.075 378.885C153.119 379.268 153.641 379.931 153.641 380.874C153.641 381.549 153.351 382.095 152.772 382.515C152.194 382.929 151.446 383.137 150.53 383.137C149.91 383.137 149.359 383.027 148.876 382.809C148.397 382.585 148.021 382.282 147.748 381.899C147.475 381.512 147.338 381.095 147.338 380.648H149.211C149.229 380.999 149.359 381.268 149.601 381.455C149.842 381.642 150.166 381.735 150.571 381.735C150.95 381.735 151.234 381.665 151.426 381.523C151.622 381.378 151.72 381.188 151.72 380.956ZM157.004 383H155.021V375.604H157.004V383ZM154.905 373.689C154.905 373.393 155.003 373.149 155.199 372.958C155.4 372.767 155.671 372.671 156.013 372.671C156.35 372.671 156.619 372.767 156.819 372.958C157.02 373.149 157.12 373.393 157.12 373.689C157.12 373.99 157.018 374.236 156.812 374.428C156.612 374.619 156.345 374.715 156.013 374.715C155.68 374.715 155.411 374.619 155.206 374.428C155.006 374.236 154.905 373.99 154.905 373.689ZM161.406 380.587L162.78 375.604H164.845L162.35 383H160.463L157.968 375.604H160.032L161.406 380.587ZM169.028 383.137C167.944 383.137 167.06 382.804 166.376 382.139C165.697 381.473 165.357 380.587 165.357 379.479V379.288C165.357 378.545 165.501 377.882 165.788 377.299C166.075 376.711 166.481 376.26 167.005 375.945C167.534 375.626 168.135 375.467 168.81 375.467C169.821 375.467 170.617 375.786 171.195 376.424C171.779 377.062 172.07 377.966 172.07 379.138V379.944H167.36C167.424 380.427 167.616 380.815 167.935 381.106C168.258 381.398 168.666 381.544 169.158 381.544C169.919 381.544 170.514 381.268 170.942 380.717L171.913 381.804C171.617 382.223 171.216 382.551 170.71 382.788C170.204 383.021 169.644 383.137 169.028 383.137ZM168.803 377.066C168.411 377.066 168.092 377.199 167.846 377.463C167.604 377.727 167.449 378.105 167.381 378.598H170.129V378.44C170.12 378.003 170.001 377.666 169.773 377.429C169.546 377.187 169.222 377.066 168.803 377.066ZM178.988 381.353H184.006V383H176.425V381.797L181.347 374.708H176.432V373.047H183.896V374.223L178.988 381.353ZM184.717 379.233C184.717 378.5 184.858 377.846 185.141 377.271C185.423 376.697 185.829 376.253 186.357 375.938C186.891 375.624 187.508 375.467 188.21 375.467C189.208 375.467 190.021 375.772 190.65 376.383C191.284 376.993 191.637 377.823 191.71 378.871L191.724 379.377C191.724 380.512 191.407 381.423 190.773 382.111C190.14 382.795 189.29 383.137 188.224 383.137C187.157 383.137 186.305 382.795 185.667 382.111C185.034 381.428 184.717 380.498 184.717 379.322V379.233ZM186.692 379.377C186.692 380.079 186.825 380.617 187.089 380.99C187.353 381.359 187.731 381.544 188.224 381.544C188.702 381.544 189.076 381.362 189.345 380.997C189.614 380.628 189.748 380.04 189.748 379.233C189.748 378.545 189.614 378.012 189.345 377.634C189.076 377.256 188.698 377.066 188.21 377.066C187.727 377.066 187.353 377.256 187.089 377.634C186.825 378.007 186.692 378.589 186.692 379.377ZM194.759 375.604L194.82 376.458C195.349 375.797 196.058 375.467 196.946 375.467C197.73 375.467 198.313 375.697 198.696 376.157C199.079 376.618 199.275 377.306 199.284 378.222V383H197.309V378.27C197.309 377.85 197.217 377.547 197.035 377.36C196.853 377.169 196.55 377.073 196.126 377.073C195.57 377.073 195.153 377.31 194.875 377.784V383H192.899V375.604H194.759ZM204.192 383.137C203.108 383.137 202.224 382.804 201.54 382.139C200.861 381.473 200.521 380.587 200.521 379.479V379.288C200.521 378.545 200.665 377.882 200.952 377.299C201.239 376.711 201.645 376.26 202.169 375.945C202.698 375.626 203.299 375.467 203.974 375.467C204.985 375.467 205.781 375.786 206.359 376.424C206.943 377.062 207.234 377.966 207.234 379.138V379.944H202.524C202.588 380.427 202.78 380.815 203.099 381.106C203.422 381.398 203.83 381.544 204.322 381.544C205.083 381.544 205.678 381.268 206.106 380.717L207.077 381.804C206.781 382.223 206.38 382.551 205.874 382.788C205.368 383.021 204.808 383.137 204.192 383.137ZM203.967 377.066C203.575 377.066 203.256 377.199 203.01 377.463C202.768 377.727 202.613 378.105 202.545 378.598H205.293V378.44C205.284 378.003 205.165 377.666 204.938 377.429C204.71 377.187 204.386 377.066 203.967 377.066Z" fill="black"/>
<path d="M321.982 383H319.932L315.939 376.451V383H313.889V373.047H315.939L319.938 379.609V373.047H321.982V383ZM327.048 383.137C325.963 383.137 325.079 382.804 324.396 382.139C323.716 381.473 323.377 380.587 323.377 379.479V379.288C323.377 378.545 323.521 377.882 323.808 377.299C324.095 376.711 324.5 376.26 325.024 375.945C325.553 375.626 326.155 375.467 326.829 375.467C327.841 375.467 328.636 375.786 329.215 376.424C329.798 377.062 330.09 377.966 330.09 379.138V379.944H325.38C325.444 380.427 325.635 380.815 325.954 381.106C326.278 381.398 326.686 381.544 327.178 381.544C327.939 381.544 328.534 381.268 328.962 380.717L329.933 381.804C329.636 382.223 329.235 382.551 328.729 382.788C328.224 383.021 327.663 383.137 327.048 383.137ZM326.822 377.066C326.43 377.066 326.111 377.199 325.865 377.463C325.624 377.727 325.469 378.105 325.4 378.598H328.148V378.44C328.139 378.003 328.021 377.666 327.793 377.429C327.565 377.187 327.242 377.066 326.822 377.066ZM335.647 382.248C335.16 382.84 334.485 383.137 333.624 383.137C332.831 383.137 332.225 382.909 331.806 382.453C331.391 381.997 331.179 381.33 331.17 380.45V375.604H333.146V380.382C333.146 381.152 333.496 381.537 334.198 381.537C334.868 381.537 335.328 381.305 335.579 380.84V375.604H337.562V383H335.702L335.647 382.248ZM341.417 373.785V375.604H342.682V377.053H341.417V380.744C341.417 381.018 341.469 381.214 341.574 381.332C341.679 381.451 341.88 381.51 342.176 381.51C342.395 381.51 342.588 381.494 342.757 381.462V382.959C342.369 383.077 341.971 383.137 341.561 383.137C340.175 383.137 339.469 382.437 339.441 381.038V377.053H338.361V375.604H339.441V373.785H341.417ZM347.938 377.456C347.67 377.42 347.433 377.401 347.228 377.401C346.48 377.401 345.99 377.654 345.758 378.16V383H343.782V375.604H345.648L345.703 376.485C346.1 375.806 346.649 375.467 347.351 375.467C347.569 375.467 347.774 375.496 347.966 375.556L347.938 377.456ZM352.977 383C352.885 382.822 352.819 382.601 352.778 382.337C352.3 382.87 351.678 383.137 350.912 383.137C350.188 383.137 349.586 382.927 349.107 382.508C348.633 382.089 348.396 381.56 348.396 380.922C348.396 380.138 348.686 379.536 349.265 379.117C349.848 378.698 350.689 378.486 351.787 378.481H352.696V378.058C352.696 377.716 352.607 377.442 352.43 377.237C352.257 377.032 351.981 376.93 351.603 376.93C351.27 376.93 351.008 377.009 350.816 377.169C350.63 377.328 350.536 377.547 350.536 377.825H348.561C348.561 377.397 348.693 377 348.957 376.636C349.221 376.271 349.595 375.986 350.078 375.781C350.561 375.572 351.104 375.467 351.705 375.467C352.617 375.467 353.339 375.697 353.872 376.157C354.41 376.613 354.679 377.256 354.679 378.085V381.291C354.683 381.993 354.781 382.524 354.973 382.884V383H352.977ZM351.343 381.626C351.634 381.626 351.903 381.562 352.149 381.435C352.396 381.302 352.578 381.127 352.696 380.908V379.637H351.958C350.969 379.637 350.443 379.979 350.379 380.662L350.372 380.778C350.372 381.024 350.459 381.227 350.632 381.387C350.805 381.546 351.042 381.626 351.343 381.626ZM358.281 383H356.299V372.5H358.281V383ZM365.705 381.353H370.723V383H363.142V381.797L368.063 374.708H363.148V373.047H370.613V374.223L365.705 381.353ZM371.434 379.233C371.434 378.5 371.575 377.846 371.857 377.271C372.14 376.697 372.546 376.253 373.074 375.938C373.607 375.624 374.225 375.467 374.927 375.467C375.925 375.467 376.738 375.772 377.367 376.383C378.001 376.993 378.354 377.823 378.427 378.871L378.44 379.377C378.44 380.512 378.124 381.423 377.49 382.111C376.857 382.795 376.007 383.137 374.94 383.137C373.874 383.137 373.022 382.795 372.384 382.111C371.75 381.428 371.434 380.498 371.434 379.322V379.233ZM373.409 379.377C373.409 380.079 373.541 380.617 373.806 380.99C374.07 381.359 374.448 381.544 374.94 381.544C375.419 381.544 375.793 381.362 376.062 380.997C376.33 380.628 376.465 380.04 376.465 379.233C376.465 378.545 376.33 378.012 376.062 377.634C375.793 377.256 375.414 377.066 374.927 377.066C374.444 377.066 374.07 377.256 373.806 377.634C373.541 378.007 373.409 378.589 373.409 379.377ZM381.476 375.604L381.537 376.458C382.066 375.797 382.774 375.467 383.663 375.467C384.447 375.467 385.03 375.697 385.413 376.157C385.796 376.618 385.992 377.306 386.001 378.222V383H384.025V378.27C384.025 377.85 383.934 377.547 383.752 377.36C383.57 377.169 383.267 377.073 382.843 377.073C382.287 377.073 381.87 377.31 381.592 377.784V383H379.616V375.604H381.476ZM390.909 383.137C389.825 383.137 388.94 382.804 388.257 382.139C387.578 381.473 387.238 380.587 387.238 379.479V379.288C387.238 378.545 387.382 377.882 387.669 377.299C387.956 376.711 388.362 376.26 388.886 375.945C389.414 375.626 390.016 375.467 390.69 375.467C391.702 375.467 392.497 375.786 393.076 376.424C393.66 377.062 393.951 377.966 393.951 379.138V379.944H389.241C389.305 380.427 389.496 380.815 389.815 381.106C390.139 381.398 390.547 381.544 391.039 381.544C391.8 381.544 392.395 381.268 392.823 380.717L393.794 381.804C393.498 382.223 393.097 382.551 392.591 382.788C392.085 383.021 391.524 383.137 390.909 383.137ZM390.684 377.066C390.292 377.066 389.973 377.199 389.727 377.463C389.485 377.727 389.33 378.105 389.262 378.598H392.01V378.44C392.001 378.003 391.882 377.666 391.654 377.429C391.426 377.187 391.103 377.066 390.684 377.066Z" fill="black"/>
<path d="M506.064 378.249C506.064 379.229 505.891 380.088 505.545 380.826C505.199 381.564 504.702 382.134 504.055 382.535C503.412 382.936 502.674 383.137 501.84 383.137C501.015 383.137 500.279 382.938 499.632 382.542C498.985 382.146 498.483 381.58 498.128 380.847C497.772 380.108 497.592 379.261 497.588 378.304V377.812C497.588 376.832 497.763 375.97 498.114 375.228C498.47 374.48 498.969 373.908 499.611 373.512C500.258 373.111 500.997 372.91 501.826 372.91C502.656 372.91 503.392 373.111 504.034 373.512C504.681 373.908 505.18 374.48 505.531 375.228C505.887 375.97 506.064 376.829 506.064 377.805V378.249ZM503.986 377.798C503.986 376.754 503.799 375.961 503.426 375.419C503.052 374.877 502.519 374.605 501.826 374.605C501.138 374.605 500.607 374.874 500.233 375.412C499.86 375.945 499.671 376.729 499.666 377.764V378.249C499.666 379.265 499.853 380.054 500.227 380.614C500.6 381.175 501.138 381.455 501.84 381.455C502.528 381.455 503.057 381.186 503.426 380.648C503.795 380.106 503.982 379.318 503.986 378.283V377.798ZM507.965 383V377.053H506.864V375.604H507.965V374.975C507.965 374.145 508.202 373.503 508.676 373.047C509.154 372.587 509.822 372.356 510.679 372.356C510.952 372.356 511.287 372.402 511.684 372.493L511.663 374.024C511.499 373.983 511.299 373.963 511.062 373.963C510.319 373.963 509.947 374.312 509.947 375.009V375.604H511.417V377.053H509.947V383H507.965ZM512.982 383V377.053H511.882V375.604H512.982V374.975C512.982 374.145 513.219 373.503 513.693 373.047C514.172 372.587 514.84 372.356 515.696 372.356C515.97 372.356 516.305 372.402 516.701 372.493L516.681 374.024C516.517 373.983 516.316 373.963 516.079 373.963C515.336 373.963 514.965 374.312 514.965 375.009V375.604H516.435V377.053H514.965V383H512.982ZM520.7 383.137C519.616 383.137 518.731 382.804 518.048 382.139C517.369 381.473 517.029 380.587 517.029 379.479V379.288C517.029 378.545 517.173 377.882 517.46 377.299C517.747 376.711 518.153 376.26 518.677 375.945C519.205 375.626 519.807 375.467 520.481 375.467C521.493 375.467 522.288 375.786 522.867 376.424C523.451 377.062 523.742 377.966 523.742 379.138V379.944H519.032C519.096 380.427 519.287 380.815 519.606 381.106C519.93 381.398 520.338 381.544 520.83 381.544C521.591 381.544 522.186 381.268 522.614 380.717L523.585 381.804C523.289 382.223 522.888 382.551 522.382 382.788C521.876 383.021 521.315 383.137 520.7 383.137ZM520.475 377.066C520.083 377.066 519.764 377.199 519.518 377.463C519.276 377.727 519.121 378.105 519.053 378.598H521.801V378.44C521.792 378.003 521.673 377.666 521.445 377.429C521.217 377.187 520.894 377.066 520.475 377.066ZM526.688 375.604L526.75 376.458C527.279 375.797 527.987 375.467 528.876 375.467C529.66 375.467 530.243 375.697 530.626 376.157C531.009 376.618 531.205 377.306 531.214 378.222V383H529.238V378.27C529.238 377.85 529.147 377.547 528.965 377.36C528.783 377.169 528.479 377.073 528.056 377.073C527.5 377.073 527.083 377.31 526.805 377.784V383H524.829V375.604H526.688ZM536.724 380.956C536.724 380.715 536.603 380.525 536.361 380.389C536.124 380.247 535.742 380.122 535.213 380.013C533.454 379.644 532.574 378.896 532.574 377.771C532.574 377.114 532.845 376.567 533.388 376.13C533.935 375.688 534.648 375.467 535.527 375.467C536.466 375.467 537.216 375.688 537.776 376.13C538.341 376.572 538.624 377.146 538.624 377.853H536.648C536.648 377.57 536.557 377.338 536.375 377.155C536.193 376.968 535.908 376.875 535.521 376.875C535.188 376.875 534.93 376.95 534.748 377.101C534.566 377.251 534.475 377.442 534.475 377.675C534.475 377.894 534.577 378.071 534.782 378.208C534.992 378.34 535.343 378.456 535.835 378.557C536.327 378.652 536.742 378.762 537.079 378.885C538.123 379.268 538.645 379.931 538.645 380.874C538.645 381.549 538.355 382.095 537.776 382.515C537.198 382.929 536.45 383.137 535.534 383.137C534.914 383.137 534.363 383.027 533.88 382.809C533.401 382.585 533.025 382.282 532.752 381.899C532.479 381.512 532.342 381.095 532.342 380.648H534.215C534.233 380.999 534.363 381.268 534.604 381.455C534.846 381.642 535.17 381.735 535.575 381.735C535.953 381.735 536.238 381.665 536.43 381.523C536.626 381.378 536.724 381.188 536.724 380.956ZM542.008 383H540.025V375.604H542.008V383ZM539.909 373.689C539.909 373.393 540.007 373.149 540.203 372.958C540.404 372.767 540.675 372.671 541.017 372.671C541.354 372.671 541.623 372.767 541.823 372.958C542.024 373.149 542.124 373.393 542.124 373.689C542.124 373.99 542.021 374.236 541.816 374.428C541.616 374.619 541.349 374.715 541.017 374.715C540.684 374.715 540.415 374.619 540.21 374.428C540.009 374.236 539.909 373.99 539.909 373.689ZM546.41 380.587L547.784 375.604H549.849L547.354 383H545.467L542.972 375.604H545.036L546.41 380.587ZM554.032 383.137C552.948 383.137 552.063 382.804 551.38 382.139C550.701 381.473 550.361 380.587 550.361 379.479V379.288C550.361 378.545 550.505 377.882 550.792 377.299C551.079 376.711 551.485 376.26 552.009 375.945C552.537 375.626 553.139 375.467 553.813 375.467C554.825 375.467 555.62 375.786 556.199 376.424C556.783 377.062 557.074 377.966 557.074 379.138V379.944H552.364C552.428 380.427 552.619 380.815 552.938 381.106C553.262 381.398 553.67 381.544 554.162 381.544C554.923 381.544 555.518 381.268 555.946 380.717L556.917 381.804C556.621 382.223 556.22 382.551 555.714 382.788C555.208 383.021 554.647 383.137 554.032 383.137ZM553.807 377.066C553.415 377.066 553.096 377.199 552.85 377.463C552.608 377.727 552.453 378.105 552.385 378.598H555.133V378.44C555.124 378.003 555.005 377.666 554.777 377.429C554.549 377.187 554.226 377.066 553.807 377.066ZM563.992 381.353H569.01V383H561.429V381.797L566.351 374.708H561.436V373.047H568.9V374.223L563.992 381.353ZM569.721 379.233C569.721 378.5 569.862 377.846 570.145 377.271C570.427 376.697 570.833 376.253 571.361 375.938C571.895 375.624 572.512 375.467 573.214 375.467C574.212 375.467 575.025 375.772 575.654 376.383C576.288 376.993 576.641 377.823 576.714 378.871L576.728 379.377C576.728 380.512 576.411 381.423 575.777 382.111C575.144 382.795 574.294 383.137 573.228 383.137C572.161 383.137 571.309 382.795 570.671 382.111C570.037 381.428 569.721 380.498 569.721 379.322V379.233ZM571.696 379.377C571.696 380.079 571.828 380.617 572.093 380.99C572.357 381.359 572.735 381.544 573.228 381.544C573.706 381.544 574.08 381.362 574.349 380.997C574.618 380.628 574.752 380.04 574.752 379.233C574.752 378.545 574.618 378.012 574.349 377.634C574.08 377.256 573.701 377.066 573.214 377.066C572.731 377.066 572.357 377.256 572.093 377.634C571.828 378.007 571.696 378.589 571.696 379.377ZM579.763 375.604L579.824 376.458C580.353 375.797 581.062 375.467 581.95 375.467C582.734 375.467 583.317 375.697 583.7 376.157C584.083 376.618 584.279 377.306 584.288 378.222V383H582.312V378.27C582.312 377.85 582.221 377.547 582.039 377.36C581.857 377.169 581.554 377.073 581.13 377.073C580.574 377.073 580.157 377.31 579.879 377.784V383H577.903V375.604H579.763ZM589.196 383.137C588.112 383.137 587.228 382.804 586.544 382.139C585.865 381.473 585.525 380.587 585.525 379.479V379.288C585.525 378.545 585.669 377.882 585.956 377.299C586.243 376.711 586.649 376.26 587.173 375.945C587.701 375.626 588.303 375.467 588.978 375.467C589.989 375.467 590.785 375.786 591.363 376.424C591.947 377.062 592.238 377.966 592.238 379.138V379.944H587.528C587.592 380.427 587.784 380.815 588.103 381.106C588.426 381.398 588.834 381.544 589.326 381.544C590.087 381.544 590.682 381.268 591.11 380.717L592.081 381.804C591.785 382.223 591.384 382.551 590.878 382.788C590.372 383.021 589.812 383.137 589.196 383.137ZM588.971 377.066C588.579 377.066 588.26 377.199 588.014 377.463C587.772 377.727 587.617 378.105 587.549 378.598H590.297V378.44C590.288 378.003 590.169 377.666 589.941 377.429C589.714 377.187 589.39 377.066 588.971 377.066Z" fill="black"/>
</svg>
