<svg width="327" height="329" viewBox="0 0 327 329" fill="none" xmlns="http://www.w3.org/2000/svg">
<rect width="327" height="329" fill="white"/>
<path d="M355.159 11.9173C355.11 24.6972 342.26 35.2642 326.116 35.2103C318.155 35.1837 310.943 31.4025 305.716 25.9652C300.481 20.5205 297.304 13.4863 297.329 7.05459C297.377 -5.72524 310.228 -16.2922 326.372 -16.2383C334.333 -16.2118 341.544 -12.4305 346.772 -6.99325C352.006 -1.5486 355.183 5.48559 355.159 11.9173Z" stroke="#D60A0A" stroke-width="1.5"/>
<path d="M204.057 1.37718C203.97 24.2619 186.563 42.6685 165.282 42.5974C144.001 42.5264 126.735 24.004 126.823 1.11933C126.91 -21.7654 144.316 -40.172 165.597 -40.1009C186.878 -40.0299 204.144 -21.5075 204.057 1.37718Z" stroke="#056888" stroke-width="1.5"/>
<line y1="-0.75" x2="284.832" y2="-0.75" transform="matrix(0.999994 0.00333848 -0.00380697 0.999993 19.8076 284.434)" stroke="#D60A0A" stroke-width="1.5"/>
<line y1="-1.5" x2="324.709" y2="-1.5" transform="matrix(0.999994 0.00333848 -0.00380697 0.999993 0.944214 108.955)" stroke="#044480" stroke-width="3"/>
<line y1="-1" x2="157.878" y2="-1" transform="matrix(0.999994 0.00333848 -0.00380697 0.999993 1.57986 1.4711)" stroke="#D60A0A" stroke-width="2" stroke-dasharray="8 8"/>
<line y1="-1" x2="157.878" y2="-1" transform="matrix(0.999994 0.00333848 -0.00380697 0.999993 168.578 2.25818)" stroke="#D60A0A" stroke-width="2" stroke-dasharray="8 8"/>
<path d="M1.36008 -0.301788L0.496764 226.469C0.286511 281.697 44.8873 326.617 100.115 326.802L224.824 327.218C280.052 327.402 324.994 282.781 325.204 227.553L326.067 0.782247" stroke="black" stroke-width="2"/>
<path d="M185.009 284.985C185.054 273.36 175.616 263.904 163.931 263.865C152.245 263.826 142.736 273.219 142.692 284.844" stroke="#D60A0A" stroke-width="2"/>
<path d="M185.011 284.484C184.968 295.833 175.46 305.001 163.774 304.962C152.089 304.923 142.65 295.691 142.694 284.343C142.737 272.994 152.245 263.826 163.931 263.865C175.616 263.904 185.055 273.136 185.011 284.484Z" fill="#09A5D7"/>
<rect width="48.0146" height="34.0805" transform="matrix(0.999994 0.00333848 -0.00380697 0.999993 141.064 284.839)" fill="white"/>
<line y1="-0.75" x2="52.0836" y2="-0.75" transform="matrix(0.999994 0.00333848 -0.00380697 0.999993 141.064 284.839)" stroke="#D60A0A" stroke-width="1.5"/>
<path d="M133.794 221.665C133.708 244.367 115.317 262.703 92.7268 262.627C70.1366 262.552 51.886 244.094 51.9725 221.392C52.0589 198.689 70.4496 180.354 93.0397 180.429C115.63 180.504 133.881 198.962 133.794 221.665Z" stroke="#D60A0A" stroke-width="2"/>
<path d="M277.837 222.146C277.751 244.83 259.014 263.183 235.956 263.106C212.898 263.029 194.302 244.552 194.388 221.867C194.474 199.183 213.211 180.83 236.269 180.907C259.327 180.984 277.924 199.461 277.837 222.146Z" stroke="#D60A0A" stroke-width="2"/>
<circle r="3" transform="matrix(0.999994 0.00333848 -0.00380697 0.999993 92.0114 221.01)" fill="#D60A0A"/>
<ellipse rx="3.5" ry="3.5" transform="matrix(0.999994 0.00333848 -0.00380697 0.999993 94.033 90.7141)" fill="#D60A0A"/>
<circle r="3" transform="matrix(0.999994 0.00333848 -0.00380697 0.999993 236.011 223.01)" fill="#D60A0A"/>
<ellipse rx="1.22071" ry="3.0071" transform="matrix(0.999994 0.00333848 -0.00380697 0.999993 149.663 270.834)" fill="#D60A0A"/>
<ellipse rx="1.62761" ry="3.0071" transform="matrix(0.999994 0.00333848 -0.00380697 0.999993 176.925 270.925)" fill="#D60A0A"/>
<ellipse rx="3.5" ry="3.5" transform="matrix(0.999994 0.00333848 -0.00380697 0.999993 236.448 91.1895)" fill="#D60A0A"/>
<path d="M240 238.021L240.034 229L248.172 229.027" stroke="#D60A0A"/>
<path d="M231.51 238.043L231.545 229.022L225.034 229" stroke="#D60A0A"/>
<path d="M87.5104 235.043L87.5448 226.022L81.0343 226" stroke="#D60A0A"/>
<path d="M87.5104 207L87.5448 216.021L81.0343 216.043" stroke="#D60A0A"/>
<path d="M97.0343 207L97 216.021L103.51 216.043" stroke="#D60A0A"/>
<path d="M97.0343 235.043L97 226.022L103.51 226" stroke="#D60A0A"/>
<path d="M231.51 208L231.545 217.021L225.034 217.043" stroke="#D60A0A"/>
<path d="M240.034 208L240 217.021L246.51 217.043" stroke="#D60A0A"/>
<line y1="-0.5" x2="7.32426" y2="-0.5" transform="matrix(0.999994 0.00333848 -0.00380697 0.999993 43.6636 217.354)" stroke="#D60A0A"/>
<line y1="-0.5" x2="8.13807" y2="-0.5" transform="matrix(0.999994 0.00333848 -0.00380697 0.999993 133.182 217.653)" stroke="#D60A0A"/>
<line y1="-0.5" x2="5.69665" y2="-0.5" transform="matrix(0.999994 0.00333848 -0.00380697 0.999993 188.52 217.838)" stroke="#D60A0A"/>
<line y1="-0.5" x2="5.69665" y2="-0.5" transform="matrix(0.999994 0.00333848 -0.00380697 0.999993 188.482 227.862)" stroke="#D60A0A"/>
<line opacity="0.8" y1="-0.5" x2="6.51045" y2="-0.5" transform="matrix(0.999994 0.00333848 -0.00380697 0.999993 276.411 218.131)" stroke="#D60A0A"/>
<line y1="-0.5" x2="6.51045" y2="-0.5" transform="matrix(0.999994 0.00333848 -0.00380697 0.999993 276.373 228.155)" stroke="#D60A0A"/>
<line y1="-0.5" x2="8.13807" y2="-0.5" transform="matrix(0.999994 0.00333848 -0.00380697 0.999993 133.144 227.677)" stroke="#D60A0A"/>
<line y1="-0.5" x2="7.32426" y2="-0.5" transform="matrix(0.999994 0.00333848 -0.00380697 0.999993 43.6255 227.378)" stroke="#D60A0A"/>
<rect width="389.056" height="56.1326" transform="matrix(0.999994 0.00333848 -0.00380697 0.999993 -4.67633 -56.394)" fill="white"/>
<circle r="2.5" transform="matrix(0.999994 0.00333848 -0.00380697 0.999993 165.083 1.73825)" fill="#09A5D7"/>
<rect width="84.6359" height="84.1989" transform="matrix(0.999994 0.00333848 -0.00380697 0.999993 326.908 -6.23169)" fill="white"/>
</svg>
