<svg width="327" height="337" viewBox="0 0 327 337" fill="none" xmlns="http://www.w3.org/2000/svg">
<rect width="327" height="337" fill="#BCBDC0"/>
<path d="M1.50821 2.2572L326.293 3.3415L325.421 232.375C325.211 287.603 280.27 332.225 225.041 332.041L100.255 331.624C45.0268 331.44 0.426027 286.519 0.63628 231.291L1.50821 2.2572Z" fill="white"/>
<path d="M355.159 16.9173C355.11 29.6972 342.26 40.2642 326.116 40.2103C318.155 40.1837 310.943 36.4025 305.716 30.9652C300.481 25.5205 297.304 18.4863 297.329 12.0546C297.377 -0.725242 310.228 -11.2922 326.372 -11.2383C334.333 -11.2118 341.544 -7.43054 346.772 -1.99325C352.006 3.4514 355.183 10.4856 355.159 16.9173Z" stroke="#D60A0A" stroke-width="1.5"/>
<path d="M204.057 6.37718C203.97 29.2619 186.563 47.6685 165.282 47.5974C144.001 47.5264 126.735 29.004 126.823 6.11933C126.91 -16.7654 144.316 -35.172 165.597 -35.1009C186.878 -35.0299 204.144 -16.5075 204.057 6.37718Z" stroke="#056888" stroke-width="1.5"/>
<line y1="-0.75" x2="284.832" y2="-0.75" transform="matrix(0.999994 0.00333848 -0.00380697 0.999993 19.8076 289.434)" stroke="#D60A0A" stroke-width="1.5"/>
<line y1="-1.5" x2="324.709" y2="-1.5" transform="matrix(0.999994 0.00333848 -0.00380697 0.999993 0.944214 113.955)" stroke="#044480" stroke-width="3"/>
<line y1="-1" x2="157.878" y2="-1" transform="matrix(0.999994 0.00333848 -0.00380697 0.999993 1.57986 6.4711)" stroke="#D60A0A" stroke-width="2" stroke-dasharray="8 8"/>
<line y1="-1" x2="157.878" y2="-1" transform="matrix(0.999994 0.00333848 -0.00380697 0.999993 168.578 7.25818)" stroke="#D60A0A" stroke-width="2" stroke-dasharray="8 8"/>
<path d="M1.36008 4.69821L0.496764 231.469C0.286511 286.697 44.8873 331.617 100.115 331.802L224.824 332.218C280.052 332.402 324.994 287.781 325.204 232.553L326.067 5.78225" stroke="black" stroke-width="2"/>
<path d="M185.009 289.985C185.054 278.36 175.616 268.904 163.931 268.865C152.245 268.826 142.736 278.219 142.692 289.844" stroke="#D60A0A" stroke-width="2"/>
<path d="M185.011 289.484C184.968 300.833 175.46 310.001 163.774 309.962C152.089 309.923 142.65 300.691 142.694 289.343C142.737 277.994 152.245 268.826 163.931 268.865C175.616 268.904 185.055 278.136 185.011 289.484Z" fill="#09A5D7"/>
<rect width="48.0146" height="34.0805" transform="matrix(0.999994 0.00333848 -0.00380697 0.999993 141.064 289.839)" fill="white"/>
<line y1="-0.75" x2="52.0836" y2="-0.75" transform="matrix(0.999994 0.00333848 -0.00380697 0.999993 141.064 289.839)" stroke="#D60A0A" stroke-width="1.5"/>
<path d="M133.794 226.665C133.708 249.367 115.317 267.703 92.7268 267.627C70.1366 267.552 51.886 249.094 51.9725 226.392C52.0589 203.689 70.4496 185.354 93.0397 185.429C115.63 185.504 133.881 203.962 133.794 226.665Z" stroke="#D60A0A" stroke-width="2"/>
<path d="M277.837 227.146C277.751 249.83 259.014 268.183 235.956 268.106C212.898 268.029 194.302 249.552 194.388 226.867C194.474 204.183 213.211 185.83 236.269 185.907C259.327 185.984 277.924 204.461 277.837 227.146Z" stroke="#D60A0A" stroke-width="2"/>
<circle r="3" transform="matrix(0.999994 0.00333848 -0.00380697 0.999993 92.0114 226.01)" fill="#D60A0A"/>
<ellipse rx="3.5" ry="3.5" transform="matrix(0.999994 0.00333848 -0.00380697 0.999993 94.033 95.7141)" fill="#D60A0A"/>
<circle r="3" transform="matrix(0.999994 0.00333848 -0.00380697 0.999993 236.011 228.01)" fill="#D60A0A"/>
<ellipse rx="1.22071" ry="3.0071" transform="matrix(0.999994 0.00333848 -0.00380697 0.999993 149.663 275.834)" fill="#D60A0A"/>
<ellipse rx="1.62761" ry="3.0071" transform="matrix(0.999994 0.00333848 -0.00380697 0.999993 176.925 275.925)" fill="#D60A0A"/>
<ellipse rx="3.5" ry="3.5" transform="matrix(0.999994 0.00333848 -0.00380697 0.999993 236.448 96.1895)" fill="#D60A0A"/>
<path d="M240 243.021L240.034 234L248.172 234.027" stroke="#D60A0A"/>
<path d="M231.51 243.043L231.545 234.022L225.034 234" stroke="#D60A0A"/>
<path d="M87.5104 240.043L87.5448 231.022L81.0343 231" stroke="#D60A0A"/>
<path d="M87.5104 212L87.5448 221.021L81.0343 221.043" stroke="#D60A0A"/>
<path d="M97.0343 212L97 221.021L103.51 221.043" stroke="#D60A0A"/>
<path d="M97.0343 240.043L97 231.022L103.51 231" stroke="#D60A0A"/>
<path d="M231.51 213L231.545 222.021L225.034 222.043" stroke="#D60A0A"/>
<path d="M240.034 213L240 222.021L246.51 222.043" stroke="#D60A0A"/>
<line y1="-0.5" x2="7.32426" y2="-0.5" transform="matrix(0.999994 0.00333848 -0.00380697 0.999993 43.6636 222.354)" stroke="#D60A0A"/>
<line y1="-0.5" x2="8.13807" y2="-0.5" transform="matrix(0.999994 0.00333848 -0.00380697 0.999993 133.182 222.653)" stroke="#D60A0A"/>
<line y1="-0.5" x2="5.69665" y2="-0.5" transform="matrix(0.999994 0.00333848 -0.00380697 0.999993 188.52 222.838)" stroke="#D60A0A"/>
<line y1="-0.5" x2="5.69665" y2="-0.5" transform="matrix(0.999994 0.00333848 -0.00380697 0.999993 188.482 232.862)" stroke="#D60A0A"/>
<line opacity="0.8" y1="-0.5" x2="6.51045" y2="-0.5" transform="matrix(0.999994 0.00333848 -0.00380697 0.999993 276.411 223.131)" stroke="#D60A0A"/>
<line y1="-0.5" x2="6.51045" y2="-0.5" transform="matrix(0.999994 0.00333848 -0.00380697 0.999993 276.373 233.155)" stroke="#D60A0A"/>
<line y1="-0.5" x2="8.13807" y2="-0.5" transform="matrix(0.999994 0.00333848 -0.00380697 0.999993 133.144 232.677)" stroke="#D60A0A"/>
<line y1="-0.5" x2="7.32426" y2="-0.5" transform="matrix(0.999994 0.00333848 -0.00380697 0.999993 43.6255 232.378)" stroke="#D60A0A"/>
<rect width="389.056" height="56.1326" transform="matrix(0.999994 0.00333848 -0.00380697 0.999993 -4.67633 -51.394)" fill="white"/>
<circle r="2.5" transform="matrix(0.999994 0.00333848 -0.00380697 0.999993 165.083 6.73825)" fill="#09A5D7"/>
</svg>
