<svg width="19" height="19" viewBox="0 0 19 19" fill="none" xmlns="http://www.w3.org/2000/svg">
<rect width="19" height="19" fill=""/>
<rect x="1" y="1" width="17" height="17" rx="1" fill="#1F1F1F"/>
<rect x="2" y="2" width="15" height="15" rx="1" fill="white"/>
<path d="M5.35186 15.7167L5.88326 14.5184L7 12H6.88427L5.84913 14.333L5.71746 14.2245C5.93479 13.791 6.591 12.3457 6.7478 12H6.63153C6.63153 12 5.68826 14.0827 5.57419 14.2638C5.35753 14.6078 5.14806 14.8197 4.96179 14.9475C4.73972 15.0997 4.55065 15.1321 4.42305 15.1203C4.05692 15.0869 3.61578 14.9685 3.18958 14.8372C3.06365 14.8011 2.91845 15.6796 3.05518 15.7375C3.72292 16.0201 4.41759 16.0239 4.84832 15.9784H4.84846C4.9465 15.9685 5.04424 15.9538 5.14146 15.9341C5.25826 15.9097 5.35113 15.7188 5.35186 15.7167ZM3.51925 15.7422L3.58692 15.1261C3.64292 15.1408 3.69632 15.1542 3.74858 15.1669L3.63125 15.7662C3.59385 15.7584 3.55598 15.7513 3.51925 15.7422V15.7422ZM3.95085 15.8187C3.87733 15.8106 3.80398 15.8 3.73085 15.787L3.84765 15.1901C3.89438 15.2008 3.93938 15.2104 3.98325 15.2191L3.95085 15.8187ZM4.19639 15.8371C4.1482 15.8348 4.10004 15.8317 4.05192 15.8276L4.08385 15.2384C4.15226 15.2508 4.22085 15.2612 4.28959 15.2697L4.19639 15.8371V15.8371ZM4.36285 15.8419C4.34139 15.8419 4.32052 15.8404 4.29912 15.84L4.39112 15.2804C4.39992 15.2811 4.40912 15.2822 4.41779 15.2828C4.43319 15.284 4.44939 15.2847 4.46632 15.2847C4.50939 15.2847 4.56192 15.2797 4.62139 15.2667L4.48459 15.8389C4.44412 15.8402 4.40359 15.8419 4.36285 15.8419V15.8419ZM4.73059 15.8242C4.68378 15.8285 4.63693 15.8319 4.59005 15.8344L4.73366 15.2335C4.75486 15.2258 4.77572 15.2188 4.79826 15.2089L4.73059 15.8242Z" fill="black"/>
<path d="M5.64814 15.7167L5.11674 14.5184L4 12H4.11573L5.15087 14.333L5.28254 14.2245C5.06521 13.791 4.409 12.3457 4.2522 12H4.36847C4.36847 12 5.31174 14.0827 5.42581 14.2638C5.64247 14.6078 5.85194 14.8197 6.03821 14.9475C6.26028 15.0997 6.44935 15.1321 6.57695 15.1203C6.94308 15.0869 7.38422 14.9685 7.81042 14.8372C7.93635 14.8011 8.08155 15.6796 7.94482 15.7375C7.27708 16.0201 6.58241 16.0239 6.15168 15.9784H6.15154C6.0535 15.9685 5.95576 15.9538 5.85854 15.9341C5.74174 15.9097 5.64887 15.7188 5.64814 15.7167ZM7.48075 15.7422L7.41308 15.1261C7.35708 15.1408 7.30368 15.1542 7.25142 15.1669L7.36875 15.7662C7.40615 15.7584 7.44402 15.7513 7.48075 15.7422V15.7422ZM7.04915 15.8187C7.12267 15.8106 7.19602 15.8 7.26915 15.787L7.15235 15.1901C7.10562 15.2008 7.06062 15.2104 7.01675 15.2191L7.04915 15.8187ZM6.80361 15.8371C6.8518 15.8348 6.89996 15.8317 6.94808 15.8276L6.91615 15.2384C6.84774 15.2508 6.77915 15.2612 6.71041 15.2697L6.80361 15.8371V15.8371ZM6.63715 15.8419C6.65861 15.8419 6.67948 15.8404 6.70088 15.84L6.60888 15.2804C6.60008 15.2811 6.59088 15.2822 6.58221 15.2828C6.56681 15.284 6.55061 15.2847 6.53368 15.2847C6.49061 15.2847 6.43808 15.2797 6.37861 15.2667L6.51541 15.8389C6.55588 15.8402 6.59641 15.8419 6.63715 15.8419V15.8419ZM6.26941 15.8242C6.31622 15.8285 6.36307 15.8319 6.40995 15.8344L6.26634 15.2335C6.24514 15.2258 6.22428 15.2188 6.20174 15.2089L6.26941 15.8242Z" fill="black"/>
</svg>
