<svg width="17" height="17" viewBox="0 0 17 17" fill="none" xmlns="http://www.w3.org/2000/svg">
<rect width="17" height="17" fill=""/>
<path d="M4.5 4.975C5.88071 4.975 7 4.55615 7 4.03947C7 3.52278 5.88071 3.10393 4.5 3.10393C3.11929 3.10393 2 3.52278 2 4.03947C2 4.55615 3.11929 4.975 4.5 4.975Z" fill="#999"/>
<path d="M4.5 3.87107C5.88071 3.87107 7 3.45222 7 2.93553C7 2.41885 5.88071 2 4.5 2C3.11929 2 2 2.41885 2 2.93553C2 3.45222 3.11929 3.87107 4.5 3.87107Z" fill="#999"/>
<path d="M2.0188 2.93553H7V4.03947H2.0188V2.93553Z" fill="#999"/>
<path d="M12.5 4.975C13.8807 4.975 15 4.55615 15 4.03947C15 3.52278 13.8807 3.10393 12.5 3.10393C11.1193 3.10393 10 3.52278 10 4.03947C10 4.55615 11.1193 4.975 12.5 4.975Z" fill="#999"/>
<path d="M12.5 3.87107C13.8807 3.87107 15 3.45222 15 2.93553C15 2.41885 13.8807 2 12.5 2C11.1193 2 10 2.41885 10 2.93553C10 3.45222 11.1193 3.87107 12.5 3.87107Z" fill="#999"/>
<path d="M10.0188 2.93553H15V4.03947H10.0188V2.93553Z" fill="#999"/>
<path d="M12.5 9.975C13.8807 9.975 15 9.55615 15 9.03947C15 8.52278 13.8807 8.10393 12.5 8.10393C11.1193 8.10393 10 8.52278 10 9.03947C10 9.55615 11.1193 9.975 12.5 9.975Z" fill="#999"/>
<path d="M12.5 8.87107C13.8807 8.87107 15 8.45222 15 7.93553C15 7.41885 13.8807 7 12.5 7C11.1193 7 10 7.41885 10 7.93553C10 8.45222 11.1193 8.87107 12.5 8.87107Z" fill="#999"/>
<path d="M10.0188 7.93554H15V9.03947H10.0188V7.93554Z" fill="#999"/>
<path d="M12.5 14.975C13.8807 14.975 15 14.5561 15 14.0395C15 13.5228 13.8807 13.1039 12.5 13.1039C11.1193 13.1039 10 13.5228 10 14.0395C10 14.5561 11.1193 14.975 12.5 14.975Z" fill="#999"/>
<path d="M12.5 13.8711C13.8807 13.8711 15 13.4522 15 12.9355C15 12.4189 13.8807 12 12.5 12C11.1193 12 10 12.4189 10 12.9355C10 13.4522 11.1193 13.8711 12.5 13.8711Z" fill="#999"/>
<path d="M10.0188 12.9355H15V14.0395H10.0188V12.9355Z" fill="#999"/>
<path d="M4.5 14.975C5.88071 14.975 7 14.5561 7 14.0395C7 13.5228 5.88071 13.1039 4.5 13.1039C3.11929 13.1039 2 13.5228 2 14.0395C2 14.5561 3.11929 14.975 4.5 14.975Z" fill="#999"/>
<path d="M4.5 13.8711C5.88071 13.8711 7 13.4522 7 12.9355C7 12.4189 5.88071 12 4.5 12C3.11929 12 2 12.4189 2 12.9355C2 13.4522 3.11929 13.8711 4.5 13.8711Z" fill="#999"/>
<path d="M2.0188 12.9355H7V14.0395H2.0188V12.9355Z" fill="#999"/>
<path d="M4.5 9.975C5.88071 9.975 7 9.55615 7 9.03947C7 8.52278 5.88071 8.10393 4.5 8.10393C3.11929 8.10393 2 8.52278 2 9.03947C2 9.55615 3.11929 9.975 4.5 9.975Z" fill="#999"/>
<path d="M4.5 8.87107C5.88071 8.87107 7 8.45222 7 7.93553C7 7.41885 5.88071 7 4.5 7C3.11929 7 2 7.41885 2 7.93553C2 8.45222 3.11929 8.87107 4.5 8.87107Z" fill="#999"/>
<path d="M2.0188 7.93554H7V9.03947H2.0188V7.93554Z" fill="#999"/>
</svg>
