<svg width="16" height="10" viewBox="0 0 16 10" fill="none" xmlns="http://www.w3.org/2000/svg">
<path d="M5.82587 7.6725C5.75587 7.6725 5.69462 7.62 5.68087 7.545C5.05587 3.8975 3.84712 1.66875 3.83462 1.6475C3.79462 1.57375 3.81837 1.47875 3.88837 1.43625C3.95837 1.39375 4.04837 1.41875 4.08962 1.4925C4.10212 1.515 5.33587 3.785 5.97087 7.49C5.98462 7.57375 5.93212 7.65375 5.85212 7.66875C5.84337 7.6725 5.83462 7.6725 5.82587 7.6725V7.6725Z" fill="#999"/>
<path d="M7.41962 7.6725C7.34962 7.6725 7.28837 7.62 7.27462 7.545C6.64962 3.8975 5.44087 1.66875 5.42837 1.6475C5.38837 1.57375 5.41212 1.47875 5.48212 1.43625C5.55212 1.39375 5.64212 1.41875 5.68337 1.4925C5.69587 1.515 6.92962 3.785 7.56462 7.49C7.57837 7.57375 7.52587 7.65375 7.44587 7.66875C7.43712 7.6725 7.42837 7.6725 7.41962 7.6725V7.6725Z" fill="#999"/>
<path d="M8.88086 7.6725C8.81086 7.6725 8.74836 7.62 8.73586 7.545C8.11086 3.8975 6.90211 1.66875 6.88961 1.6475C6.84961 1.57375 6.87336 1.47875 6.94336 1.43625C7.01336 1.39375 7.10336 1.41875 7.14461 1.4925C7.15711 1.515 8.39086 3.785 9.02461 7.49C9.03961 7.57375 8.98586 7.65375 8.90586 7.66875C8.89836 7.6725 8.88836 7.6725 8.88086 7.6725V7.6725Z" fill="#999"/>
<path d="M2.82836 7.6725C2.81961 7.6725 2.81086 7.67125 2.80211 7.67C2.72211 7.655 2.66836 7.575 2.68336 7.49125C3.31836 3.78625 4.55211 1.51625 4.56461 1.49375C4.60461 1.42 4.69461 1.395 4.76586 1.4375C4.83586 1.48 4.85961 1.575 4.81961 1.64875C4.80711 1.67 3.59836 3.89875 2.97336 7.54625C2.96086 7.62 2.89836 7.6725 2.82836 7.6725V7.6725Z" fill="#999"/>
<path d="M4.30212 7.6725C4.29337 7.6725 4.28462 7.67125 4.27587 7.67C4.19587 7.655 4.14337 7.575 4.15712 7.49125C4.79212 3.78625 6.02587 1.51625 6.03837 1.49375C6.04749 1.47644 6.06004 1.46117 6.07525 1.44888C6.09047 1.43659 6.10804 1.42753 6.12688 1.42227C6.14572 1.417 6.16544 1.41564 6.18482 1.41826C6.20421 1.42088 6.22286 1.42742 6.23962 1.4375C6.30962 1.48 6.33462 1.575 6.29337 1.64875C6.28087 1.67 5.07212 3.89875 4.44712 7.54625C4.43337 7.62 4.37087 7.6725 4.30212 7.6725Z" fill="#999"/>
<path d="M5.88211 7.6725C5.87336 7.6725 5.86461 7.67125 5.85586 7.67C5.77586 7.655 5.72336 7.575 5.73711 7.49125C6.37211 3.78625 7.60586 1.51625 7.61836 1.49375C7.62747 1.47644 7.64002 1.46117 7.65524 1.44888C7.67046 1.43659 7.68803 1.42753 7.70687 1.42227C7.72571 1.417 7.74542 1.41564 7.76481 1.41826C7.7842 1.42088 7.80284 1.42742 7.81961 1.4375C7.88961 1.48 7.91461 1.575 7.87336 1.64875C7.86086 1.67 6.65211 3.89875 6.02711 7.54625C6.01461 7.62 5.95211 7.6725 5.88211 7.6725Z" fill="#999"/>
<path d="M7.42086 7.6725C7.41211 7.6725 7.40336 7.67125 7.39461 7.67C7.31461 7.655 7.26086 7.575 7.27586 7.49125C7.91086 3.7875 9.08461 1.51875 9.09711 1.49625C9.13586 1.42125 9.22586 1.39375 9.29711 1.435C9.36836 1.47625 9.39461 1.57 9.35586 1.645C9.34461 1.6675 8.19211 3.89625 7.56711 7.54625C7.55211 7.62 7.48961 7.6725 7.42086 7.6725V7.6725Z" fill="#999"/>
<path d="M8.88085 7.6725C8.8721 7.6725 8.86335 7.67125 8.8546 7.67C8.7746 7.655 8.72085 7.575 8.73585 7.49125C9.37085 3.78625 10.6046 1.51625 10.6171 1.49375C10.6584 1.42 10.7484 1.395 10.8184 1.4375C10.8884 1.48 10.9121 1.575 10.8721 1.64875C10.8596 1.67 9.65085 3.89875 9.02585 7.54625C9.0121 7.62 8.9496 7.6725 8.88085 7.6725V7.6725Z" fill="#999"/>
<path d="M10.3971 7.6725C10.3884 7.6725 10.3796 7.67125 10.3709 7.67C10.2909 7.655 10.2371 7.575 10.2521 7.49125C10.8871 3.78625 12.1209 1.51625 12.1334 1.49375C12.1746 1.42 12.2634 1.395 12.3346 1.4375C12.4046 1.48 12.4284 1.575 12.3884 1.64875C12.3759 1.67 11.1671 3.89875 10.5421 7.54625C10.5284 7.62 10.4659 7.6725 10.3971 7.6725V7.6725Z" fill="#999"/>
<path d="M11.9134 7.6725C11.9046 7.6725 11.8959 7.67125 11.8871 7.67C11.8071 7.655 11.7534 7.575 11.7684 7.49125C12.2046 4.945 12.9209 3.085 13.3096 2.20375C13.3446 2.12625 13.4309 2.0925 13.5046 2.12875C13.5784 2.165 13.6109 2.25625 13.5771 2.33375C13.1946 3.2025 12.4884 5.03375 12.0584 7.54625C12.0446 7.62 11.9834 7.6725 11.9134 7.6725V7.6725Z" fill="#999"/>
<path d="M10.3959 7.6725C10.3259 7.6725 10.2634 7.62 10.2509 7.545C9.62588 3.8975 8.41713 1.66875 8.40463 1.6475C8.36463 1.57375 8.38838 1.47875 8.45838 1.43625C8.52838 1.39375 8.61838 1.41875 8.65963 1.4925C8.67213 1.515 9.90588 3.785 10.5409 7.49C10.5559 7.57375 10.5021 7.65375 10.4221 7.66875C10.4134 7.6725 10.4046 7.6725 10.3959 7.6725V7.6725Z" fill="#999"/>
<path d="M11.9134 7.6725C11.8434 7.6725 11.7809 7.62 11.7684 7.545C11.1434 3.8975 9.93461 1.66875 9.92211 1.6475C9.88211 1.57375 9.90586 1.47875 9.97586 1.43625C10.0459 1.39375 10.1359 1.41875 10.1771 1.4925C10.1896 1.515 11.4234 3.785 12.0584 7.49C12.0734 7.57375 12.0196 7.65375 11.9396 7.66875C11.9309 7.6725 11.9221 7.6725 11.9134 7.6725V7.6725Z" fill="#999"/>
<path d="M13.3771 7.6725C13.3071 7.6725 13.2446 7.62 13.2321 7.545C12.6071 3.8975 11.3984 1.66875 11.3859 1.6475C11.3446 1.57375 11.3696 1.47875 11.4396 1.43625C11.5096 1.39375 11.5996 1.41875 11.6409 1.4925C11.6534 1.515 12.8871 3.785 13.5221 7.49C13.5371 7.57375 13.4834 7.65375 13.4034 7.66875C13.3946 7.6725 13.3859 7.6725 13.3771 7.6725V7.6725Z" fill="#999"/>
<path d="M4.30087 7.6725C4.23087 7.6725 4.16962 7.62 4.15587 7.545C3.53087 3.8975 2.32212 1.66875 2.30962 1.6475C2.26962 1.57375 2.29337 1.47875 2.36337 1.43625C2.43337 1.39375 2.52337 1.41875 2.56462 1.4925C2.57712 1.515 3.81087 3.785 4.44587 7.49C4.45962 7.57375 4.40712 7.65375 4.32712 7.66875C4.31837 7.6725 4.30962 7.6725 4.30087 7.6725V7.6725Z" fill="#999"/>
<path d="M2.82835 7.8525C2.75835 7.8525 2.6971 7.8 2.68335 7.725C2.42835 6.23875 2.0521 4.8175 1.56335 3.50125C1.5346 3.4225 1.5721 3.3325 1.6471 3.30125C1.72335 3.27 1.80835 3.31 1.8371 3.38875C2.3321 4.72375 2.71335 6.16375 2.9721 7.67C2.9871 7.75375 2.93335 7.83375 2.85335 7.84875C2.84585 7.85125 2.8371 7.8525 2.82835 7.8525V7.8525Z" fill="#999"/>
<path d="M13.3784 7.8525C13.3696 7.8525 13.3609 7.85125 13.3521 7.85C13.2721 7.835 13.2196 7.755 13.2334 7.67125C13.4921 6.165 13.8734 4.725 14.3684 3.39C14.3984 3.31 14.4834 3.27125 14.5584 3.3025C14.6346 3.33375 14.6721 3.4225 14.6421 3.5025C14.1546 4.81875 13.7771 6.24 13.5234 7.72625C13.5096 7.8 13.4484 7.8525 13.3784 7.8525Z" fill="#999"/>
<path d="M12.1221 7.9525C11.9196 7.94375 11.7621 7.765 11.7709 7.5525C11.9421 3.33 13.4046 0.994999 13.4671 0.897499C13.5809 0.719999 13.8096 0.672499 13.9771 0.789999C14.1459 0.907499 14.1909 1.1475 14.0771 1.325C14.0634 1.3475 12.6671 3.59375 12.5046 7.5825C12.4971 7.795 12.3246 7.96125 12.1221 7.9525Z" fill="#999"/>
<path d="M4.55507 7.99968C4.81132 7.99121 5.01063 7.81811 4.99956 7.61232C4.78285 3.52331 2.93212 1.26091 2.85303 1.1665C2.70909 0.994608 2.41962 0.94861 2.20607 1.0624C1.99252 1.17618 1.93558 1.40859 2.07952 1.58048C2.09692 1.60227 3.86381 3.77751 4.06945 7.64017C4.08052 7.84716 4.29723 8.00815 4.55507 7.99968Z" fill="#999"/>
<path d="M15.0171 8.73C14.9909 8.73 14.9646 8.7275 14.9371 8.72125C8.44211 7.28375 1.15086 8.70875 1.07711 8.7225C0.878361 8.7625 0.684611 8.63375 0.644611 8.43375C0.604611 8.23375 0.733361 8.04125 0.933361 8.00125C1.00711 7.98625 8.45211 6.53125 15.0959 8.0025C15.2946 8.04625 15.4196 8.2425 15.3746 8.44125C15.3571 8.52302 15.312 8.59629 15.2469 8.64884C15.1819 8.70138 15.1007 8.73003 15.0171 8.73V8.73Z" fill="#999"/>
<path d="M15.2196 9.54875C14.6521 9.5525 14.6521 9.4575 14.4984 8.95125L13.1846 2.10375V2.03375C13.1846 1.775 12.7609 1.46875 12.4034 1.46875H3.61836C3.26086 1.46875 2.83711 1.775 2.83711 2.03375V2.10375L1.52461 8.9525C1.43461 9.58125 1.43461 9.58125 0.663364 9.53625C0.258364 9.5125 -0.184136 9.55 0.0796135 8.675L1.36836 1.95625C1.76586 2.38419e-07 2.57711 0 3.61961 0H12.4046C13.4471 0 14.2159 2.38419e-07 14.6559 1.95625L15.9446 8.675C16.1109 9.55375 15.9071 9.5675 15.3609 9.55375C15.3109 9.5525 15.2659 9.54875 15.2196 9.54875V9.54875Z" fill="#999"/>
</svg>
