<svg width="24" height="21" viewBox="0 0 24 21" fill="none" xmlns="http://www.w3.org/2000/svg">
<rect width="24" height="21" fill="white"/>
<path d="M22.4812 13.6461C22.6082 13.6054 22.7201 13.5275 22.8024 13.4224C22.8847 13.3174 22.9335 13.1901 22.9426 13.0569C22.9518 12.9238 22.9207 12.791 22.8535 12.6758C22.7863 12.5605 22.6861 12.468 22.5658 12.4103L4.27095 3.59645C4.14914 3.53775 4.01237 3.51748 3.87878 3.53833C3.74519 3.55917 3.62111 3.62015 3.52299 3.71317C3.42487 3.80619 3.35736 3.92685 3.32941 4.05913C3.30147 4.19142 3.31442 4.32908 3.36653 4.45385L6.48506 11.9285L2.37587 18.9066C2.30675 19.0232 2.2748 19.1581 2.28429 19.2933C2.29378 19.4284 2.34425 19.5575 2.42898 19.6633C2.5137 19.7691 2.62866 19.8466 2.75852 19.8854C2.88838 19.9242 3.02698 19.9224 3.15584 19.8804L22.4812 13.6461V13.6461Z" fill="black"/>
<path d="M12.5 7C11.5717 7 10.6815 7.36875 10.0251 8.02513C9.36875 8.6815 9 9.57174 9 10.5C9 11.4283 9.36875 12.3185 10.0251 12.9749C10.6815 13.6313 11.5717 14 12.5 14C13.4283 14 14.3185 13.6313 14.9749 12.9749C15.6313 12.3185 16 11.4283 16 10.5C16 9.57174 15.6313 8.6815 14.9749 8.02513C14.3185 7.36875 13.4283 7 12.5 7V7ZM14.4954 11.7754L13.775 12.4958L12.5 11.2204L11.2246 12.4954L10.5042 11.775L11.78 10.5L10.5046 9.22458L11.225 8.50458L12.5 9.77958L13.7754 8.50417L14.4958 9.22458L13.22 10.5L14.4954 11.7754Z" fill="#FEFEFE"/>
</svg>
