<svg width="23" height="24" viewBox="0 0 23 24" fill="none" xmlns="http://www.w3.org/2000/svg">
<rect width="23" height="24" fill=""/>
<rect x="-38" y="-33" width="76" height="76" fill=""/>
<path d="M4.5 11.5C4.5 14.3834 4.33286 16.9837 4.06569 18.8539C3.93156 19.7928 3.77511 20.5265 3.61016 21.0149C3.5715 21.1293 3.53443 21.224 3.5 21.3009C3.46557 21.224 3.4285 21.1293 3.38984 21.0149C3.22489 20.5265 3.06844 19.7928 2.93431 18.8539C2.66714 16.9837 2.5 14.3834 2.5 11.5C2.5 8.61655 2.66714 6.0163 2.93431 4.14609C3.06844 3.20721 3.22489 2.47352 3.38984 1.98514C3.4285 1.87067 3.46557 1.77601 3.5 1.69909C3.53443 1.77601 3.5715 1.87067 3.61016 1.98514C3.77511 2.47352 3.93156 3.20721 4.06569 4.14609C4.33286 6.0163 4.5 8.61655 4.5 11.5ZM3.35559 21.5454C3.35558 21.5451 3.35749 21.5431 3.36139 21.54C3.35756 21.5441 3.35561 21.5456 3.35559 21.5454ZM3.6386 21.54C3.64251 21.5431 3.64442 21.5451 3.64441 21.5454C3.64439 21.5456 3.64244 21.5441 3.6386 21.54ZM3.64441 1.4546C3.64442 1.45485 3.6425 1.4569 3.63857 1.46001C3.64243 1.4559 3.64439 1.45435 3.64441 1.4546ZM3.36143 1.46001C3.3575 1.4569 3.35558 1.45485 3.35559 1.4546C3.35561 1.45435 3.35757 1.4559 3.36143 1.46001Z" stroke="#999"/>
<path d="M20.5 11.5C20.5 14.3834 20.3329 16.9837 20.0657 18.8539C19.9316 19.7928 19.7751 20.5265 19.6102 21.0149C19.5715 21.1293 19.5344 21.224 19.5 21.3009C19.4656 21.224 19.4285 21.1293 19.3898 21.0149C19.2249 20.5265 19.0684 19.7928 18.9343 18.8539C18.6671 16.9837 18.5 14.3834 18.5 11.5C18.5 8.61655 18.6671 6.0163 18.9343 4.14609C19.0684 3.20721 19.2249 2.47352 19.3898 1.98514C19.4285 1.87067 19.4656 1.77601 19.5 1.69909C19.5344 1.77601 19.5715 1.87067 19.6102 1.98514C19.7751 2.47352 19.9316 3.20721 20.0657 4.14609C20.3329 6.0163 20.5 8.61655 20.5 11.5ZM19.3556 21.5454C19.3556 21.5451 19.3575 21.5431 19.3614 21.54C19.3576 21.5441 19.3556 21.5456 19.3556 21.5454ZM19.6386 21.54C19.6425 21.5431 19.6444 21.5451 19.6444 21.5454C19.6444 21.5456 19.6424 21.5441 19.6386 21.54ZM19.6444 1.4546C19.6444 1.45485 19.6425 1.4569 19.6386 1.46001C19.6424 1.4559 19.6444 1.45435 19.6444 1.4546ZM19.3614 1.46001C19.3575 1.4569 19.3556 1.45485 19.3556 1.4546C19.3556 1.45435 19.3576 1.4559 19.3614 1.46001Z" stroke="#999"/>
<rect x="4" y="6" width="15" height="1" fill="#999"/>
<rect width="15" height="1" transform="matrix(1 0 0 -1 4 13)" fill="#999"/>
<rect width="15" height="1" transform="matrix(1 0 0 -1 4 19)" fill="#999"/>
<path d="M8.03906 2.70312C8.15556 2.70312 8.25 2.60869 8.25 2.49219C8.25 2.37569 8.15556 2.28125 8.03906 2.28125C7.92256 2.28125 7.82812 2.37569 7.82812 2.49219C7.82812 2.60869 7.92256 2.70312 8.03906 2.70312Z" fill="#999"/>
<path d="M8.39062 3.40625C8.22186 3.65234 8.3414 3.83515 8.39062 3.96875C8.42577 4.06015 8.44687 4.26406 8.4539 4.3625C8.49608 4.78437 8.52421 6.06406 8.52421 6.06406C8.53124 6.1414 8.47499 6.19062 8.41874 6.19062C8.36249 6.19062 8.3203 6.14843 8.31327 6.09922L8.12343 4.46093C8.1164 4.41875 8.08827 4.38359 8.03905 4.38359C7.98983 4.38359 7.96171 4.41875 7.95468 4.46093L7.76483 6.09922C7.7578 6.14843 7.71561 6.19062 7.65936 6.19062C7.60311 6.19062 7.54686 6.1414 7.5539 6.06406C7.5539 6.06406 7.58905 4.7914 7.63124 4.37656C7.63827 4.27109 7.65936 4.06718 7.68749 3.96172C7.72968 3.82812 7.85624 3.63125 7.68749 3.39922" fill="#999"/>
<path d="M7.4625 3.33594C7.46953 3.13906 7.63125 2.98438 7.82812 2.98438H8.25C8.44687 2.98438 8.60859 3.13906 8.61563 3.33594C8.61563 3.33594 8.62266 3.80703 8.63672 3.98984C8.66484 4.33437 8.8125 4.73516 8.8125 4.73516C8.54531 4.73516 8.28516 3.44844 8.03906 3.44844C7.79297 3.44844 7.63828 4.73516 7.40625 4.73516L7.4625 3.33594Z" fill="#999"/>
<g clip-path="url(#clip0)">
<path d="M8.0337 4.13996C8.02696 3.82042 7.95924 3.5051 7.83419 3.21096C7.03614 3.58361 6.44991 4.28674 6.24952 5.11643C6.36679 5.38512 6.53686 5.62752 6.74962 5.82922C6.95195 5.12567 7.40994 4.52316 8.0337 4.13996ZM7.70939 2.95871C7.57571 2.72581 7.40536 2.51599 7.20489 2.33733C6.40509 2.77502 5.93224 3.68117 6.10626 4.64182C6.39981 3.91145 6.9711 3.30588 7.70939 2.95871ZM9.35821 4.40979C9.4338 3.53264 9.11827 2.67395 8.50128 2.08596C8.37208 2.07102 8.04776 2.03762 7.63204 2.16066C8.14068 2.68773 8.4338 3.38597 8.45382 4.11817C8.73391 4.27219 9.0409 4.37118 9.35821 4.40979ZM8.26222 4.49328C7.98885 4.65926 7.74962 4.87582 7.55733 5.13137C8.27804 5.63498 9.17892 5.79143 9.9963 5.55149C10.1721 5.31592 10.2983 5.04711 10.3672 4.76135C10.1348 4.82057 9.89601 4.85127 9.65616 4.85276C9.17628 4.85188 8.69903 4.72883 8.26222 4.49328ZM7.39825 5.36955C7.26466 5.59807 7.17237 5.84768 7.11612 6.10959C7.506 6.34889 7.96149 6.45895 8.41762 6.42407C8.87374 6.38919 9.3072 6.21115 9.65616 5.91535C8.66388 6.05686 7.86935 5.69738 7.39825 5.36955ZM8.98292 2.20022C9.46896 2.81897 9.70802 3.61701 9.63858 4.42912C9.90634 4.42969 10.1725 4.38756 10.427 4.30432C10.427 4.28674 10.4296 4.26916 10.4296 4.25158C10.4296 3.30412 9.82579 2.50168 8.98292 2.20022Z" fill="#999"/>
</g>
<path d="M14.0391 14.7031C14.1556 14.7031 14.25 14.6087 14.25 14.4922C14.25 14.3757 14.1556 14.2812 14.0391 14.2812C13.9226 14.2812 13.8281 14.3757 13.8281 14.4922C13.8281 14.6087 13.9226 14.7031 14.0391 14.7031Z" fill="#999"/>
<path d="M14.3906 15.4062C14.2219 15.6523 14.3414 15.8352 14.3906 15.9687C14.4258 16.0602 14.4469 16.2641 14.4539 16.3625C14.4961 16.7844 14.5242 18.0641 14.5242 18.0641C14.5312 18.1414 14.475 18.1906 14.4187 18.1906C14.3625 18.1906 14.3203 18.1484 14.3133 18.0992L14.1234 16.4609C14.1164 16.4187 14.0883 16.3836 14.0391 16.3836C13.9898 16.3836 13.9617 16.4187 13.9547 16.4609L13.7648 18.0992C13.7578 18.1484 13.7156 18.1906 13.6594 18.1906C13.6031 18.1906 13.5469 18.1414 13.5539 18.0641C13.5539 18.0641 13.5891 16.7914 13.6312 16.3766C13.6383 16.2711 13.6594 16.0672 13.6875 15.9617C13.7297 15.8281 13.8562 15.6312 13.6875 15.3992" fill="#FADCBC"/>
<path d="M13.4625 15.3359C13.4695 15.1391 13.6313 14.9844 13.8281 14.9844H14.25C14.4469 14.9844 14.6086 15.1391 14.6156 15.3359C14.6156 15.3359 14.6227 15.807 14.6367 15.9898C14.6648 16.3344 14.8125 16.7352 14.8125 16.7352C14.5453 16.7352 14.2852 15.4484 14.0391 15.4484C13.793 15.4484 13.6383 16.7352 13.4062 16.7352L13.4625 15.3359Z" fill="#FADCBC"/>
<g clip-path="url(#clip1)">
<path d="M14.0337 16.14C14.027 15.8204 13.9592 15.5051 13.8342 15.211C13.0361 15.5836 12.4499 16.2867 12.2495 17.1164C12.3668 17.3851 12.5369 17.6275 12.7496 17.8292C12.9519 17.1257 13.4099 16.5232 14.0337 16.14ZM13.7094 14.9587C13.5757 14.7258 13.4054 14.516 13.2049 14.3373C12.4051 14.775 11.9322 15.6812 12.1063 16.6418C12.3998 15.9114 12.9711 15.3059 13.7094 14.9587ZM15.3582 16.4098C15.4338 15.5326 15.1183 14.6739 14.5013 14.086C14.3721 14.071 14.0478 14.0376 13.632 14.1607C14.1407 14.6877 14.4338 15.386 14.4538 16.1182C14.7339 16.2722 15.0409 16.3712 15.3582 16.4098ZM14.2622 16.4933C13.9888 16.6593 13.7496 16.8758 13.5573 17.1314C14.278 17.635 15.1789 17.7914 15.9963 17.5515C16.1721 17.3159 16.2983 17.0471 16.3672 16.7613C16.1348 16.8206 15.896 16.8513 15.6562 16.8528C15.1763 16.8519 14.699 16.7288 14.2622 16.4933ZM13.3983 17.3696C13.2647 17.5981 13.1724 17.8477 13.1161 18.1096C13.506 18.3489 13.9615 18.4589 14.4176 18.4241C14.8737 18.3892 15.3072 18.2111 15.6562 17.9154C14.6639 18.0569 13.8693 17.6974 13.3983 17.3696ZM14.9829 14.2002C15.469 14.819 15.708 15.617 15.6386 16.4291C15.9063 16.4297 16.1725 16.3876 16.427 16.3043C16.427 16.2867 16.4296 16.2692 16.4296 16.2516C16.4296 15.3041 15.8258 14.5017 14.9829 14.2002Z" fill="black"/>
</g>
<path d="M14.0391 8.70312C14.1556 8.70312 14.25 8.60869 14.25 8.49219C14.25 8.37569 14.1556 8.28125 14.0391 8.28125C13.9226 8.28125 13.8281 8.37569 13.8281 8.49219C13.8281 8.60869 13.9226 8.70312 14.0391 8.70312Z" fill="#FADCBC"/>
<path d="M14.3906 9.40625C14.2219 9.65234 14.3414 9.83515 14.3906 9.96875C14.4258 10.0602 14.4469 10.2641 14.4539 10.3625C14.4961 10.7844 14.5242 12.0641 14.5242 12.0641C14.5312 12.1414 14.475 12.1906 14.4187 12.1906C14.3625 12.1906 14.3203 12.1484 14.3133 12.0992L14.1234 10.4609C14.1164 10.4187 14.0883 10.3836 14.0391 10.3836C13.9898 10.3836 13.9617 10.4187 13.9547 10.4609L13.7648 12.0992C13.7578 12.1484 13.7156 12.1906 13.6594 12.1906C13.6031 12.1906 13.5469 12.1414 13.5539 12.0641C13.5539 12.0641 13.5891 10.7914 13.6312 10.3766C13.6383 10.2711 13.6594 10.0672 13.6875 9.96172C13.7297 9.82812 13.8562 9.63125 13.6875 9.39922" fill="#FADCBC"/>
<path d="M13.4625 9.33594C13.4695 9.13906 13.6313 8.98438 13.8281 8.98438H14.25C14.4469 8.98438 14.6086 9.13906 14.6156 9.33594C14.6156 9.33594 14.6227 9.80703 14.6367 9.98984C14.6648 10.3344 14.8125 10.7352 14.8125 10.7352C14.5453 10.7352 14.2852 9.44844 14.0391 9.44844C13.793 9.44844 13.6383 10.7352 13.4062 10.7352L13.4625 9.33594Z" fill="#FADCBC"/>
<g clip-path="url(#clip2)">
<path d="M14.0337 10.14C14.027 9.82042 13.9592 9.5051 13.8342 9.21096C13.0361 9.58361 12.4499 10.2867 12.2495 11.1164C12.3668 11.3851 12.5369 11.6275 12.7496 11.8292C12.9519 11.1257 13.4099 10.5232 14.0337 10.14ZM13.7094 8.95871C13.5757 8.72581 13.4054 8.51599 13.2049 8.33733C12.4051 8.77502 11.9322 9.68117 12.1063 10.6418C12.3998 9.91145 12.9711 9.30588 13.7094 8.95871ZM15.3582 10.4098C15.4338 9.53264 15.1183 8.67395 14.5013 8.08596C14.3721 8.07102 14.0478 8.03762 13.632 8.16066C14.1407 8.68773 14.4338 9.38597 14.4538 10.1182C14.7339 10.2722 15.0409 10.3712 15.3582 10.4098ZM14.2622 10.4933C13.9888 10.6593 13.7496 10.8758 13.5573 11.1314C14.278 11.635 15.1789 11.7914 15.9963 11.5515C16.1721 11.3159 16.2983 11.0471 16.3672 10.7613C16.1348 10.8206 15.896 10.8513 15.6562 10.8528C15.1763 10.8519 14.699 10.7288 14.2622 10.4933ZM13.3983 11.3696C13.2647 11.5981 13.1724 11.8477 13.1161 12.1096C13.506 12.3489 13.9615 12.4589 14.4176 12.4241C14.8737 12.3892 15.3072 12.2111 15.6562 11.9154C14.6639 12.0569 13.8693 11.6974 13.3983 11.3696ZM14.9829 8.20022C15.469 8.81897 15.708 9.61701 15.6386 10.4291C15.9063 10.4297 16.1725 10.3876 16.427 10.3043C16.427 10.2867 16.4296 10.2692 16.4296 10.2516C16.4296 9.30412 15.8258 8.50168 14.9829 8.20022Z" fill="black"/>
</g>
<path d="M8.03906 8.70312C8.15556 8.70312 8.25 8.60869 8.25 8.49219C8.25 8.37569 8.15556 8.28125 8.03906 8.28125C7.92256 8.28125 7.82812 8.37569 7.82812 8.49219C7.82812 8.60869 7.92256 8.70312 8.03906 8.70312Z" fill="#FADCBC"/>
<path d="M8.39062 9.40625C8.22186 9.65234 8.3414 9.83515 8.39062 9.96875C8.42577 10.0602 8.44687 10.2641 8.4539 10.3625C8.49608 10.7844 8.52421 12.0641 8.52421 12.0641C8.53124 12.1414 8.47499 12.1906 8.41874 12.1906C8.36249 12.1906 8.3203 12.1484 8.31327 12.0992L8.12343 10.4609C8.1164 10.4187 8.08827 10.3836 8.03905 10.3836C7.98983 10.3836 7.96171 10.4187 7.95468 10.4609L7.76483 12.0992C7.7578 12.1484 7.71561 12.1906 7.65936 12.1906C7.60311 12.1906 7.54686 12.1414 7.5539 12.0641C7.5539 12.0641 7.58905 10.7914 7.63124 10.3766C7.63827 10.2711 7.65936 10.0672 7.68749 9.96172C7.72968 9.82812 7.85624 9.63125 7.68749 9.39922" fill="#FADCBC"/>
<path d="M7.4625 9.33594C7.46953 9.13906 7.63125 8.98438 7.82812 8.98438H8.25C8.44687 8.98438 8.60859 9.13906 8.61563 9.33594C8.61563 9.33594 8.62266 9.80703 8.63672 9.98984C8.66484 10.3344 8.8125 10.7352 8.8125 10.7352C8.54531 10.7352 8.28516 9.44844 8.03906 9.44844C7.79297 9.44844 7.63828 10.7352 7.40625 10.7352L7.4625 9.33594Z" fill="#FADCBC"/>
<g clip-path="url(#clip3)">
<path d="M8.0337 10.14C8.02696 9.82042 7.95924 9.5051 7.83419 9.21096C7.03614 9.58361 6.44991 10.2867 6.24952 11.1164C6.36679 11.3851 6.53686 11.6275 6.74962 11.8292C6.95195 11.1257 7.40994 10.5232 8.0337 10.14ZM7.70939 8.95871C7.57571 8.72581 7.40536 8.51599 7.20489 8.33733C6.40509 8.77502 5.93224 9.68117 6.10626 10.6418C6.39981 9.91145 6.9711 9.30588 7.70939 8.95871ZM9.35821 10.4098C9.4338 9.53264 9.11827 8.67395 8.50128 8.08596C8.37208 8.07102 8.04776 8.03762 7.63204 8.16066C8.14068 8.68773 8.4338 9.38597 8.45382 10.1182C8.73391 10.2722 9.0409 10.3712 9.35821 10.4098ZM8.26222 10.4933C7.98885 10.6593 7.74962 10.8758 7.55733 11.1314C8.27804 11.635 9.17892 11.7914 9.9963 11.5515C10.1721 11.3159 10.2983 11.0471 10.3672 10.7613C10.1348 10.8206 9.89601 10.8513 9.65616 10.8528C9.17628 10.8519 8.69903 10.7288 8.26222 10.4933ZM7.39825 11.3696C7.26466 11.5981 7.17237 11.8477 7.11612 12.1096C7.506 12.3489 7.96149 12.4589 8.41762 12.4241C8.87374 12.3892 9.3072 12.2111 9.65616 11.9154C8.66388 12.0569 7.86935 11.6974 7.39825 11.3696ZM8.98292 8.20022C9.46896 8.81897 9.70802 9.61701 9.63858 10.4291C9.90634 10.4297 10.1725 10.3876 10.427 10.3043C10.427 10.2867 10.4296 10.2692 10.4296 10.2516C10.4296 9.30412 9.82579 8.50168 8.98292 8.20022Z" fill="black"/>
</g>
<path d="M8.03906 14.7031C8.15556 14.7031 8.25 14.6087 8.25 14.4922C8.25 14.3757 8.15556 14.2812 8.03906 14.2812C7.92256 14.2812 7.82812 14.3757 7.82812 14.4922C7.82812 14.6087 7.92256 14.7031 8.03906 14.7031Z" fill="#FADCBC"/>
<path d="M8.39062 15.4062C8.22186 15.6523 8.3414 15.8352 8.39062 15.9687C8.42577 16.0602 8.44687 16.2641 8.4539 16.3625C8.49608 16.7844 8.52421 18.0641 8.52421 18.0641C8.53124 18.1414 8.47499 18.1906 8.41874 18.1906C8.36249 18.1906 8.3203 18.1484 8.31327 18.0992L8.12343 16.4609C8.1164 16.4187 8.08827 16.3836 8.03905 16.3836C7.98983 16.3836 7.96171 16.4187 7.95468 16.4609L7.76483 18.0992C7.7578 18.1484 7.71561 18.1906 7.65936 18.1906C7.60311 18.1906 7.54686 18.1414 7.5539 18.0641C7.5539 18.0641 7.58905 16.7914 7.63124 16.3766C7.63827 16.2711 7.65936 16.0672 7.68749 15.9617C7.72968 15.8281 7.85624 15.6312 7.68749 15.3992" fill="#FADCBC"/>
<path d="M7.4625 15.3359C7.46953 15.1391 7.63125 14.9844 7.82812 14.9844H8.25C8.44687 14.9844 8.60859 15.1391 8.61563 15.3359C8.61563 15.3359 8.62266 15.807 8.63672 15.9898C8.66484 16.3344 8.8125 16.7352 8.8125 16.7352C8.54531 16.7352 8.28516 15.4484 8.03906 15.4484C7.79297 15.4484 7.63828 16.7352 7.40625 16.7352L7.4625 15.3359Z" fill="#FADCBC"/>
<g clip-path="url(#clip4)">
<path d="M8.0337 16.14C8.02696 15.8204 7.95924 15.5051 7.83419 15.211C7.03614 15.5836 6.44991 16.2867 6.24952 17.1164C6.36679 17.3851 6.53686 17.6275 6.74962 17.8292C6.95195 17.1257 7.40994 16.5232 8.0337 16.14ZM7.70939 14.9587C7.57571 14.7258 7.40536 14.516 7.20489 14.3373C6.40509 14.775 5.93224 15.6812 6.10626 16.6418C6.39981 15.9114 6.9711 15.3059 7.70939 14.9587ZM9.35821 16.4098C9.4338 15.5326 9.11827 14.6739 8.50128 14.086C8.37208 14.071 8.04776 14.0376 7.63204 14.1607C8.14068 14.6877 8.4338 15.386 8.45382 16.1182C8.73391 16.2722 9.0409 16.3712 9.35821 16.4098ZM8.26222 16.4933C7.98885 16.6593 7.74962 16.8758 7.55733 17.1314C8.27804 17.635 9.17892 17.7914 9.9963 17.5515C10.1721 17.3159 10.2983 17.0471 10.3672 16.7613C10.1348 16.8206 9.89601 16.8513 9.65616 16.8528C9.17628 16.8519 8.69903 16.7288 8.26222 16.4933ZM7.39825 17.3696C7.26466 17.5981 7.17237 17.8477 7.11612 18.1096C7.506 18.3489 7.96149 18.4589 8.41762 18.4241C8.87374 18.3892 9.3072 18.2111 9.65616 17.9154C8.66388 18.0569 7.86935 17.6974 7.39825 17.3696ZM8.98292 14.2002C9.46896 14.819 9.70802 15.617 9.63858 16.4291C9.90634 16.4297 10.1725 16.3876 10.427 16.3043C10.427 16.2867 10.4296 16.2692 10.4296 16.2516C10.4296 15.3041 9.82579 14.5017 8.98292 14.2002Z" fill="black"/>
</g>
<defs>
<clipPath id="clip0">
<rect width="4.5" height="4.5" fill="" transform="translate(6 2)"/>
</clipPath>
<clipPath id="clip1">
<rect width="4.5" height="4.5" fill="" transform="translate(12 14)"/>
</clipPath>
<clipPath id="clip2">
<rect width="4.5" height="4.5" fill="" transform="translate(12 8)"/>
</clipPath>
<clipPath id="clip3">
<rect width="4.5" height="4.5" fill="" transform="translate(6 8)"/>
</clipPath>
<clipPath id="clip4">
<rect width="4.5" height="4.5" fill="" transform="translate(6 14)"/>
</clipPath>
</defs>
</svg>
