<svg width="58" height="20" viewBox="0 0 58 20" fill="none" xmlns="http://www.w3.org/2000/svg">
<rect width="58" height="20" fill="white"/>
<path d="M15.0305 17C12.3345 17 11.2651 13.7022 10.1328 10.2178C9.31503 7.69778 8.29056 4.55556 6.94259 4.55556C3.89616 4.55556 3.7973 9.94556 3.7973 10H2C2 9.71222 2.05392 3 6.94259 3C9.63854 3 10.7259 6.30556 11.8582 9.79778C12.6311 12.1778 13.6825 15.4444 15.0305 15.4444C18.1218 15.4444 18.2027 10.0544 18.2027 10H20C20 10.2878 19.9461 17 15.0305 17Z" fill="black"/>
<path d="M33.0305 17C30.3345 17 29.2651 13.7022 28.1328 10.2178C27.315 7.69778 26.2906 4.55556 24.9426 4.55556C21.8962 4.55556 21.7973 9.94556 21.7973 10H20C20 9.71222 20.0539 3 24.9426 3C27.6385 3 28.7259 6.30556 29.8582 9.79778C30.6311 12.1778 31.6825 15.4444 33.0305 15.4444C36.1218 15.4444 36.2027 10.0544 36.2027 10H38C38 10.2878 37.9461 17 33.0305 17Z" fill="black"/>
<path d="M51.0305 17C48.3345 17 47.2651 13.7022 46.1328 10.2178C45.315 7.69778 44.2906 4.55556 42.9426 4.55556C39.8962 4.55556 39.7973 9.94556 39.7973 10H38C38 9.71222 38.0539 3 42.9426 3C45.6385 3 46.7259 6.30556 47.8582 9.79778C48.6311 12.1778 49.6825 15.4444 51.0305 15.4444C54.1218 15.4444 54.2027 10.0544 54.2027 10H56C56 10.2878 55.9461 17 51.0305 17Z" fill="black"/>
</svg>
