<svg width="701" height="400" viewBox="0 0 701 400" fill="none" xmlns="http://www.w3.org/2000/svg">
<rect width="701" height="400" fill="white"/>
<rect x="77" y="151" width="74" height="100" fill="white"/>
<rect width="74" height="100" transform="matrix(-1 0 0 1 624 151.5)" fill="white"/>
<line x1="351.75" y1="-4.82551e-10" x2="351.75" y2="400" stroke="black" stroke-width="1.5"/>
<rect x="1.5" y="155.5" width="150" height="88" stroke="black"/>
<rect x="-0.5" y="0.5" width="150" height="88" transform="matrix(-1 0 0 1 699 155.5)" stroke="black"/>
<line x1="1" y1="49.5" x2="141" y2="49.5" stroke="black"/>
<line y1="-0.5" x2="140" y2="-0.5" transform="matrix(-1 0 0 1 700 50.5)" stroke="black"/>
<line x1="17.5" y1="187" x2="17.5" y2="213" stroke="black"/>
<line x1="684.5" y1="188" x2="684.5" y2="214" stroke="black"/>
<line y1="351.5" x2="140" y2="351.5" stroke="black"/>
<line y1="-0.5" x2="140" y2="-0.5" transform="matrix(-1 0 0 1 701 352.5)" stroke="black"/>
<circle cx="149.5" cy="199.5" r="44" transform="rotate(-180 149.5 199.5)" stroke="black" stroke-linecap="round" stroke-linejoin="round"/>
<circle r="44" transform="matrix(1 0 0 -1 551.5 200)" stroke="black" stroke-linecap="round" stroke-linejoin="round"/>
<rect x="152" y="154" width="51" height="90" fill="white"/>
<rect width="51" height="90" transform="matrix(-1 0 0 1 549 154.5)" fill="white"/>
<rect x="152" y="154" width="51" height="90" fill="white"/>
<rect width="51" height="90" transform="matrix(-1 0 0 1 549 154.5)" fill="white"/>
<circle cx="149.5" cy="199.5" r="44" transform="rotate(-180 149.5 199.5)" stroke="black" stroke-linecap="round"/>
<circle r="44" transform="matrix(1 0 0 -1 551.5 200)" stroke="black" stroke-linecap="round"/>
<rect x="77" y="156" width="74" height="87" fill="white"/>
<rect width="74" height="87" transform="matrix(-1 0 0 1 624 156.5)" fill="white"/>
<circle cx="149.5" cy="199.5" r="44" transform="rotate(-180 149.5 199.5)" stroke="black" stroke-linecap="round" stroke-dasharray="5 5"/>
<circle r="44" transform="matrix(1 0 0 -1 551.5 200)" stroke="black" stroke-linecap="round" stroke-dasharray="5 5"/>
<circle cx="350.5" cy="199.5" r="44" transform="rotate(-180 350.5 199.5)" stroke="black" stroke-linecap="round"/>
<path d="M140 351.5C181.421 351.5 216 283.947 216 200C216 116.053 181.921 49.5 140.5 49.5" stroke="black"/>
<path d="M561 352C519.579 352 485 284.447 485 200.5C485 116.553 519.079 50 560.5 50" stroke="black"/>
<circle cx="22" cy="200" r="4.5" stroke="black"/>
<circle r="4.5" transform="matrix(-1 0 0 1 679 200.5)" stroke="black"/>
<rect x="1.75" y="0.75" width="698.5" height="398.5" stroke="black" stroke-width="1.5"/>
</svg>
