<svg width="20" height="17" viewBox="0 0 20 17" fill="none" xmlns="http://www.w3.org/2000/svg">
<path d="M18.1481 2.61539H15L14.25 0.495055C14.1982 0.349967 14.1032 0.224554 13.9781 0.135948C13.853 0.0473417 13.7038 -0.000136051 13.5509 2.92836e-07H6.44907C6.13657 2.92836e-07 5.85648 0.198489 5.75231 0.495055L5 2.61539H1.85185C0.828704 2.61539 0 3.45137 0 4.48352V15.1319C0 16.164 0.828704 17 1.85185 17H18.1481C19.1713 17 20 16.164 20 15.1319V4.48352C20 3.45137 19.1713 2.61539 18.1481 2.61539ZM10 13.2637C7.9537 13.2637 6.2963 11.5918 6.2963 9.52747C6.2963 7.46319 7.9537 5.79121 10 5.79121C12.0463 5.79121 13.7037 7.46319 13.7037 9.52747C13.7037 11.5918 12.0463 13.2637 10 13.2637ZM7.77778 9.52747C7.77778 10.122 8.0119 10.6922 8.42865 11.1126C8.8454 11.533 9.41063 11.7692 10 11.7692C10.5894 11.7692 11.1546 11.533 11.5713 11.1126C11.9881 10.6922 12.2222 10.122 12.2222 9.52747C12.2222 8.93292 11.9881 8.36272 11.5713 7.94231C11.1546 7.5219 10.5894 7.28571 10 7.28571C9.41063 7.28571 8.8454 7.5219 8.42865 7.94231C8.0119 8.36272 7.77778 8.93292 7.77778 9.52747Z" fill="#999"/>
</svg>
