<svg width="29" height="29" viewBox="0 0 29 29" fill="none" xmlns="http://www.w3.org/2000/svg">
<path d="M27.4812 15.6461C27.6082 15.6054 27.7201 15.5275 27.8024 15.4224C27.8847 15.3174 27.9335 15.1901 27.9426 15.0569C27.9518 14.9238 27.9207 14.791 27.8535 14.6758C27.7863 14.5605 27.6861 14.468 27.5658 14.4103L9.27095 5.59645C9.14914 5.53775 9.01237 5.51748 8.87878 5.53833C8.74519 5.55917 8.62111 5.62015 8.52299 5.71317C8.42487 5.80619 8.35736 5.92685 8.32941 6.05913C8.30147 6.19142 8.31442 6.32908 8.36653 6.45385L11.4851 13.9285L7.37587 20.9066C7.30675 21.0232 7.2748 21.1581 7.28429 21.2933C7.29378 21.4284 7.34425 21.5575 7.42898 21.6633C7.5137 21.7691 7.62866 21.8466 7.75852 21.8854C7.88838 21.9242 8.02698 21.9224 8.15584 21.8804L27.4812 15.6461V15.6461Z" fill="black"/>
</svg>
