<svg width="19" height="18" viewBox="0 0 19 18" fill="none" xmlns="http://www.w3.org/2000/svg">
<path d="M10.0751 0.585159L5.3251 5.33416L0.571101 10.1772C0.202915 10.5539 -0.00222726 11.0604 1.8242e-05 11.5871C0.00226375 12.1139 0.211717 12.6186 0.583101 12.9922L4.8821 17.2912C4.97459 17.3846 5.08472 17.4587 5.20609 17.5091C5.32746 17.5596 5.45765 17.5854 5.5891 17.5852H17.5901V15.5852H10.6321L17.8541 8.36316C18.6341 7.58316 18.6341 6.31516 17.8541 5.53516L12.9031 0.585159C12.5279 0.210462 12.0193 0 11.4891 0C10.9589 0 10.4503 0.210462 10.0751 0.585159V0.585159ZM6.0031 15.5852L1.9981 11.5792L6.7461 6.74216L7.4891 5.99916L12.4391 10.9492L7.8821 15.5062C7.85749 15.531 7.83445 15.5574 7.8131 15.5852H6.0031V15.5852Z" fill="#999"/>
</svg>
