<svg width="16" height="16" viewBox="0 0 16 16" fill="none" xmlns="http://www.w3.org/2000/svg">
<path d="M8 10C7.60444 10 7.21776 9.8827 6.88886 9.66294C6.55996 9.44318 6.30362 9.13082 6.15224 8.76537C6.00087 8.39992 5.96126 7.99778 6.03843 7.60982C6.1156 7.22186 6.30608 6.86549 6.58579 6.58579C6.86549 6.30608 7.22186 6.1156 7.60982 6.03843C7.99778 5.96126 8.39992 6.00087 8.76537 6.15224C9.13082 6.30362 9.44318 6.55996 9.66294 6.88886C9.8827 7.21776 10 7.60444 10 8C9.99934 8.53023 9.78841 9.03855 9.41348 9.41348C9.03855 9.78841 8.53023 9.99934 8 10ZM8 7C7.80222 7 7.60888 7.05865 7.44443 7.16853C7.27998 7.27841 7.15181 7.43459 7.07612 7.61732C7.00043 7.80004 6.98063 8.00111 7.01922 8.19509C7.0578 8.38907 7.15304 8.56726 7.29289 8.70711C7.43275 8.84696 7.61093 8.9422 7.80491 8.98079C7.99889 9.01937 8.19996 8.99957 8.38268 8.92388C8.56541 8.84819 8.72159 8.72002 8.83147 8.55557C8.94135 8.39112 9 8.19778 9 8C8.99974 7.73487 8.89429 7.48067 8.70682 7.29319C8.51934 7.10571 8.26514 7.00027 8 7Z" fill="#999"/>
<path d="M2.5 10C2.10444 10 1.71776 9.8827 1.38886 9.66294C1.05996 9.44318 0.803617 9.13082 0.652242 8.76537C0.500867 8.39992 0.46126 7.99778 0.53843 7.60982C0.615601 7.22186 0.806082 6.86549 1.08579 6.58579C1.36549 6.30608 1.72186 6.1156 2.10982 6.03843C2.49778 5.96126 2.89992 6.00087 3.26537 6.15224C3.63082 6.30362 3.94318 6.55996 4.16294 6.88886C4.3827 7.21776 4.5 7.60444 4.5 8C4.49934 8.53023 4.28841 9.03855 3.91348 9.41348C3.53855 9.78841 3.03023 9.99934 2.5 10ZM2.5 7C2.30222 7 2.10888 7.05865 1.94443 7.16853C1.77998 7.27841 1.65181 7.43459 1.57612 7.61732C1.50043 7.80004 1.48063 8.00111 1.51922 8.19509C1.5578 8.38907 1.65304 8.56726 1.79289 8.70711C1.93275 8.84696 2.11093 8.9422 2.30491 8.98079C2.49889 9.01937 2.69996 8.99957 2.88268 8.92388C3.06541 8.84819 3.22159 8.72002 3.33147 8.55557C3.44135 8.39112 3.5 8.19778 3.5 8C3.49974 7.73487 3.39429 7.48067 3.20682 7.29319C3.01934 7.10571 2.76514 7.00027 2.5 7Z" fill="#999"/>
<path d="M5 15.5C4.60444 15.5 4.21776 15.3827 3.88886 15.1629C3.55996 14.9432 3.30362 14.6308 3.15224 14.2654C3.00087 13.8999 2.96126 13.4978 3.03843 13.1098C3.1156 12.7219 3.30608 12.3655 3.58579 12.0858C3.86549 11.8061 4.22186 11.6156 4.60982 11.5384C4.99778 11.4613 5.39992 11.5009 5.76537 11.6522C6.13082 11.8036 6.44318 12.06 6.66294 12.3889C6.8827 12.7178 7 13.1044 7 13.5C6.99934 14.0302 6.78841 14.5386 6.41348 14.9135C6.03855 15.2884 5.53023 15.4993 5 15.5ZM5 12.5C4.80222 12.5 4.60888 12.5587 4.44443 12.6685C4.27998 12.7784 4.15181 12.9346 4.07612 13.1173C4.00043 13.3 3.98063 13.5011 4.01922 13.6951C4.0578 13.8891 4.15304 14.0673 4.29289 14.2071C4.43275 14.347 4.61093 14.4422 4.80491 14.4808C4.99889 14.5194 5.19996 14.4996 5.38268 14.4239C5.56541 14.3482 5.72159 14.22 5.83147 14.0556C5.94135 13.8911 6 13.6978 6 13.5C5.99974 13.2349 5.89429 12.9807 5.70682 12.7932C5.51934 12.6057 5.26514 12.5003 5 12.5Z" fill="#999"/>
<path d="M11 4.5C10.6044 4.5 10.2178 4.3827 9.88886 4.16294C9.55996 3.94318 9.30362 3.63082 9.15224 3.26537C9.00087 2.89992 8.96126 2.49778 9.03843 2.10982C9.1156 1.72186 9.30608 1.36549 9.58579 1.08579C9.86549 0.806082 10.2219 0.615601 10.6098 0.53843C10.9978 0.46126 11.3999 0.500867 11.7654 0.652242C12.1308 0.803617 12.4432 1.05996 12.6629 1.38886C12.8827 1.71776 13 2.10444 13 2.5C12.9993 3.03023 12.7884 3.53855 12.4135 3.91348C12.0386 4.28841 11.5302 4.49934 11 4.5ZM11 1.5C10.8022 1.5 10.6089 1.55865 10.4444 1.66853C10.28 1.77841 10.1518 1.93459 10.0761 2.11732C10.0004 2.30004 9.98063 2.50111 10.0192 2.69509C10.0578 2.88907 10.153 3.06726 10.2929 3.20711C10.4327 3.34696 10.6109 3.4422 10.8049 3.48079C10.9989 3.51937 11.2 3.49957 11.3827 3.42388C11.5654 3.34819 11.7216 3.22002 11.8315 3.05557C11.9414 2.89112 12 2.69778 12 2.5C11.9997 2.23487 11.8943 1.98067 11.7068 1.79319C11.5193 1.60571 11.2651 1.50027 11 1.5Z" fill="#999"/>
<path d="M5 4.5C4.60444 4.5 4.21776 4.3827 3.88886 4.16294C3.55996 3.94318 3.30362 3.63082 3.15224 3.26537C3.00087 2.89992 2.96126 2.49778 3.03843 2.10982C3.1156 1.72186 3.30608 1.36549 3.58579 1.08579C3.86549 0.806082 4.22186 0.615601 4.60982 0.53843C4.99778 0.46126 5.39992 0.500867 5.76537 0.652242C6.13082 0.803617 6.44318 1.05996 6.66294 1.38886C6.8827 1.71776 7 2.10444 7 2.5C6.99934 3.03023 6.78841 3.53855 6.41348 3.91348C6.03855 4.28841 5.53023 4.49934 5 4.5ZM5 1.5C4.80222 1.5 4.60888 1.55865 4.44443 1.66853C4.27998 1.77841 4.15181 1.93459 4.07612 2.11732C4.00043 2.30004 3.98063 2.50111 4.01922 2.69509C4.0578 2.88907 4.15304 3.06726 4.29289 3.20711C4.43275 3.34696 4.61093 3.4422 4.80491 3.48079C4.99889 3.51937 5.19996 3.49957 5.38268 3.42388C5.56541 3.34819 5.72159 3.22002 5.83147 3.05557C5.94135 2.89112 6 2.69778 6 2.5C5.99974 2.23487 5.89429 1.98067 5.70682 1.79319C5.51934 1.60571 5.26514 1.50027 5 1.5Z" fill="#999"/>
</svg>
