<svg width="18" height="18" viewBox="0 0 18 18" fill="none" xmlns="http://www.w3.org/2000/svg">
<path d="M16.3636 0H1.63636C1.20237 0 0.786158 0.180612 0.47928 0.502103C0.172402 0.823594 0 1.25963 0 1.71429V12C0 12.4547 0.172402 12.8907 0.47928 13.2122C0.786158 13.5337 1.20237 13.7143 1.63636 13.7143H4.55727L5.72727 18L7.36364 16.2857L9 18L10.6364 16.2857L12.2727 18L13.4427 13.7143H16.3636C16.7976 13.7143 17.2138 13.5337 17.5207 13.2122C17.8276 12.8907 18 12.4547 18 12V1.71429C18 1.25963 17.8276 0.823594 17.5207 0.502103C17.2138 0.180612 16.7976 0 16.3636 0ZM16.3636 12H13.9091V10.2857H13.0909V6C13.0909 5.54534 12.9185 5.10931 12.6116 4.78782C12.3048 4.46633 11.8885 4.28571 11.4545 4.28571H6.54545C6.11146 4.28571 5.69525 4.46633 5.38837 4.78782C5.08149 5.10931 4.90909 5.54534 4.90909 6V10.2857H4.09091V12H1.63636V1.71429H16.3636V12ZM6.54545 10.2857V6H11.4545V10.2857H6.54545Z" fill="#999"/>
</svg>
