<svg width="15" height="20" viewBox="0 0 15 20" fill="none" xmlns="http://www.w3.org/2000/svg">
<path d="M3.92501 2.93896C4.46349 2.93896 4.90001 2.50491 4.90001 1.96948C4.90001 1.43405 4.46349 1 3.92501 1C3.38653 1 2.95001 1.43405 2.95001 1.96948C2.95001 2.50491 3.38653 2.93896 3.92501 2.93896Z" stroke="black" stroke-width="0.5" stroke-miterlimit="10"/>
<path d="M1 11.9551L1.26 5.8474C1.2925 4.94255 2.04 4.2316 2.95 4.2316H4.9C5.81 4.2316 6.5575 4.94255 6.59 5.8474C6.59 5.8474 6.6225 8.01257 6.6875 8.85278C6.8175 10.4363 7.5 11.9551 7.5 11.9551" stroke="black" stroke-width="0.5" stroke-linecap="round" stroke-linejoin="round"/>
<path d="M5.54998 6.17056C4.76998 7.30162 5.32248 8.14184 5.54998 8.75584C5.71248 9.17595 5.80998 10.1131 5.84248 10.5655C6.03748 12.5045 6.16748 18.386 6.16748 18.386C6.19998 18.7415 5.93998 18.9677 5.67998 18.9677C5.41998 18.9677 5.22498 18.7738 5.19248 18.5476L4.31498 11.018C4.28248 10.8241 4.15248 10.6625 3.92498 10.6625C3.69748 10.6625 3.56748 10.8241 3.53498 11.018L2.65748 18.5476C2.62498 18.7738 2.42998 18.9677 2.16998 18.9677C1.90998 18.9677 1.64998 18.7415 1.68248 18.386C1.68248 18.386 1.84498 12.5368 2.03998 10.6302C2.07248 10.1454 2.16998 9.20826 2.29998 8.72352C2.49498 8.10952 3.07998 7.20467 2.29998 6.13824" stroke="black" stroke-width="0.5" stroke-linecap="round" stroke-linejoin="round"/>
<path d="M11.075 2.93896C11.6135 2.93896 12.05 2.50491 12.05 1.96948C12.05 1.43405 11.6135 1 11.075 1C10.5365 1 10.1 1.43405 10.1 1.96948C10.1 2.50491 10.5365 2.93896 11.075 2.93896Z" stroke="black" stroke-width="0.5" stroke-miterlimit="10"/>
<path d="M7.5 11.9551C7.5 11.9551 8.1825 10.4363 8.3125 8.85278C8.3775 8.04488 8.41 5.8474 8.41 5.8474C8.4425 4.94255 9.19 4.2316 10.1 4.2316H12.05C12.96 4.2316 13.7075 4.94255 13.74 5.8474L14 11.9551" stroke="black" stroke-width="0.5" stroke-linecap="round" stroke-linejoin="round"/>
<path d="M12.7 6.17056C11.92 7.23698 12.505 8.14183 12.7 8.75583C12.8625 9.20826 12.9275 10.1777 12.96 10.6625C13.155 12.5691 13.3175 18.4183 13.3175 18.4183C13.35 18.7738 13.09 19 12.83 19C12.57 19 12.375 18.8061 12.3425 18.5799L11.465 11.0503C11.4325 10.8564 11.3025 10.6948 11.075 10.6948C10.8475 10.6948 10.7175 10.8564 10.685 11.0503L9.8075 18.5799C9.775 18.8061 9.58 19 9.32 19C9.06 19 8.8 18.7738 8.8325 18.4183C8.8325 18.4183 8.9625 12.5368 9.1575 10.5978C9.19 10.1454 9.2875 9.20826 9.45 8.78815C9.645 8.17415 10.1975 7.33393 9.45 6.20287" stroke="black" stroke-width="0.5" stroke-linecap="round" stroke-linejoin="round"/>
</svg>
