<svg width="18" height="18" viewBox="0 0 18 18" fill="none" xmlns="http://www.w3.org/2000/svg">
<path d="M8.96204 4.66312V13.5703" stroke="#999" stroke-width="0.375" stroke-miterlimit="10"/>
<path d="M5.51672 4.66312L6.5011 6.60234V13.5703" stroke="#999" stroke-width="0.375" stroke-miterlimit="10"/>
<path d="M12.4073 4.66312L11.423 6.60234V13.5703" stroke="#999" stroke-width="0.375" stroke-miterlimit="10"/>
<path d="M4.56187 13.3988H13.3636" stroke="#999" stroke-width="0.375" stroke-miterlimit="10"/>
<path d="M2.88844 5.90625V13.9936" stroke="#999" stroke-width="0.375" stroke-miterlimit="10"/>
<path d="M4.07391 8.90297L0.999847 8.60063" stroke="#999" stroke-width="0.375" stroke-miterlimit="10"/>
<path d="M4.52672 11.1178L0.999847 11.5045" stroke="#999" stroke-width="0.375" stroke-miterlimit="10"/>
<path d="M4.12312 8.92266H13.8755" stroke="#999" stroke-width="0.375" stroke-miterlimit="10"/>
<path d="M3.98953 11.16H13.7841" stroke="#999" stroke-width="0.375" stroke-miterlimit="10"/>
<path d="M3.58594 6.68391H14.3381" stroke="#999" stroke-width="0.375" stroke-miterlimit="10"/>
<path d="M1.0786 14.8528L4.49157 13.4888" stroke="#999" stroke-width="0.375" stroke-miterlimit="10"/>
<path d="M15.1172 5.90625V13.9936" stroke="#999" stroke-width="0.375" stroke-miterlimit="10"/>
<path d="M13.9317 8.90297L17.0058 8.60063" stroke="#999" stroke-width="0.375" stroke-miterlimit="10"/>
<path d="M13.4789 11.1178L17.0058 11.5045" stroke="#999" stroke-width="0.375" stroke-miterlimit="10"/>
<path d="M16.9256 14.8528L13.5141 13.4888" stroke="#999" stroke-width="0.375" stroke-miterlimit="10"/>
<path d="M5.19048 10.1503C5.10891 8.99438 4.86141 7.86656 4.47469 6.88922C4.14844 6.06234 3.72516 5.35078 3.2836 4.88672C3.05547 4.64904 2.78873 4.45171 2.49469 4.30313C2.36813 4.23984 2.23313 4.21453 2.09251 4.22719C1.79298 4.25391 1.5286 4.46625 1.44141 4.75453C1.32329 5.14266 1.52719 5.52797 1.8886 5.67984C2.00954 5.73047 2.13469 5.82609 2.25141 5.92313C4.14563 7.48547 4.0486 12.3005 3.97407 13.7391C3.96563 13.8994 4.0936 14.0344 4.25532 14.0344H4.95704C5.1061 14.0344 5.22985 13.9177 5.23829 13.7672C5.23688 13.7503 5.32126 12.0108 5.19048 10.1503V10.1503Z" fill="url(#paint0_linear)"/>
<path d="M12.8095 10.1503C12.8911 8.99438 13.1386 7.86656 13.5253 6.88922C13.8516 6.06234 14.2748 5.35078 14.7164 4.88672C14.9386 4.65328 15.2184 4.44656 15.5053 4.30313C15.6319 4.23984 15.7669 4.21453 15.9075 4.22719C16.207 4.25391 16.4714 4.46625 16.5586 4.75453C16.6767 5.14266 16.4728 5.52797 16.1114 5.67984C15.9905 5.73047 15.8653 5.82609 15.7486 5.92313C13.8572 7.48547 13.9528 12.2991 14.0273 13.7377C14.0358 13.898 13.9078 14.033 13.7461 14.033H13.0444C12.8953 14.033 12.7716 13.9163 12.7631 13.7658C12.7617 13.7503 12.6773 12.0108 12.8095 10.1503V10.1503Z" fill="url(#paint1_linear)"/>
<path opacity="0.2" d="M2.15859 4.64625C2.21062 4.64625 2.25843 4.6575 2.30624 4.68141C2.55093 4.80234 2.78859 4.97953 2.97703 5.17781C3.38203 5.60391 3.77437 6.26766 4.08093 7.04531C4.45218 7.98328 4.68984 9.0675 4.76859 10.1812C4.87828 11.7211 4.83749 13.1752 4.82062 13.6125H4.40156C4.43812 12.7884 4.46062 11.3203 4.26796 9.82266C4.00218 7.75687 3.41296 6.33516 2.51859 5.59687C2.37656 5.48016 2.22328 5.36203 2.05031 5.29031C1.87734 5.21719 1.79156 5.04844 1.84359 4.87687C1.88156 4.75312 1.99828 4.65891 2.12765 4.64766C2.1389 4.64625 2.14874 4.64625 2.15859 4.64625V4.64625ZM2.15859 4.22437C2.13609 4.22437 2.11359 4.22578 2.09109 4.22719C1.79156 4.25391 1.52718 4.46625 1.43999 4.75453C1.32187 5.14266 1.52578 5.52797 1.88718 5.67984C2.00812 5.73047 2.13328 5.82609 2.24999 5.92312C4.14421 7.48547 4.04718 12.3005 3.97265 13.7391C3.96421 13.8994 4.09218 14.0344 4.2539 14.0344H4.95562C5.10468 14.0344 5.22843 13.9177 5.23687 13.7672C5.23828 13.7503 5.32265 12.0094 5.19046 10.1503C5.1089 8.99437 4.8614 7.86656 4.47468 6.88922C4.14843 6.06234 3.72515 5.35078 3.28359 4.88672C3.05546 4.64903 2.78872 4.45171 2.49468 4.30312C2.39016 4.25147 2.27517 4.22453 2.15859 4.22437V4.22437Z" fill="#999"/>
<path opacity="0.2" d="M15.8414 4.64625C15.8512 4.64625 15.8611 4.64625 15.8723 4.64766C16.0017 4.65891 16.1198 4.75312 16.1564 4.87687C16.2084 5.04844 16.1241 5.21719 15.9497 5.29031C15.7781 5.36203 15.6234 5.48016 15.4814 5.59687C14.587 6.33516 13.9978 7.75687 13.732 9.82266C13.5394 11.3203 13.5619 12.7884 13.5984 13.6125H13.1794C13.1625 13.1737 13.1217 11.7211 13.2314 10.1812C13.3102 9.0675 13.5478 7.98328 13.9191 7.04531C14.227 6.26766 14.6194 5.60391 15.023 5.17781C15.2114 4.97953 15.4491 4.80375 15.6937 4.68141C15.7416 4.6575 15.7894 4.64625 15.8414 4.64625V4.64625ZM15.8414 4.22437C15.7247 4.22437 15.6122 4.25109 15.5067 4.30312C15.2122 4.451 14.9454 4.6484 14.7178 4.88672C14.2762 5.35078 13.8544 6.06234 13.5267 6.88922C13.14 7.86656 12.8925 8.99437 12.8109 10.1503C12.6787 12.0094 12.7631 13.7489 12.7645 13.7672C12.773 13.9162 12.8953 14.0344 13.0458 14.0344H13.7475C13.9092 14.0344 14.0372 13.8994 14.0287 13.7391C13.9528 12.2991 13.8572 7.48547 15.75 5.92312C15.8667 5.8275 15.9905 5.73187 16.1128 5.67984C16.4742 5.52797 16.6781 5.14266 16.56 4.75453C16.4728 4.46625 16.2084 4.25391 15.9089 4.22719C15.8864 4.22578 15.8639 4.22437 15.8414 4.22437V4.22437Z" fill="#999"/>
<path d="M1.82532 15.3675H0.981567C0.74813 15.3675 0.559692 15.1791 0.559692 14.9456L0.566724 5.0625C0.566724 4.33125 1.16016 3.73922 1.89 3.73922H16.1156C16.8469 3.73922 17.4389 4.33125 17.4389 5.0625V14.9442C17.4389 15.1777 17.2505 15.3661 17.017 15.3661H16.1733C15.9398 15.3661 15.7514 15.1777 15.7514 14.9442V6.18891C15.7514 5.76844 15.4111 5.42813 14.9906 5.42813H2.73516C2.60804 5.42831 2.48618 5.47889 2.39629 5.56878C2.3064 5.65867 2.25582 5.78053 2.25563 5.90766L2.2486 14.947C2.24789 15.0588 2.20298 15.1658 2.12367 15.2446C2.04436 15.3233 1.9371 15.3675 1.82532 15.3675V15.3675Z" fill="url(#paint2_linear)"/>
<path opacity="0.2" d="M16.1156 4.16109C16.6134 4.16109 17.017 4.56609 17.017 5.0625V14.9442H16.1733V6.18891C16.1733 5.53641 15.6431 5.00625 14.9906 5.00625H2.73516C2.49469 5.00625 2.26828 5.10047 2.09813 5.27063C1.92797 5.44078 1.83375 5.66719 1.83375 5.90766L1.82672 14.947H0.982971L0.988596 5.0625C0.988596 4.56609 1.3936 4.16109 1.89 4.16109H16.1156ZM16.1156 3.73922H1.89141C1.16016 3.73922 0.568127 4.33125 0.568127 5.0625L0.561096 14.9456C0.561096 15.1791 0.749534 15.3675 0.982971 15.3675H1.82672C2.06016 15.3675 2.2486 15.1791 2.2486 14.9456L2.25563 5.90625C2.25581 5.77913 2.30639 5.65727 2.39628 5.56738C2.48617 5.47749 2.60804 5.42691 2.73516 5.42672H14.992C15.4125 5.42672 15.7528 5.76703 15.7528 6.1875V14.9442C15.7528 15.1777 15.9413 15.3661 16.1747 15.3661H17.0184C17.2519 15.3661 17.4403 15.1777 17.4403 14.9442V5.06391C17.4403 4.33266 16.8469 3.73922 16.1156 3.73922V3.73922Z" fill="#999"/>
<defs>
<linearGradient id="paint0_linear" x1="1.40612" y1="9.12923" x2="5.26402" y2="9.12923" gradientUnits="userSpaceOnUse">
<stop stop-color="#999"/>
<stop offset="0.999" stop-color="#999"/>
</linearGradient>
<linearGradient id="paint1_linear" x1="12.7358" y1="9.12923" x2="16.5937" y2="9.12923" gradientUnits="userSpaceOnUse">
<stop stop-color="#999"/>
<stop offset="0.999" stop-color="#999"/>
</linearGradient>
<linearGradient id="paint2_linear" x1="9" y1="3.87816" x2="9" y2="14.4506" gradientUnits="userSpaceOnUse">
<stop stop-color="#999"/>
<stop offset="1" stop-color="#999"/>
</linearGradient>
</defs>
</svg>
