<svg width="18" height="18" viewBox="0 0 18 18" fill="none" xmlns="http://www.w3.org/2000/svg">
<path d="M17.98 8.99745C17.9863 8.78355 18.0427 5.7263 16.2334 3.73614C16.153 3.55824 15.7717 2.84125 14.5411 1.96497C13.9956 1.5418 13.4161 1.16423 12.8086 0.836086L12.8062 0.834886C12.7294 0.793787 11.2288 0 9.40755 0C9.26926 0 9.13246 0.00809989 8.99716 0.0173997V0.0149997C7.60847 -0.0152998 6.22908 0.341994 5.39779 0.717288C4.66039 1.05028 3.8417 1.60857 3.7826 1.65177C2.76141 2.22296 0.82492 4.51523 0.671621 5.7299C0.0527257 6.52099 -0.46447 10.0744 0.672821 12.2389C1.47021 15.2469 4.47199 16.7523 4.71079 16.8678C4.85599 16.9605 6.49188 17.9718 8.50156 17.9718C8.58586 17.9718 9.09556 18 9.27736 18C11.4496 18 14.6686 16.4688 15.3424 15.2694C17.1937 13.9153 18.1534 10.4254 17.98 8.99745ZM4.72729 13.5163C3.8666 12.124 3.3761 10.3048 3.2711 9.88694C3.5435 9.47864 4.88719 7.49747 5.65278 6.90138C6.08628 6.98118 7.89647 7.31358 9.60375 7.62257C9.81825 8.17846 10.7593 10.6312 11.0287 11.578C10.7317 11.9302 9.56505 13.2886 8.41636 14.3524C7.19687 14.3581 5.12269 13.6546 4.72729 13.5163ZM15.547 3.77394C15.5434 3.90893 15.5113 4.38893 15.2815 4.94002C14.8252 4.70692 13.6783 4.20773 12.1063 4.12343C11.8684 3.77214 10.9732 2.54726 9.55935 1.69767C9.75285 1.31908 10.0222 0.857386 10.1797 0.716688C10.2307 0.702288 10.3099 0.689089 10.4305 0.689089C11.1886 0.689089 12.4984 1.18558 12.6124 1.22968C12.7333 1.29358 15.0877 2.56136 15.547 3.77394ZM2.9318 9.60344C1.90491 9.42824 1.29442 9.10905 1.11202 9.00105C0.73012 7.61597 1.03762 6.119 1.08502 5.9045C1.46182 5.23071 2.53461 3.51324 3.2423 3.18715C3.9758 3.03745 4.89049 3.22345 5.26309 3.31434C5.22799 3.79884 5.16049 5.15241 5.36089 6.57289C4.54909 7.22628 3.2642 9.10695 2.9318 9.60344V9.60344ZM8.90536 0.458992C9.13576 0.476092 9.47385 0.526491 9.70545 0.59519C9.47445 0.902385 9.23776 1.35778 9.12586 1.58277C8.65486 1.65987 6.86597 2.00187 5.46258 2.91175C5.17969 2.83675 4.32529 2.63666 3.5162 2.70565C3.7166 2.31776 4.016 2.03097 4.0481 2.00157C4.15939 1.92177 6.30198 0.422693 8.90536 0.455092V0.458992V0.458992ZM14.6341 11.8867C14.2831 11.8723 12.9307 11.7952 11.4478 11.4469C11.1637 10.4563 10.2256 8.01377 10.0111 7.45818C10.6936 6.48542 11.3865 5.51999 12.0895 4.56202C13.7959 4.65562 14.9941 5.27811 15.226 5.40801C16.2145 6.99768 16.4314 8.62126 16.4611 8.89245C15.9361 10.5262 14.8978 11.6263 14.6341 11.8867V11.8867ZM0.496422 7.95557C0.521622 8.33536 0.582522 8.73525 0.692621 9.13065C0.593638 9.38686 0.524972 9.65377 0.488022 9.92594C0.425369 9.2705 0.428183 8.61045 0.496422 7.95557V7.95557ZM3.3896 14.9632C3.842 14.5273 4.39969 14.1031 4.61599 13.9429C5.10499 14.1151 7.11317 14.794 8.39326 14.794C8.61136 15.0864 9.32445 16.0023 10.1986 16.7025C9.65445 17.235 8.86846 17.4864 8.72956 17.5281C6.29148 17.5935 3.917 16.2231 3.3896 14.9632V14.9632ZM9.82845 17.5245C10.105 17.3634 10.3933 17.1513 10.6318 16.8828C11.0209 16.8291 12.6907 16.5417 14.1997 15.4332C14.2993 15.444 14.4634 15.4572 14.6467 15.4521C13.7413 16.3392 11.5321 17.3301 9.82845 17.5245ZM14.4556 15.0118C14.9977 13.5994 14.9746 12.5344 14.9479 12.1942C15.2455 11.9026 16.2667 10.8145 16.8334 9.16035C17.1388 9.21135 17.3374 9.28905 17.4316 9.33254C17.4643 9.45254 17.5189 9.72974 17.488 10.15C17.257 11.6629 16.4596 13.93 15.0628 14.9323C14.9224 15.004 14.6752 15.0196 14.4556 15.0118" fill="#999"/>
</svg>
