<svg width="16" height="16" viewBox="0 0 16 16" fill="none" xmlns="http://www.w3.org/2000/svg">
<path d="M7.20624 7.5949C7.18149 6.42227 6.93295 5.26515 6.47397 4.18576C3.54487 5.55329 1.3932 8.13352 0.657703 11.1782C1.08813 12.1642 1.71233 13.0537 2.49323 13.7939C3.23584 11.2121 4.91685 9.00111 7.20624 7.5949V7.5949ZM6.01589 3.2601C5.52527 2.40545 4.90003 1.63547 4.16424 0.979819C1.22868 2.58602 -0.506841 5.91129 0.131884 9.43654C1.20933 6.75632 3.30615 4.53409 6.01589 3.2601ZM12.0676 8.58506C12.3451 5.36622 11.187 2.21511 8.92241 0.0573853C8.44821 0.0025553 7.25786 -0.120006 5.73202 0.331535C7.59888 2.2657 8.67475 4.828 8.74822 7.51491C9.77626 8.08012 10.903 8.44337 12.0676 8.58506V8.58506ZM8.04497 8.89146C7.04161 9.50053 6.16356 10.2952 5.45782 11.233C8.10304 13.0811 11.4096 13.6552 14.4096 12.7747C15.055 11.9103 15.5181 10.9238 15.771 9.87518C14.9179 10.0925 14.0415 10.2051 13.1612 10.2106C11.3999 10.2074 9.64824 9.75584 8.04497 8.89146ZM4.87393 12.1071C4.3836 12.9457 4.04488 13.8616 3.83842 14.8228C5.26941 15.7009 6.94121 16.1048 8.61535 15.9768C10.2895 15.8488 11.8804 15.1955 13.1612 14.11C9.5192 14.6293 6.603 13.3101 4.87393 12.1071V12.1071ZM10.6902 0.476673C12.4741 2.74728 13.3516 5.67585 13.0967 8.65602C14.0795 8.65809 15.0563 8.50349 15.9903 8.19803C15.9903 8.13352 16 8.06901 16 8.00451C16 4.52764 13.7838 1.58295 10.6902 0.476673V0.476673Z" fill="#999"/>
</svg>
