<svg width="16" height="16" viewBox="0 0 16 16" fill="none" xmlns="http://www.w3.org/2000/svg">
<g clip-path="url(#clip0)">
<path d="M5.82626 12.0388C5.75626 12.0388 5.69501 11.9863 5.68126 11.9113C5.05626 8.26376 3.84751 6.03501 3.83501 6.01376C3.79501 5.94001 3.81876 5.84501 3.88876 5.80251C3.95876 5.76001 4.04877 5.78501 4.09002 5.85876C4.10252 5.88126 5.33626 8.15126 5.97126 11.8563C5.98501 11.94 5.93251 12.02 5.85251 12.035C5.84376 12.0388 5.83501 12.0388 5.82626 12.0388V12.0388Z" fill="#999"/>
<path d="M7.42001 12.0388C7.35001 12.0388 7.28876 11.9863 7.27501 11.9113C6.65001 8.26376 5.44126 6.03501 5.42876 6.01376C5.38876 5.94001 5.41251 5.84501 5.48251 5.80251C5.55251 5.76001 5.64252 5.78501 5.68377 5.85876C5.69627 5.88126 6.93001 8.15126 7.56501 11.8563C7.57876 11.94 7.52626 12.02 7.44626 12.035C7.43751 12.0388 7.42876 12.0388 7.42001 12.0388V12.0388Z" fill="#999"/>
<path d="M8.88126 12.0388C8.81126 12.0388 8.74876 11.9863 8.73626 11.9113C8.11126 8.26376 6.90251 6.03501 6.89001 6.01376C6.85001 5.94001 6.87376 5.84501 6.94376 5.80251C7.01376 5.76001 7.10376 5.78501 7.14501 5.85876C7.15751 5.88126 8.39126 8.15126 9.02501 11.8563C9.04001 11.94 8.98626 12.02 8.90626 12.035C8.89876 12.0388 8.88876 12.0388 8.88126 12.0388V12.0388Z" fill="#999"/>
<path d="M2.82876 12.0388C2.82001 12.0388 2.81126 12.0375 2.80251 12.0363C2.72251 12.0213 2.66876 11.9413 2.68376 11.8575C3.31876 8.15251 4.55251 5.88251 4.56501 5.86001C4.60501 5.78626 4.69501 5.76126 4.76626 5.80376C4.83626 5.84626 4.86001 5.94126 4.82001 6.01501C4.80751 6.03626 3.59876 8.26501 2.97376 11.9125C2.96126 11.9863 2.89876 12.0388 2.82876 12.0388V12.0388Z" fill="#999"/>
<path d="M4.30252 12.0388C4.29377 12.0388 4.28502 12.0375 4.27627 12.0363C4.19627 12.0213 4.14377 11.9413 4.15752 11.8575C4.79252 8.15251 6.02627 5.88251 6.03877 5.86001C6.04788 5.8427 6.06043 5.82743 6.07565 5.81514C6.09087 5.80285 6.10844 5.79379 6.12728 5.78852C6.14612 5.78326 6.16583 5.78189 6.18522 5.78451C6.20461 5.78713 6.22325 5.79368 6.24002 5.80376C6.31002 5.84626 6.33502 5.94126 6.29377 6.01501C6.28127 6.03626 5.07252 8.26501 4.44752 11.9125C4.43377 11.9863 4.37127 12.0388 4.30252 12.0388Z" fill="#999"/>
<path d="M5.88251 12.0388C5.87376 12.0388 5.86501 12.0375 5.85626 12.0363C5.77626 12.0213 5.72376 11.9413 5.73751 11.8575C6.37251 8.15251 7.60626 5.88251 7.61876 5.86001C7.62787 5.8427 7.64042 5.82743 7.65564 5.81514C7.67086 5.80285 7.68842 5.79379 7.70726 5.78852C7.7261 5.78326 7.74582 5.78189 7.76521 5.78451C7.78459 5.78713 7.80324 5.79368 7.82001 5.80376C7.89001 5.84626 7.91501 5.94126 7.87376 6.01501C7.86126 6.03626 6.65251 8.26501 6.02751 11.9125C6.01501 11.9863 5.95251 12.0388 5.88251 12.0388Z" fill="#999"/>
<path d="M7.42126 12.0388C7.41251 12.0388 7.40376 12.0375 7.39501 12.0363C7.31501 12.0213 7.26126 11.9413 7.27626 11.8575C7.91126 8.15375 9.08501 5.885 9.09751 5.8625C9.13626 5.7875 9.22626 5.76 9.29751 5.80125C9.36876 5.8425 9.39501 5.93625 9.35626 6.01125C9.34501 6.03375 8.19251 8.2625 7.56751 11.9125C7.55251 11.9863 7.49001 12.0388 7.42126 12.0388V12.0388Z" fill="#999"/>
<path d="M8.88126 12.0388C8.87251 12.0388 8.86376 12.0375 8.85501 12.0363C8.77501 12.0213 8.72126 11.9413 8.73626 11.8575C9.37126 8.15251 10.605 5.88251 10.6175 5.86001C10.6588 5.78626 10.7488 5.76126 10.8188 5.80376C10.8888 5.84626 10.9125 5.94126 10.8725 6.01501C10.86 6.03626 9.65126 8.26501 9.02626 11.9125C9.01251 11.9863 8.95001 12.0388 8.88126 12.0388V12.0388Z" fill="#999"/>
<path d="M10.3975 12.0388C10.3888 12.0388 10.38 12.0375 10.3713 12.0363C10.2913 12.0213 10.2375 11.9413 10.2525 11.8575C10.8875 8.15251 12.1213 5.88251 12.1338 5.86001C12.175 5.78626 12.2638 5.76126 12.335 5.80376C12.405 5.84626 12.4288 5.94126 12.3888 6.01501C12.3763 6.03626 11.1675 8.26501 10.5425 11.9125C10.5288 11.9863 10.4663 12.0388 10.3975 12.0388V12.0388Z" fill="#999"/>
<path d="M11.9138 12.0388C11.905 12.0388 11.8963 12.0375 11.8875 12.0363C11.8075 12.0213 11.7538 11.9413 11.7688 11.8575C12.205 9.31126 12.9213 7.45126 13.31 6.57001C13.345 6.49251 13.4313 6.45876 13.505 6.49501C13.5788 6.53126 13.6113 6.62251 13.5775 6.70001C13.195 7.56876 12.4888 9.40001 12.0588 11.9125C12.045 11.9863 11.9838 12.0388 11.9138 12.0388V12.0388Z" fill="#999"/>
<path d="M10.3963 12.0388C10.3263 12.0388 10.2638 11.9863 10.2513 11.9113C9.62626 8.26376 8.41751 6.03501 8.40501 6.01376C8.36501 5.94001 8.38876 5.84501 8.45876 5.80251C8.52876 5.76001 8.61876 5.78501 8.66001 5.85876C8.67251 5.88126 9.90626 8.15126 10.5413 11.8563C10.5563 11.94 10.5025 12.02 10.4225 12.035C10.4138 12.0388 10.405 12.0388 10.3963 12.0388V12.0388Z" fill="#999"/>
<path d="M11.9138 12.0388C11.8438 12.0388 11.7813 11.9863 11.7688 11.9113C11.1438 8.26376 9.93501 6.03501 9.92251 6.01376C9.88251 5.94001 9.90626 5.84501 9.97626 5.80251C10.0463 5.76001 10.1363 5.78501 10.1775 5.85876C10.19 5.88126 11.4238 8.15126 12.0588 11.8563C12.0738 11.94 12.02 12.02 11.94 12.035C11.9313 12.0388 11.9225 12.0388 11.9138 12.0388V12.0388Z" fill="#999"/>
<path d="M13.3775 12.0388C13.3075 12.0388 13.245 11.9863 13.2325 11.9113C12.6075 8.26376 11.3988 6.03501 11.3863 6.01376C11.345 5.94001 11.37 5.84501 11.44 5.80251C11.51 5.76001 11.6 5.78501 11.6413 5.85876C11.6538 5.88126 12.8875 8.15126 13.5225 11.8563C13.5375 11.94 13.4838 12.02 13.4038 12.035C13.395 12.0388 13.3863 12.0388 13.3775 12.0388V12.0388Z" fill="#999"/>
<path d="M4.30127 12.0388C4.23127 12.0388 4.17002 11.9863 4.15627 11.9113C3.53127 8.26376 2.32252 6.03501 2.31002 6.01376C2.27002 5.94001 2.29377 5.84501 2.36377 5.80251C2.43377 5.76001 2.52377 5.78501 2.56502 5.85876C2.57752 5.88126 3.81127 8.15126 4.44627 11.8563C4.46002 11.94 4.40752 12.02 4.32752 12.035C4.31877 12.0388 4.31002 12.0388 4.30127 12.0388V12.0388Z" fill="#999"/>
<path d="M2.82875 12.2188C2.75875 12.2188 2.6975 12.1663 2.68375 12.0913C2.42875 10.605 2.0525 9.18376 1.56375 7.86751C1.535 7.78876 1.5725 7.69876 1.6475 7.66751C1.72375 7.63626 1.80875 7.67626 1.8375 7.75501C2.3325 9.09001 2.71375 10.53 2.9725 12.0363C2.9875 12.12 2.93375 12.2 2.85375 12.215C2.84625 12.2175 2.8375 12.2188 2.82875 12.2188V12.2188Z" fill="#050505"/>
<path d="M13.3788 12.2188C13.37 12.2188 13.3613 12.2175 13.3525 12.2163C13.2725 12.2013 13.22 12.1213 13.2338 12.0375C13.4925 10.5313 13.8738 9.09125 14.3688 7.75625C14.3988 7.67625 14.4838 7.6375 14.5588 7.66875C14.635 7.7 14.6725 7.78875 14.6425 7.86875C14.155 9.185 13.7775 10.6063 13.5238 12.0925C13.51 12.1663 13.4488 12.2188 13.3788 12.2188Z" fill="#050505"/>
<path d="M15.0175 13.0963C14.9913 13.0963 14.965 13.0938 14.9375 13.0875C8.44251 11.65 1.15126 13.075 1.07751 13.0888C0.878758 13.1288 0.685008 13 0.645008 12.8C0.605008 12.6 0.733758 12.4075 0.933758 12.3675C1.00751 12.3525 8.45251 10.8975 15.0963 12.3688C15.295 12.4125 15.42 12.6088 15.375 12.8075C15.3574 12.8893 15.3124 12.9625 15.2473 13.0151C15.1823 13.0676 15.1011 13.0963 15.0175 13.0963V13.0963Z" fill="#050505"/>
<path d="M15.22 13.915C14.6525 13.9188 14.6525 13.8238 14.4988 13.3175L13.185 6.47001V6.40001C13.185 6.14126 12.7613 5.83501 12.4038 5.83501H3.61876C3.26126 5.83501 2.83751 6.14126 2.83751 6.40001V6.47001L1.52501 13.3188C1.43501 13.9475 1.43501 13.9475 0.66376 13.9025C0.25876 13.8788 -0.18374 13.9163 0.0800102 13.0413L1.36876 6.32251C1.76626 4.36626 2.57751 4.36626 3.62001 4.36626H12.405C13.4475 4.36626 14.2163 4.36626 14.6563 6.32251L15.945 13.0413C16.1113 13.92 15.9075 13.9338 15.3613 13.92C15.3113 13.9188 15.2663 13.915 15.22 13.915V13.915Z" fill="black"/>
</g>
<defs>
<clipPath id="clip0">
<rect width="16" height="16" fill="#999"/>
</clipPath>
</defs>
</svg>
